<svg width="66" height="66" viewBox="0 0 66 66" fill="none" xmlns="http://www.w3.org/2000/svg">
<path d="M26.4624 19.6382H20.4352C20.105 19.6382 19.7882 19.7694 19.5547 20.0029C19.3211 20.2365 19.1899 20.5532 19.1899 20.8835V26.8982C19.1899 27.2285 19.3211 27.5452 19.5547 27.7787C19.7882 28.0123 20.105 28.1435 20.4352 28.1435H26.4624C26.7927 28.1435 27.1094 28.0123 27.3429 27.7787C27.5765 27.5452 27.7077 27.2285 27.7077 26.8982V20.8835C27.7077 20.5532 27.5765 20.2365 27.3429 20.0029C27.1094 19.7694 26.7927 19.6382 26.4624 19.6382ZM25.2171 25.6529H21.6805V22.1287H25.2171V25.6529ZM26.4624 32.9752H20.4352C20.105 32.9752 19.7882 33.1064 19.5547 33.3399C19.3211 33.5734 19.1899 33.8902 19.1899 34.2204V40.2352C19.1899 40.5654 19.3211 40.8822 19.5547 41.1157C19.7882 41.3492 20.105 41.4804 20.4352 41.4804H26.4624C26.7927 41.4804 27.1094 41.3492 27.3429 41.1157C27.5765 40.8822 27.7077 40.5654 27.7077 40.2352V34.2204C27.7077 33.8902 27.5765 33.5734 27.3429 33.3399C27.1094 33.1064 26.7927 32.9752 26.4624 32.9752ZM25.2171 38.9899H21.6805V35.4657H25.2171V38.9899ZM26.4624 46.3121H20.4352C20.105 46.3121 19.7882 46.4433 19.5547 46.6769C19.3211 46.9104 19.1899 47.2272 19.1899 47.5574V53.5472C19.1899 53.8775 19.3211 54.1943 19.5547 54.4278C19.7882 54.6613 20.105 54.7925 20.4352 54.7925H26.4624C26.7927 54.7925 27.1094 54.6613 27.3429 54.4278C27.5765 54.1943 27.7077 53.8775 27.7077 53.5472V47.5574C27.7077 47.2272 27.5765 46.9104 27.3429 46.6769C27.1094 46.4433 26.7927 46.3121 26.4624 46.3121ZM25.2171 52.3269H21.6805V48.8027H25.2171V52.3269ZM31.2318 22.6393C30.9016 22.6393 30.5848 22.7705 30.3513 23.004C30.1177 23.2376 29.9865 23.5543 29.9865 23.8846C29.9865 24.2149 30.1177 24.5316 30.3513 24.7651C30.5848 24.9987 30.9016 25.1299 31.2318 25.1299H45.565C45.8953 25.1299 46.212 24.9987 46.4456 24.7651C46.6791 24.5316 46.8103 24.2149 46.8103 23.8846C46.8103 23.5543 46.6791 23.2376 46.4456 23.004C46.212 22.7705 45.8953 22.6393 45.565 22.6393H31.2318ZM45.565 35.9763H31.2318C30.9016 35.9763 30.5848 36.1075 30.3513 36.341C30.1177 36.5746 29.9865 36.8913 29.9865 37.2216C29.9865 37.5518 30.1177 37.8686 30.3513 38.1021C30.5848 38.3357 30.9016 38.4669 31.2318 38.4669H45.565C45.8953 38.4669 46.212 38.3357 46.4456 38.1021C46.6791 37.8686 46.8103 37.5518 46.8103 37.2216C46.8103 36.8913 46.6791 36.5746 46.4456 36.341C46.212 36.1075 45.8953 35.9763 45.565 35.9763ZM45.565 49.3257H31.2318C30.9016 49.3257 30.5848 49.4569 30.3513 49.6905C30.1177 49.924 29.9865 50.2407 29.9865 50.571C29.9865 50.9013 30.1177 51.218 30.3513 51.4516C30.5848 51.6851 30.9016 51.8163 31.2318 51.8163H45.565C45.8953 51.8163 46.212 51.6851 46.4456 51.4516C46.6791 51.218 46.8103 50.9013 46.8103 50.571C46.8103 50.2407 46.6791 49.924 46.4456 49.6905C46.212 49.4569 45.8953 49.3257 45.565 49.3257Z" fill="black"/>
<path d="M36.9473 3.11328H29.0522C28.7219 3.11328 28.4052 3.24448 28.1717 3.47802C27.9381 3.71155 27.8069 4.02829 27.8069 4.35856V8.54272H25.5281C24.6736 8.54365 23.8473 8.84861 23.197 9.40302C22.5468 9.95744 22.115 10.7251 21.979 11.5688H14.0466C13.7163 11.5688 13.3995 11.7 13.166 11.9335C12.9325 12.167 12.8013 12.4838 12.8013 12.814V61.6416C12.8013 61.9719 12.9325 62.2886 13.166 62.5221C13.3995 62.7557 13.7163 62.8869 14.0466 62.8869H51.953C52.2832 62.8869 52.6 62.7557 52.8335 62.5221C53.0671 62.2886 53.1983 61.9719 53.1983 61.6416V12.814C53.1983 12.4838 53.0671 12.167 52.8335 11.9335C52.6 11.7 52.2832 11.5688 51.953 11.5688H44.033C43.8919 10.7252 43.457 9.95869 42.8052 9.40489C42.1534 8.8511 41.3267 8.5457 40.4715 8.54272H38.1926V4.35856C38.1926 4.02829 38.0614 3.71155 37.8279 3.47802C37.5943 3.24448 37.2776 3.11328 36.9473 3.11328ZM50.6454 60.3963H15.2918V14.0593H21.9167V15.3046C21.9167 15.6349 22.0479 15.9516 22.2815 16.1851C22.515 16.4187 22.8318 16.5499 23.162 16.5499H42.8375C43.1678 16.5499 43.4845 16.4187 43.718 16.1851C43.9516 15.9516 44.0828 15.6349 44.0828 15.3046V14.0593H50.7077L50.6454 60.3963ZM40.4715 11.0333C40.6197 11.0333 40.7665 11.0627 40.9032 11.1198C41.04 11.1769 41.1642 11.2605 41.2684 11.3659C41.3726 11.4713 41.4549 11.5964 41.5105 11.7338C41.5661 11.8712 41.5939 12.0183 41.5922 12.1665V14.1091H24.4073V12.1665C24.4057 12.0183 24.4334 11.8712 24.489 11.7338C24.5446 11.5964 24.6269 11.4713 24.7311 11.3659C24.8354 11.2605 24.9595 11.1769 25.0963 11.1198C25.2331 11.0627 25.3798 11.0333 25.5281 11.0333H29.0522C29.3825 11.0333 29.6992 10.9021 29.9328 10.6685C30.1663 10.435 30.2975 10.1183 30.2975 9.788V5.60385H35.702V9.788C35.702 10.1183 35.8332 10.435 36.0668 10.6685C36.3003 10.9021 36.617 11.0333 36.9473 11.0333H40.4715Z" fill="black"/>
</svg>
