<svg width="20" height="20" viewBox="0 0 20 20" fill="none" xmlns="http://www.w3.org/2000/svg">
<path d="M9.97461 8.44329C9.97461 8.62995 10.1246 8.77662 10.3079 8.77662C10.6879 8.77662 10.9946 9.08662 10.9946 9.46329C10.9946 9.64662 11.1446 9.79662 11.3279 9.79662C11.5113 9.79662 11.6613 9.64662 11.6613 9.46329C11.6613 8.71662 11.0546 8.10995 10.3079 8.10995C10.1246 8.10995 9.97461 8.25995 9.97461 8.44329ZM15.4013 9.79662C15.5879 9.79662 15.7346 9.64662 15.7346 9.46329C15.7346 6.46995 13.3013 4.03662 10.3079 4.03662C10.1246 4.03662 9.97461 4.18662 9.97461 4.36995C9.97461 4.55329 10.1246 4.70329 10.3079 4.70329C12.9346 4.70329 15.0679 6.83995 15.0679 9.46329C15.0679 9.64662 15.2179 9.79662 15.4013 9.79662Z" fill="white"/>
<path d="M13.0313 9.46333C13.0313 9.64667 13.1813 9.79667 13.3647 9.79667C13.548 9.79667 13.698 9.64667 13.698 9.46333C13.698 7.59333 12.178 6.07333 10.308 6.07333C10.1247 6.07333 9.97467 6.22333 9.97467 6.40667C9.97467 6.59333 10.1247 6.74 10.308 6.74C11.8113 6.74 13.0313 7.96333 13.0313 9.46333ZM10.308 2C10.1247 2 9.97467 2.15 9.97467 2.33333C9.97467 2.51667 10.1247 2.66667 10.308 2.66667C14.058 2.66667 17.108 5.71667 17.108 9.46333C17.108 9.64667 17.2547 9.79667 17.4413 9.79667C17.6247 9.79667 17.7747 9.64667 17.7747 9.46333C17.7747 5.34667 14.4247 2 10.308 2ZM13.5647 12.9767L13.128 13.2133C12.3913 13.6167 11.458 13.48 10.8613 12.8833L7.34134 9.36333C6.74467 8.76667 6.60801 7.83333 7.01134 7.09333L7.24801 6.66C7.51467 6.16667 7.61134 5.61333 7.53134 5.06C7.45577 4.50778 7.20039 3.99584 6.80467 3.60333C6.31801 3.11667 5.67134 2.85 4.98134 2.85C4.29134 2.85 3.64134 3.11667 3.15467 3.60333L2.98467 3.77667C2.08467 4.67667 1.98134 6.22667 2.69134 8.14667C3.36134 9.98 4.71134 11.9667 6.48467 13.74C9.18801 16.4433 12.198 18 14.358 18C15.2113 18 15.9347 17.7567 16.448 17.2433L16.6213 17.07C16.8614 16.8302 17.0518 16.5455 17.1816 16.232C17.3114 15.9186 17.3782 15.5826 17.378 15.2433C17.3733 14.5601 17.1018 13.9058 16.6213 13.42C15.818 12.6167 14.5613 12.4367 13.5647 12.9767Z" fill="white"/>
</svg>
