<svg width="64" height="64" viewBox="0 0 64 64" fill="none" xmlns="http://www.w3.org/2000/svg">
<path d="M61 2H3C2.73478 2 2.48043 2.10536 2.29289 2.29289C2.10536 2.48043 2 2.73478 2 3V45C2 45.2652 2.10536 45.5196 2.29289 45.7071C2.48043 45.8946 2.73478 46 3 46H18V61C18 61.2652 18.1054 61.5196 18.2929 61.7071C18.4804 61.8946 18.7348 62 19 62H33C33.2652 62 33.5196 61.8946 33.7071 61.7071C33.8946 61.5196 34 61.2652 34 61V50.391L38.053 46H61C61.2652 46 61.5196 45.8946 61.7071 45.7071C61.8946 45.5196 62 45.2652 62 45V3C62 2.73478 61.8946 2.48043 61.7071 2.29289C61.5196 2.10536 61.2652 2 61 2ZM32.266 49.321C32.095 49.5058 32 49.7483 32 50V60H20V45.849C20.0005 45.3588 20.1955 44.8888 20.5421 44.5421C20.8888 44.1955 21.3588 44.0005 21.849 44H32C32.1975 43.9997 32.3905 43.9413 32.555 43.832L41.3 38H42.713L32.266 49.321ZM22 38C22 37.2089 22.2346 36.4355 22.6741 35.7777C23.1136 35.1199 23.7384 34.6072 24.4693 34.3045C25.2002 34.0017 26.0044 33.9225 26.7804 34.0769C27.5563 34.2312 28.269 34.6122 28.8284 35.1716C29.3878 35.731 29.7688 36.4437 29.9231 37.2196C30.0775 37.9956 29.9983 38.7998 29.6955 39.5307C29.3928 40.2616 28.8801 40.8864 28.2223 41.3259C27.5645 41.7654 26.7911 42 26 42C24.9391 42 23.9217 41.5786 23.1716 40.8284C22.4214 40.0783 22 39.0609 22 38ZM60 44H39.9L45.735 37.679C45.8075 37.5993 45.8663 37.508 45.909 37.409C45.921 37.384 45.925 37.356 45.935 37.329C45.9659 37.2413 45.9844 37.1498 45.99 37.057C45.99 37.037 46.001 37.02 46.001 37V34.613C47.0873 34.336 48.1287 33.9061 49.094 33.336L50.779 35.021C50.9665 35.2085 51.2208 35.3138 51.486 35.3138C51.7512 35.3138 52.0055 35.2085 52.193 35.021L55.022 32.192C55.2095 32.0045 55.3148 31.7502 55.3148 31.485C55.3148 31.2198 55.2095 30.9655 55.022 30.778L53.337 29.093C53.9067 28.1277 54.3363 27.0862 54.613 26H57C57.2652 26 57.5196 25.8946 57.7071 25.7071C57.8946 25.5196 58 25.2652 58 25V21C58 20.7348 57.8946 20.4804 57.7071 20.2929C57.5196 20.1054 57.2652 20 57 20H54.613C54.336 18.9137 53.9061 17.8723 53.336 16.907L55.021 15.222C55.2085 15.0345 55.3138 14.7802 55.3138 14.515C55.3138 14.2498 55.2085 13.9955 55.021 13.808L52.192 10.979C52.0045 10.7915 51.7502 10.6862 51.485 10.6862C51.2198 10.6862 50.9655 10.7915 50.778 10.979L49.093 12.664C48.1277 12.0939 47.0863 11.664 46 11.387V9C46 8.73478 45.8946 8.48043 45.7071 8.29289C45.5196 8.10536 45.2652 8 45 8H41C40.7348 8 40.4804 8.10536 40.2929 8.29289C40.1054 8.48043 40 8.73478 40 9V11.387C38.9137 11.664 37.8723 12.0939 36.907 12.664L35.222 10.979C35.0345 10.7915 34.7802 10.6862 34.515 10.6862C34.2498 10.6862 33.9955 10.7915 33.808 10.979L30.979 13.808L32.394 15.222L34.515 13.1L36.062 14.645C36.2272 14.8103 36.4451 14.9125 36.6778 14.9339C36.9106 14.9553 37.1434 14.8944 37.336 14.762C38.4904 13.9655 39.8011 13.4238 41.181 13.173C41.4109 13.1307 41.6187 13.0092 41.7683 12.8296C41.9179 12.65 41.9999 12.4237 42 12.19V10H44V12.19C43.9999 12.4239 44.0818 12.6505 44.2314 12.8302C44.381 13.01 44.589 13.1317 44.819 13.174C46.1989 13.4248 47.5096 13.9665 48.664 14.763C48.8566 14.8954 49.0894 14.9563 49.3222 14.9349C49.5549 14.9135 49.7728 14.8113 49.938 14.646L51.485 13.1L52.9 14.515L51.355 16.062C51.1897 16.2272 51.0875 16.4451 51.0661 16.6778C51.0447 16.9106 51.1056 17.1434 51.238 17.336C52.0345 18.4904 52.5762 19.8011 52.827 21.181C52.8693 21.4109 52.9908 21.6187 53.1704 21.7683C53.35 21.9179 53.5763 21.9999 53.81 22H56V24H53.81C53.5761 23.9999 53.3495 24.0818 53.1698 24.2314C52.99 24.381 52.8683 24.589 52.826 24.819C52.5752 26.1989 52.0335 27.5096 51.237 28.664C51.1046 28.8566 51.0437 29.0894 51.0651 29.3222C51.0865 29.5549 51.1887 29.7728 51.354 29.938L52.9 31.485L51.485 32.9L49.938 31.355C49.7728 31.1897 49.5549 31.0875 49.3222 31.0661C49.0894 31.0447 48.8566 31.1056 48.664 31.238C47.5096 32.0345 46.1989 32.5762 44.819 32.827C44.5891 32.8693 44.3813 32.9908 44.2317 33.1704C44.0821 33.35 44.0001 33.5763 44 33.81V36H42V33.81C42.0001 33.5761 41.9182 33.3495 41.7686 33.1698C41.619 32.99 41.411 32.8683 41.181 32.826C39.8011 32.5752 38.4904 32.0335 37.336 31.237C37.1434 31.1046 36.9106 31.0437 36.6778 31.0651C36.4451 31.0865 36.2272 31.1887 36.062 31.354L34.515 32.9L32.394 30.779L30.979 32.193L33.808 35.022C33.9955 35.2095 34.2498 35.3148 34.515 35.3148C34.7802 35.3148 35.0345 35.2095 35.222 35.022L36.907 33.337C37.8723 33.9067 38.9138 34.3363 40 34.613V36.465L31.7 42H30.46C31.2369 41.1366 31.7465 40.0663 31.927 38.919C32.1075 37.7717 31.9511 36.5966 31.4768 35.5364C31.0025 34.4762 30.2307 33.5765 29.255 32.9464C28.2793 32.3163 27.1417 31.9829 25.9803 31.9867C24.8189 31.9904 23.6835 32.3312 22.7119 32.9677C21.7404 33.6042 20.9745 34.5089 20.5071 35.5722C20.0397 36.6354 19.891 37.8115 20.079 38.9576C20.2669 40.1038 20.7835 41.1707 21.566 42.029C20.9303 42.0757 20.3164 42.2805 19.7799 42.6247C19.2434 42.9689 18.8014 43.4416 18.494 44H4V4H60V44Z" fill="black"/>
<path d="M14.5389 15.9529L24.0469 25.4609C24.1527 26.1617 24.504 26.8022 25.0382 27.2681C25.5724 27.7339 26.2547 27.9949 26.9634 28.0043C27.6721 28.0138 28.3612 27.7713 28.9076 27.3199C29.4541 26.8685 29.8224 26.2377 29.9469 25.5399L36.4909 20.6329C36.7364 21.0138 37.0655 21.3338 37.4531 21.5686C37.8407 21.8033 38.2767 21.9467 38.728 21.9877C39.1793 22.0288 39.6341 21.9665 40.0577 21.8055C40.4813 21.6446 40.8627 21.3893 41.1729 21.0589L43.4359 24.4529C42.8436 24.8202 42.3981 25.3828 42.1766 26.0436C41.955 26.7044 41.9712 27.4218 42.2224 28.0719C42.4737 28.722 42.9441 29.2639 43.5524 29.604C44.1608 29.9441 44.8688 30.061 45.5542 29.9345C46.2395 29.808 46.8592 29.446 47.306 28.9112C47.7529 28.3763 47.9988 27.7022 48.0014 27.0052C48.004 26.3083 47.763 25.6323 47.3202 25.0942C46.8773 24.556 46.2604 24.1895 45.5759 24.0579L41.9659 18.6429C41.8832 17.9309 41.5472 17.2724 41.0193 16.7874C40.4915 16.3025 39.8069 16.0235 39.0904 16.0013C38.374 15.9791 37.6734 16.2152 37.1165 16.6666C36.5597 17.1179 36.1836 17.7544 36.0569 18.4599L29.5129 23.3669C29.2524 22.9613 28.8973 22.6249 28.4782 22.3866C28.059 22.1484 27.5883 22.0154 27.1065 21.9991C26.6246 21.9827 26.146 22.0836 25.7117 22.2929C25.2774 22.5022 24.9003 22.8138 24.6129 23.2009L16.7999 15.3849C17.3532 14.9685 17.7455 14.3736 17.9101 13.7009C18.0747 13.0283 18.0016 12.3195 17.7031 11.6946C17.4046 11.0698 16.8991 10.5675 16.2724 10.2728C15.6457 9.97823 14.9364 9.90949 14.2649 10.0783C13.5933 10.2471 13.0007 10.643 12.5878 11.1989C12.1749 11.7548 11.967 12.4364 11.9994 13.1281C12.0318 13.8198 12.3025 14.479 12.7655 14.9939C13.2286 15.5088 13.8555 15.8476 14.5399 15.9529H14.5389ZM44.9999 25.9999C45.1977 25.9999 45.3911 26.0586 45.5555 26.1684C45.72 26.2783 45.8481 26.4345 45.9238 26.6172C45.9995 26.8 46.0193 27.001 45.9807 27.195C45.9421 27.389 45.8469 27.5672 45.707 27.707C45.5672 27.8469 45.389 27.9421 45.195 27.9807C45.001 28.0193 44.8 27.9995 44.6173 27.9238C44.4345 27.8481 44.2783 27.7199 44.1685 27.5555C44.0586 27.391 43.9999 27.1977 43.9999 26.9999C43.9999 26.7347 44.1053 26.4803 44.2928 26.2928C44.4804 26.1053 44.7347 25.9999 44.9999 25.9999ZM38.9999 17.9999C39.1977 17.9999 39.3911 18.0586 39.5555 18.1684C39.72 18.2783 39.8481 18.4345 39.9238 18.6172C39.9995 18.8 40.0193 19.001 39.9807 19.195C39.9421 19.389 39.8469 19.5672 39.707 19.707C39.5672 19.8469 39.389 19.9421 39.195 19.9807C39.001 20.0193 38.8 19.9995 38.6173 19.9238C38.4345 19.8481 38.2783 19.7199 38.1685 19.5555C38.0586 19.391 37.9999 19.1977 37.9999 18.9999C37.9999 18.7347 38.1053 18.4803 38.2928 18.2928C38.4804 18.1053 38.7347 17.9999 38.9999 17.9999ZM26.9999 23.9999C27.1977 23.9999 27.3911 24.0586 27.5555 24.1684C27.72 24.2783 27.8481 24.4345 27.9238 24.6172C27.9995 24.8 28.0193 25.001 27.9807 25.195C27.9421 25.389 27.8469 25.5672 27.707 25.707C27.5672 25.8469 27.389 25.9421 27.195 25.9807C27.001 26.0193 26.8 25.9995 26.6173 25.9238C26.4345 25.8481 26.2783 25.7199 26.1685 25.5555C26.0586 25.391 25.9999 25.1977 25.9999 24.9999C25.9999 24.7347 26.1053 24.4803 26.2928 24.2928C26.4804 24.1053 26.7347 23.9999 26.9999 23.9999ZM14.9999 11.9999C15.1977 11.9999 15.3911 12.0586 15.5555 12.1684C15.72 12.2783 15.8481 12.4345 15.9238 12.6172C15.9995 12.8 16.0193 13.001 15.9807 13.195C15.9421 13.389 15.8469 13.5672 15.707 13.707C15.5672 13.8469 15.389 13.9421 15.195 13.9807C15.001 14.0193 14.8 13.9995 14.6173 13.9238C14.4345 13.8481 14.2783 13.7199 14.1685 13.5555C14.0586 13.391 13.9999 13.1977 13.9999 12.9999C13.9999 12.7347 14.1053 12.4803 14.2928 12.2928C14.4804 12.1053 14.7347 11.9999 14.9999 11.9999Z" fill="black"/>
<path d="M24.7068 17.707L26.1208 16.293L27.5348 17.707L28.9488 16.293L27.5348 14.879L28.9488 13.465L27.5348 12.051L26.1208 13.465L24.7068 12.051L23.2928 13.465L24.7068 14.879L23.2928 16.293L24.7068 17.707ZM37.5348 24.293L36.1208 25.707L34.7068 24.293L33.2928 25.707L34.7068 27.121L33.2928 28.535L34.7068 29.949L36.1208 28.535L37.5348 29.949L38.9488 28.535L37.5348 27.121L38.9488 25.707L37.5348 24.293ZM12.4648 27.707L13.8788 26.293L15.2928 27.707L16.7068 26.293L15.2928 24.879L16.7068 23.465L15.2928 22.051L13.8788 23.465L12.4648 22.051L11.0508 23.465L12.4648 24.879L11.0508 26.293L12.4648 27.707Z" fill="black"/>
</svg>
