<svg width="23" height="44" viewBox="0 0 23 44" fill="none" xmlns="http://www.w3.org/2000/svg">
<path d="M18.4821 0.5H4.51786C2.02893 0.5 0 2.57441 0 5.11914V38.8809C0 41.4256 2.02893 43.5 4.51786 43.5H18.4821C20.9711 43.5 23 41.4256 23 38.8809V5.11914C23 2.57441 20.9793 0.5 18.4821 0.5ZM9.79964 2.39805H13.2661C13.6686 2.39805 13.9889 2.77598 13.9889 3.23789C13.9889 3.6998 13.6686 4.07773 13.2661 4.07773H9.79964C9.39714 4.07773 9.07679 3.6998 9.07679 3.23789C9.07679 2.77598 9.39714 2.39805 9.79964 2.39805ZM6.52214 2.27207C7.03964 2.27207 7.46679 2.70039 7.46679 3.23789C7.46679 3.77539 7.03964 4.19531 6.52214 4.19531C6.00464 4.19531 5.5775 3.76699 5.5775 3.22949C5.5775 2.69199 5.99643 2.27207 6.52214 2.27207ZM11.5329 40.5689C10.695 40.5689 10.0214 39.8803 10.0214 39.0236C10.0214 38.167 10.695 37.4783 11.5329 37.4783C12.3707 37.4783 13.0443 38.167 13.0443 39.0236C13.0443 39.8803 12.3707 40.5689 11.5329 40.5689ZM20.3714 36.5713H2.63679V6.09336H20.3714V36.5713Z" fill="#0369A1"/>
</svg>
