<svg width="76" height="56" viewBox="0 0 76 56" fill="none" xmlns="http://www.w3.org/2000/svg">
<path d="M73.4797 47.5257L72.3859 40.7776C72.3484 37.4734 70.1968 34.658 67.1111 33.8885L64.911 33.0282C64.8967 33.0214 64.8818 33.0158 64.8666 33.0115L61.9197 31.8705L61.7365 31.7993C61.3444 31.648 61.0057 31.383 60.7633 31.038C60.5209 30.6929 60.3857 30.2833 60.3748 29.8609V29.7855L60.3845 29.7785C61.5212 28.8013 62.4358 27.5897 63.0663 26.2257C63.9158 25.9953 64.6279 25.4003 65.1151 24.4996C65.483 23.7933 65.7076 23.0205 65.7758 22.226C65.7959 21.8822 65.7348 21.5384 65.5975 21.2229C65.4602 20.9074 65.2507 20.629 64.986 20.4105C64.7403 14.573 60.6829 9.91556 55.733 9.91556C53.4691 9.91556 51.3606 10.9127 49.7282 12.5802C48.2554 6.4759 43.5526 2 37.9933 2C32.5284 2 27.759 6.43121 26.2488 12.6039C24.6247 10.9281 22.5093 9.91556 20.1995 9.91556C15.5952 9.91556 11.642 14.0409 11.0048 19.5126C10.9632 19.8743 10.9354 20.2402 10.9229 20.606C10.5731 20.9943 10.1748 21.5836 10.2289 22.2232C10.3594 23.9521 11.2311 25.7243 12.8968 26.1698C13.5534 27.6018 14.5295 28.8621 15.7493 29.8525L15.7687 29.8679C15.7626 30.2769 15.6292 30.6737 15.3871 31.0024C15.1451 31.3311 14.8067 31.5751 14.4195 31.7001L14.3751 31.7155L11.4393 32.6805L11.3477 32.7098L8.77696 33.5547C5.75372 34.3703 3.64244 37.1815 3.61052 40.4299L2.51254 47.534C2.48927 47.6834 2.49846 47.8361 2.53947 47.9815C2.58048 48.127 2.65234 48.2617 2.7501 48.3765C2.84786 48.4914 2.9692 48.5835 3.10576 48.6466C3.24232 48.7097 3.39084 48.7422 3.54111 48.742H14.9567L14.3335 52.792C14.3107 52.9413 14.3202 53.0938 14.3614 53.239C14.4026 53.3842 14.4745 53.5188 14.5721 53.6335C14.6698 53.7482 14.791 53.8404 14.9273 53.9036C15.0636 53.9669 15.2119 53.9997 15.362 54H60.7079C60.8588 54 61.0079 53.9669 61.1449 53.9032C61.2818 53.8394 61.4034 53.7465 61.5011 53.6308C61.5988 53.5151 61.6703 53.3794 61.7107 53.2331C61.7511 53.0868 61.7594 52.9334 61.7351 52.7836L61.0771 48.742H72.4594C72.6103 48.7418 72.7592 48.7086 72.8961 48.6447C73.0329 48.5809 73.1543 48.488 73.252 48.3723C73.3496 48.2567 73.4212 48.1211 73.4617 47.9749C73.5022 47.8287 73.5107 47.6755 73.4866 47.5257H73.4797ZM60.8315 35.197L61.8378 34.0896L62.7442 34.4401L58.9298 38.754C58.5865 38.1673 58.1796 37.6207 57.7166 37.1243C58.9134 36.7871 59.9924 36.1195 60.8315 35.197ZM55.8344 35.2822C55.6148 35.2784 55.3958 35.2584 55.1792 35.2222C54.642 34.9541 54.0793 34.7413 53.4996 34.5868C53.0992 34.3354 52.7397 34.0236 52.4336 33.6623L51.8783 33.0031C52.5088 32.4937 52.9722 31.8051 53.2081 31.027C54.0186 31.3863 54.8932 31.5763 55.7788 31.5856C56.7051 31.5813 57.6203 31.383 58.4662 31.0032C58.71 31.8471 59.2099 32.5931 59.8959 33.1372L59.3018 33.7907C58.8627 34.2737 58.326 34.6567 57.7277 34.9139C57.1294 35.1712 56.4834 35.2967 55.833 35.2822H55.8344ZM55.7316 12.0173C58.7937 12.0173 61.4144 14.4208 62.4458 17.7948C60.6871 16.0966 58.8618 15.052 55.8691 15.2517C54.0812 15.14 52.4905 15.95 51.5896 16.7502C51.4125 16.9071 51.2482 17.0781 51.0982 17.2613C50.9045 16.7927 50.5937 16.3823 50.196 16.0701C50.1876 15.8313 50.1751 15.5953 50.1585 15.3593C51.4994 13.3133 53.5163 12.0173 55.7303 12.0173H55.7316ZM50.4097 21.2624C50.4888 21.1158 50.5596 20.9691 50.6249 20.8239L51.4744 20.451C51.7666 20.3219 52.0171 20.1132 52.1977 19.8484C52.3782 19.5836 52.4815 19.2733 52.496 18.9525C52.5432 18.5196 54.0146 17.2083 55.7872 17.3451C55.8394 17.3486 55.8918 17.3486 55.944 17.3451C59.156 17.1091 60.5316 18.6635 63.0232 21.4859L63.0857 21.5557C63.1995 21.7261 63.3601 21.8595 63.5479 21.9397C63.6049 21.9766 63.6544 22.0239 63.6937 22.0794C63.644 22.5734 63.5027 23.0538 63.2773 23.4955C62.9302 24.1351 62.5457 24.2231 62.2876 24.2342C62.0877 24.2424 61.8945 24.3085 61.731 24.4244C61.5675 24.5403 61.4407 24.7012 61.3659 24.8878C60.864 26.1533 60.0665 27.2785 59.0408 28.1683C58.9673 28.2311 58.8895 28.2926 58.8104 28.3512C58.7334 28.393 58.6624 28.4451 58.5994 28.5062C57.7767 29.1159 56.7866 29.4545 55.765 29.4754C54.8599 29.4754 53.9021 29.1473 52.9888 28.5244C52.9479 28.4899 52.9037 28.4595 52.8569 28.4336C52.757 28.3624 52.6584 28.294 52.564 28.213C51.4718 27.3217 50.6281 26.1606 50.1155 24.8431C50.0415 24.654 49.9145 24.4905 49.7499 24.3727C49.5852 24.255 49.3901 24.1879 49.1882 24.1798C48.6732 24.1588 48.3554 23.7678 48.1472 23.3279C49.0786 23.0011 49.8462 22.3 50.4083 21.2624H50.4097ZM29.0624 35.4987L28.646 34.9973L28.2046 34.4569L30.0091 33.862L30.1979 33.7991L31.622 35.475C32.8608 36.9398 34.5457 37.9521 36.4151 38.3546C36.9627 38.4734 37.5206 38.5379 38.0808 38.5473H38.2362C38.633 38.5502 39.0295 38.5259 39.4231 38.4747C41.4305 38.196 43.2781 37.2204 44.6464 35.7166L44.7366 35.6174C44.7783 35.6034 44.8199 35.5923 44.8616 35.5811L44.9212 35.5629L46.8743 34.9205L47.7599 34.6301L48.5164 34.3815L48.1596 34.7851L47.4351 35.6062L40.8431 43.0637L38.2918 45.9504L37.9392 46.3498L37.7115 46.0705L35.0825 42.8584L29.0624 35.4987ZM32.3438 28.6668C32.3481 29.3134 32.1477 29.9445 31.7716 30.4688C31.3955 30.993 30.8632 31.3832 30.252 31.5828L30.202 31.5996L27.7548 32.404L26.3917 31.8761L26.2085 31.8049C25.8166 31.6533 25.4782 31.3883 25.2361 31.0433C24.9939 30.6982 24.859 30.2887 24.8482 29.8665V29.7924L24.8579 29.7841C25.9938 28.8064 26.9078 27.5949 27.5383 26.2313C28.2095 26.0403 28.7991 25.6313 29.2151 25.068C30.0041 26.3449 31.0023 27.4782 32.1675 28.4197C32.2231 28.4643 32.28 28.509 32.3383 28.5593L32.3438 28.6668ZM34.3094 29.7757C35.4756 30.3553 36.7565 30.6631 38.0572 30.6765C39.4143 30.6672 40.7508 30.3417 41.9619 29.7254C42.24 31.1048 43.0468 32.3184 44.2078 33.1036L43.5679 33.8019L43.1209 34.2949C42.9061 34.532 42.6741 34.7528 42.4269 34.9554L42.3269 35.0364C42.22 35.1216 42.1104 35.2026 41.9993 35.278C41.9438 35.3171 41.8883 35.3549 41.8314 35.3912C41.5923 35.5479 41.3428 35.6878 41.0846 35.8101L40.9555 35.8702L40.825 35.9274C40.7792 35.9484 40.732 35.9679 40.6862 35.9861C39.4059 36.4973 37.9986 36.5919 36.6621 36.2567C35.3256 35.9216 34.127 35.1735 33.235 34.1175L32.205 32.9235C33.2798 32.1836 34.0311 31.0568 34.3038 29.7757H34.3094ZM47.8223 32.4068L46.0178 31.7085C45.4159 31.4769 44.8959 31.0707 44.5237 30.5414C44.1515 30.012 43.944 29.3834 43.9274 28.7353L43.9191 28.456L44.0717 28.3289C45.1489 27.4107 46.0747 26.3266 46.8146 25.1169C47.2239 25.6355 47.787 26.0093 48.422 26.1838C49.0795 27.6152 50.0555 28.8753 51.2745 29.8665L51.2953 29.8832C51.2879 30.2917 51.1539 30.6877 50.912 31.016C50.6702 31.3442 50.3325 31.5882 49.9461 31.7141L49.9017 31.7294L47.8223 32.4068ZM27.9367 14.9585V14.9166C28.6724 8.74806 32.9851 4.10179 37.985 4.10179C42.7142 4.10179 46.6966 8.13638 47.8071 13.5731C45.1531 10.7661 42.6406 8.94357 38.171 9.24383C35.846 9.08742 33.7763 10.139 32.6062 11.1836C31.7247 11.9699 31.207 12.8595 31.1418 13.6974L28.0213 15.066L27.9131 15.1135C27.9242 15.0674 27.9297 15.0129 27.9367 14.9585ZM26.9955 18.0853C27.0205 18.0476 27.0511 18.0085 27.083 17.968C27.1691 17.8646 27.269 17.7529 27.3703 17.6538L28.8417 17.0072L32.0565 15.5967C32.3899 15.4491 32.6757 15.2107 32.8818 14.9084C33.0878 14.6062 33.2058 14.252 33.2225 13.8859C33.2225 13.7169 33.3988 13.291 33.9929 12.7603C34.8174 12.0243 36.3845 11.2115 38.0947 11.347C38.1469 11.3505 38.1993 11.3505 38.2515 11.347C42.4421 11.0384 44.3924 12.8483 47.3837 16.2014L48.1777 17.0979L48.2846 17.218C48.4043 17.4044 48.5798 17.5477 48.7857 17.6272C48.8658 17.6819 48.9406 17.7441 49.0092 17.813C49.0605 17.8564 49.1023 17.9102 49.132 17.9707C49.1616 18.0313 49.1784 18.0974 49.1813 18.1649C49.1484 18.5362 49.0796 18.9034 48.9758 19.2612C48.8783 19.6079 48.7443 19.9431 48.5761 20.2611L48.5525 20.303C47.9306 21.4202 47.1727 21.4509 46.9201 21.4621C46.7969 21.4676 46.6756 21.495 46.562 21.5431C46.4348 21.5959 46.3195 21.6738 46.2227 21.7721C46.1259 21.8705 46.0496 21.9873 45.9984 22.1157C45.9336 22.2777 45.8642 22.4383 45.7902 22.5975C45.0864 24.1807 44.0436 25.588 42.7364 26.7187C42.624 26.8122 42.5074 26.9058 42.388 26.998C42.2906 27.0472 42.2019 27.1123 42.1257 27.1907C40.8417 28.1026 39.4342 28.5872 38.0475 28.5872C36.7399 28.5872 35.3629 28.1166 34.0567 27.2228C34.0023 27.1759 33.9432 27.1347 33.8804 27.0999H33.8721C33.7333 27.0008 33.5945 26.8974 33.4654 26.7927C32.0581 25.647 30.9426 24.1801 30.2117 22.5137C30.1451 22.3629 30.0826 22.2107 30.023 22.0584C29.9658 21.9108 29.8758 21.7782 29.7598 21.671C29.6438 21.5637 29.505 21.4846 29.3539 21.4398C29.2706 21.4135 29.1843 21.3985 29.0971 21.3951C28.1935 21.3574 27.6549 20.6968 27.3356 19.979C27.1044 19.4302 26.9556 18.8499 26.8942 18.2571C26.9226 18.1968 26.9565 18.1393 26.9955 18.0853ZM20.1939 12.0215C22.4607 12.0215 24.4859 13.3371 25.8018 15.39C25.7768 15.6958 25.7615 16.0045 25.7532 16.3117C25.6685 16.4011 25.5783 16.5002 25.4909 16.6092C24.1125 15.6316 22.5398 15.1079 20.3314 15.2559C18.5435 15.1442 16.9528 15.9542 16.0533 16.7544C15.4078 17.3298 15.0067 17.9847 14.904 18.6244L13.1189 19.4036C13.7519 15.1693 16.7459 12.0173 20.1967 12.0173L20.1939 12.0215ZM14.5875 24.8501C14.5136 24.6609 14.3865 24.4975 14.2219 24.3797C14.0573 24.2619 13.8621 24.1949 13.6602 24.1868C12.6511 24.1449 12.3749 22.6785 12.3124 22.2121C12.3805 22.1167 12.4562 22.027 12.5387 21.9439L15.9395 20.451C16.2317 20.3219 16.4822 20.1132 16.6627 19.8484C16.8433 19.5836 16.9466 19.2733 16.9611 18.9525C17.0083 18.5196 18.481 17.2083 20.2522 17.3451C20.3045 17.3486 20.3569 17.3486 20.4091 17.3451C22.3413 17.2055 23.6017 17.7082 24.851 18.75C25.0689 20.3463 25.8976 22.564 27.8631 23.2609C27.827 23.3433 27.7895 23.4243 27.7465 23.5025C27.3995 24.1421 27.0164 24.2301 26.7568 24.2412C26.557 24.2496 26.3638 24.3157 26.2004 24.4316C26.0369 24.5475 25.9101 24.7083 25.8351 24.8948C25.3332 26.1603 24.5357 27.2855 23.5101 28.1753C23.4365 28.2367 23.3615 28.2968 23.2838 28.3554C23.2047 28.3982 23.1318 28.4517 23.0673 28.5146C22.245 29.1241 21.2553 29.4622 20.2342 29.4824C19.3306 29.4824 18.3714 29.1542 17.458 28.5314C17.4144 28.4952 17.368 28.4625 17.3192 28.4336C17.2221 28.3666 17.1263 28.294 17.0333 28.22C15.9421 27.3284 15.0994 26.1673 14.5875 24.8501ZM24.3554 33.1302L23.8502 33.6888L22.5703 34.1077C21.654 34.3505 20.7827 34.7405 19.9899 35.2627C18.7874 35.1593 17.674 34.5827 16.8917 33.6581L16.3365 32.9989C16.9676 32.4901 17.4311 31.8013 17.6662 31.0228C18.4767 31.3822 19.3513 31.5723 20.237 31.5814C21.1632 31.5771 22.0784 31.3788 22.9243 30.9991C23.1694 31.8419 23.6697 32.5868 24.3554 33.1302ZM14.3807 33.9206L15.3093 35.0183C16.0525 35.8967 17.0088 36.5669 18.0854 36.9637C17.673 37.4516 17.3107 37.9803 17.0041 38.5417L13.4659 34.2223L14.3807 33.9206ZM16.1255 40.7706C15.9323 41.5335 15.8317 42.317 15.8256 43.1042L15.2801 46.6472H11.2228V41.6281C11.2228 41.3503 11.1131 41.0839 10.9178 40.8875C10.7226 40.691 10.4578 40.5807 10.1817 40.5807C9.9056 40.5807 9.6408 40.691 9.44556 40.8875C9.25032 41.0839 9.14064 41.3503 9.14064 41.6281V46.6472H4.75569L5.67599 40.6715C5.68434 40.6183 5.68851 40.5646 5.68848 40.5109C5.68848 38.1717 7.18483 36.1425 9.32664 35.5797L9.38633 35.5615L11.3394 34.9191L16.1255 40.7692V40.7706ZM52.7278 51.8982V45.1851C52.7278 44.9073 52.6181 44.6409 52.4229 44.4444C52.2277 44.248 51.9629 44.1377 51.6868 44.1377C51.4107 44.1377 51.1459 44.248 50.9506 44.4444C50.7554 44.6409 50.6457 44.9073 50.6457 45.1851V51.8982H25.4242V44.7047C25.4242 44.4269 25.3146 44.1605 25.1193 43.964C24.9241 43.7676 24.6593 43.6573 24.3832 43.6573C24.1071 43.6573 23.8423 43.7676 23.647 43.964C23.4518 44.1605 23.3421 44.4269 23.3421 44.7047V51.8982H16.578L17.0638 48.742L17.3872 46.6472L17.8953 43.3472C17.9031 43.2945 17.9068 43.2413 17.9064 43.188V42.952C17.9345 42.0505 18.1225 41.1614 18.4616 40.3265C18.9252 39.1673 19.6799 38.1491 20.652 37.3715C21.3833 36.7881 22.227 36.3639 23.1297 36.1257C23.1506 36.1257 23.17 36.1146 23.1908 36.109L24.9953 35.5169L26.0891 35.1565L26.3279 35.4484L27.6618 37.0782L35.4851 46.6417L37.1022 48.6191C37.1116 48.6314 37.1218 48.6431 37.1327 48.6541C37.148 48.6708 37.1633 48.6876 37.1799 48.7029C37.1904 48.7147 37.2021 48.7255 37.2146 48.7351C37.2396 48.7574 37.2646 48.7784 37.291 48.7979L37.3673 48.8496L37.3784 48.8566L37.4548 48.8971C37.4941 48.9166 37.535 48.9329 37.5769 48.9459C37.5982 48.9544 37.62 48.9614 37.6421 48.9669L37.7004 48.9795H37.7324L37.8073 48.9892H37.9933C38.0106 48.9883 38.0278 48.9859 38.0447 48.9822L38.0919 48.9753L38.1349 48.9655C38.1608 48.9599 38.1872 48.9529 38.214 48.9445C38.2404 48.9362 38.2654 48.9264 38.2918 48.9152H38.3043C38.3191 48.9094 38.3335 48.9024 38.3473 48.8943C38.3723 48.8836 38.3964 48.871 38.4195 48.8566C38.442 48.8439 38.4638 48.8299 38.4847 48.8147L38.5208 48.7881C38.5328 48.7815 38.5439 48.7735 38.5541 48.7644L38.5888 48.7337C38.6138 48.7099 38.6388 48.6848 38.6624 48.6583C38.663 48.656 38.663 48.6536 38.6624 48.6513L38.6901 48.6191L40.4364 46.6444L44.652 41.8753L45.7944 40.5835L48.751 37.2318L50.1515 35.6481L50.2126 35.5783L52.6432 36.5196L52.6626 36.5265C53.2277 36.842 53.8356 37.0725 54.4671 37.2108C55.7713 37.9368 56.8118 39.0619 57.4376 40.4229C57.9042 41.4385 58.1462 42.544 58.1469 43.6628C58.1473 43.719 58.152 43.775 58.1608 43.8304L58.6161 46.6417L58.9562 48.7365L59.467 51.8926L52.7278 51.8982ZM66.853 46.6472V41.9828C66.853 41.705 66.7433 41.4386 66.548 41.2422C66.3528 41.0458 66.088 40.9354 65.8119 40.9354C65.5358 40.9354 65.271 41.0458 65.0758 41.2422C64.8805 41.4386 64.7708 41.705 64.7708 41.9828V46.6472H60.7454L60.2485 43.5749C60.2412 42.6588 60.1067 41.7483 59.8487 40.8698L64.825 35.2445L66.4351 35.8674C66.4805 35.8842 66.5269 35.8982 66.574 35.9093C68.7741 36.4344 70.3121 38.4719 70.3121 40.8656C70.3121 40.9217 70.3163 40.9777 70.3246 41.0332L71.2351 46.6472H66.853Z" fill="black"/>
</svg>
