<svg width="80" height="79" viewBox="0 0 80 79" fill="none" xmlns="http://www.w3.org/2000/svg">
<path d="M69.9254 23.5735C65.8463 19.5047 60.412 17.0801 54.6593 16.7625C48.9067 16.4448 43.2384 18.2563 38.7362 21.8513H22.1462C21.8319 21.8513 21.5305 21.9762 21.3083 22.1984C21.086 22.4206 20.9612 22.722 20.9612 23.0363C20.9612 23.3506 21.086 23.652 21.3083 23.8742C21.5305 24.0965 21.8319 24.2213 22.1462 24.2213H36.2082C34.8954 25.6324 33.7623 27.2007 32.8349 28.8902H14.1988C13.8845 28.8902 13.5831 29.015 13.3609 29.2373C13.1386 29.4595 13.0138 29.7609 13.0138 30.0752C13.0138 30.3895 13.1386 30.6909 13.3609 30.9131C13.5831 31.1354 13.8845 31.2602 14.1988 31.2602H31.6973C30.2628 34.7817 29.7017 38.598 30.062 42.3834H22.162C21.8477 42.3834 21.5463 42.5082 21.3241 42.7305C21.1018 42.9527 20.977 43.2541 20.977 43.5684C20.977 43.8827 21.1018 44.1841 21.3241 44.4063C21.5463 44.6286 21.8477 44.7534 22.162 44.7534H30.4175C30.7221 46.2833 31.1799 47.7787 31.7842 49.2169H14.1988C13.8845 49.2169 13.5831 49.3417 13.3609 49.564C13.1386 49.7862 13.0138 50.0876 13.0138 50.4019C13.0138 50.7162 13.1386 51.0176 13.3609 51.2398C13.5831 51.4621 13.8845 51.5869 14.1988 51.5869H32.9455C33.8437 53.2144 34.9367 54.7265 36.2003 56.0899H11.3232C11.0089 56.0899 10.7075 56.2147 10.4853 56.437C10.263 56.6592 10.1382 56.9606 10.1382 57.2749C10.1382 57.5892 10.263 57.8906 10.4853 58.1128C10.7075 58.3351 11.0089 58.4599 11.3232 58.4599H37.9541C38.1616 58.4573 38.3653 58.403 38.5466 58.3019C43.1961 62.1576 49.1554 64.0681 55.18 63.6345C61.2047 63.2009 66.829 60.4567 70.8785 55.975C74.9279 51.4932 77.0896 45.6204 76.912 39.5828C76.7344 33.5451 74.2313 27.8095 69.9254 23.5735ZM68.2506 55.0234C65.3066 57.965 61.5566 59.9677 57.4746 60.7783C53.3927 61.589 49.162 61.1712 45.3174 59.5778C41.4728 57.9844 38.187 55.2869 35.8752 51.8264C33.5634 48.3658 32.3296 44.2975 32.3296 40.1359C32.3296 35.9742 33.5634 31.9059 35.8752 28.4453C38.187 24.9848 41.4728 22.2873 45.3174 20.6939C49.162 19.1005 53.3927 18.6827 57.4746 19.4934C61.5566 20.304 65.3066 22.3067 68.2506 25.2483C72.1915 29.2007 74.4044 34.5544 74.4044 40.1359C74.4044 45.7173 72.1915 51.071 68.2506 55.0234Z" fill="black"/>
<path d="M53.3666 22.5071C49.8807 22.5071 46.4731 23.5408 43.5747 25.4774C40.6763 27.4141 38.4173 30.1667 37.0833 33.3872C35.7493 36.6078 35.4003 40.1515 36.0804 43.5704C36.7604 46.9893 38.439 50.1298 40.9039 52.5947C43.3688 55.0596 46.5093 56.7382 49.9282 57.4182C53.3471 58.0983 56.8908 57.7493 60.1114 56.4153C63.3319 55.0813 66.0845 52.8223 68.0212 49.9239C69.9578 47.0255 70.9915 43.6179 70.9915 40.132C70.9852 35.4595 69.1263 30.9802 65.8224 27.6762C62.5184 24.3723 58.0391 22.5134 53.3666 22.5071ZM54.5516 55.3V53.9175C54.5516 53.6032 54.4268 53.3018 54.2045 53.0796C53.9823 52.8573 53.6809 52.7325 53.3666 52.7325C53.0523 52.7325 52.7509 52.8573 52.5287 53.0796C52.3065 53.3018 52.1816 53.6032 52.1816 53.9175V55.3C48.5663 55.0134 45.1712 53.4487 42.6046 50.8865C40.038 48.3242 38.4677 44.9318 38.1749 41.317H39.5811C39.8954 41.317 40.1968 41.1921 40.419 40.9699C40.6413 40.7477 40.7661 40.4463 40.7661 40.132C40.7661 39.8177 40.6413 39.5163 40.419 39.2941C40.1968 39.0718 39.8954 38.947 39.5811 38.947H38.1749C38.4607 35.3274 40.0282 31.9284 42.5956 29.361C45.163 26.7936 48.562 25.2261 52.1816 24.9403V26.3465C52.1816 26.6608 52.3065 26.9622 52.5287 27.1844C52.7509 27.4066 53.0523 27.5315 53.3666 27.5315C53.6809 27.5315 53.9823 27.4066 54.2045 27.1844C54.4268 26.9622 54.5516 26.6608 54.5516 26.3465V24.9403C58.1712 25.2261 61.5702 26.7936 64.1376 29.361C66.705 31.9284 68.2725 35.3274 68.5583 38.947H67.1521C66.8378 38.947 66.5364 39.0718 66.3142 39.2941C66.092 39.5163 65.9671 39.8177 65.9671 40.132C65.9671 40.4463 66.092 40.7477 66.3142 40.9699C66.5364 41.1921 66.8378 41.317 67.1521 41.317H68.5583C68.2656 44.9318 66.6952 48.3242 64.1286 50.8865C61.562 53.4487 58.1669 55.0134 54.5516 55.3Z" fill="black"/>
<path d="M59.8764 42.897L54.9073 39.737L60.066 29.467C60.1606 29.193 60.1514 28.8939 60.0403 28.6262C59.9292 28.3585 59.7238 28.1408 59.463 28.0143C59.2022 27.8878 58.9041 27.8612 58.6251 27.9397C58.3461 28.0181 58.1055 28.1961 57.9488 28.44L52.3082 39.6027C52.1758 39.8647 52.1453 40.1664 52.2227 40.4496C52.3 40.7327 52.4797 40.9771 52.7269 41.1353L58.5966 44.8957C58.7856 45.0155 59.0049 45.0786 59.2286 45.0774C59.4848 45.0785 59.7345 44.9964 59.9401 44.8436C60.1458 44.6908 60.2964 44.4755 60.3694 44.2299C60.4424 43.9843 60.4338 43.7217 60.3449 43.4814C60.256 43.241 60.0916 43.036 59.8764 42.897ZM18.2592 43.5606C18.2592 43.2463 18.1344 42.9449 17.9121 42.7227C17.6899 42.5005 17.3885 42.3756 17.0742 42.3756H4.50531C4.19103 42.3756 3.88962 42.5005 3.66739 42.7227C3.44516 42.9449 3.32031 43.2463 3.32031 43.5606C3.32031 43.8749 3.44516 44.1763 3.66739 44.3985C3.88962 44.6208 4.19103 44.7456 4.50531 44.7456H17.09C17.4015 44.7415 17.6989 44.6148 17.9177 44.393C18.1366 44.1712 18.2592 43.8722 18.2592 43.5606ZM10.3118 24.2135H17.09C17.4043 24.2135 17.7057 24.0887 17.9279 23.8664C18.1502 23.6442 18.275 23.3428 18.275 23.0285C18.275 22.7142 18.1502 22.4128 17.9279 22.1906C17.7057 21.9684 17.4043 21.8435 17.09 21.8435H10.3118C9.99753 21.8435 9.69612 21.9684 9.47389 22.1906C9.25166 22.4128 9.12681 22.7142 9.12681 23.0285C9.12681 23.3428 9.25166 23.6442 9.47389 23.8664C9.69612 24.0887 9.99753 24.2135 10.3118 24.2135ZM9.02411 37.92H24.6424C24.9567 37.92 25.2581 37.7952 25.4803 37.5729C25.7026 37.3507 25.8274 37.0493 25.8274 36.735C25.8274 36.4207 25.7026 36.1193 25.4803 35.8971C25.2581 35.6749 24.9567 35.55 24.6424 35.55H9.02411C8.70983 35.55 8.40842 35.6749 8.18619 35.8971C7.96396 36.1193 7.83911 36.4207 7.83911 36.735C7.83911 37.0493 7.96396 37.3507 8.18619 37.5729C8.40842 37.7952 8.70983 37.92 9.02411 37.92Z" fill="black"/>
</svg>
