<svg width="364" height="334" viewBox="0 0 364 334" fill="none" xmlns="http://www.w3.org/2000/svg">
<path fill-rule="evenodd" clip-rule="evenodd" d="M85.8172 270.924C23.8113 270.554 36.1664 286.954 125.878 287.072C161.692 287.12 186.652 284.887 214.605 283.587C240.955 282.361 237.775 277.669 293.597 279.271C326.403 280.212 346.068 270.437 251.604 270.924C216.921 271.102 116.955 271.109 85.8172 270.924Z" fill="#F6F6F6"/>
<path d="M103.495 283.586C128.385 283.586 148.562 281.445 148.562 278.804C148.562 276.163 128.385 274.023 103.495 274.023C78.605 274.023 58.4277 276.163 58.4277 278.804C58.4277 281.445 78.605 283.586 103.495 283.586Z" fill="black" fill-opacity="0.2"/>
<path d="M252.109 275.518C263.999 275.518 273.637 274.647 273.637 273.573C273.637 272.498 263.999 271.628 252.109 271.628C240.22 271.628 230.582 272.498 230.582 273.573C230.582 274.647 240.22 275.518 252.109 275.518Z" fill="black" fill-opacity="0.2"/>
<path fill-rule="evenodd" clip-rule="evenodd" d="M51.7271 218.386C37.6125 233.278 12.9511 276.149 92.6953 250.414C113.36 243.745 149.876 226.166 177.296 221.273C203.445 216.605 244.674 279.143 257.211 221.052C272.66 149.471 322.64 223.483 326.858 213.068C331.076 202.653 300.854 160.995 282.521 158.562C264.188 156.13 237.236 201.82 216.858 198.466C196.479 195.112 187.771 135.114 160.249 138.433C132.726 141.753 75.6137 193.188 51.7271 218.386Z" fill="#F6F6F6"/>
<path d="M275.032 268.342C274.461 267.728 273.938 267.077 273.467 266.394C271.923 264.247 270.988 262.017 270.269 259.263C268.818 254.271 268.565 249.049 269.527 243.958C269.604 244.388 269.623 244.802 269.681 245.257C269.699 245.89 270.05 246.294 270.383 246.721C270.638 247.068 270.714 247.586 271.027 247.993C271.555 248.576 272.497 248.483 273.009 247.819C273.695 248.079 274.539 247.93 275.169 247.341C275.66 246.833 275.937 246.148 276.155 245.447C276.195 245.268 276.234 245.089 276.254 244.934C276.666 245.221 277.175 245.39 277.647 244.992C278.512 244.337 278.673 243.05 278.499 242.038C278.433 241.63 278.316 241.23 278.149 240.846L278.189 240.842C279.053 240.537 278.88 239.262 278.528 238.639C278.271 238.091 277.929 237.579 277.512 237.12C277.592 236.976 277.613 236.811 277.572 236.654C277.477 235.677 276.635 235.038 275.871 234.785C274.93 234.44 273.654 234.501 273.028 234.037C272.772 233.81 272.584 233.527 272.481 233.215C272.441 233.175 272.442 233.132 272.422 233.068C272.507 232.882 272.579 232.692 272.639 232.498C273.943 229.433 275.246 226.719 277.097 224.169C277.146 224.472 277.171 224.777 277.173 225.082C277.151 225.895 277.031 226.827 277.618 227.382C278.303 228.125 279.5 228.072 280.032 226.989C280.348 226.388 280.37 225.663 280.724 225.059C280.826 224.877 280.945 224.704 281.078 224.541C281.293 225.155 281.074 226.119 280.856 226.819C280.302 228.715 278.709 229.99 278.075 231.937C277.897 232.765 278.445 233.106 278.995 233.007C278.895 233.652 278.776 234.277 278.872 234.903C279.201 236.514 280.513 237.282 281.927 236.835C281.965 237.4 282.002 237.966 282.217 238.449C282.646 239.546 283.782 240.353 284.921 239.934C285.362 239.741 285.741 239.446 286.022 239.08C286.665 240.396 286.856 242.436 288.504 242.623C289.013 242.748 289.563 242.562 289.977 242.149C290.263 242.283 290.566 242.385 290.878 242.454C291.487 242.503 292.076 242.225 292.587 241.824C294.298 240.406 294.168 237.9 293.525 236.101C293.525 236.057 293.506 236.037 293.506 235.993C293.565 235.965 293.624 235.981 293.683 235.954C295.804 234.998 294.34 232.449 293.204 231.554L293.067 231.414C294.326 230.369 293.33 228.781 292.076 227.94C291.841 227.788 291.646 227.589 291.411 227.437C291.714 227.175 291.921 226.833 292.002 226.458C292.22 225.538 291.536 224.839 290.889 224.531C290.484 224.365 290.064 224.231 289.634 224.13C289.726 223.986 289.769 223.821 289.759 223.654C289.749 223.488 289.686 223.328 289.578 223.194C289.109 222.627 288.304 222.509 287.598 222.58C287.343 222.627 287.107 222.694 286.832 222.765C286.598 222.438 285.833 222.448 285.42 222.511C284.321 222.62 283.476 222.988 282.614 222.636C281.85 222.295 281.499 221.541 281.128 220.724C280.993 220.384 280.883 220.036 280.798 219.683C282.589 217.643 284.438 215.751 286.367 213.895C286.529 214.497 286.6 215.116 286.578 215.736C286.554 217.031 286.116 219.528 287.823 219.381C288.095 219.321 288.345 219.198 288.55 219.024C288.764 219.725 289.037 220.443 289.526 220.943C290.328 221.893 292.289 222.093 292.823 220.528C292.951 220.065 292.97 219.582 292.88 219.112C292.79 218.641 292.593 218.193 292.301 217.798C291.852 217.163 290.775 216.372 291.227 215.91C291.306 215.815 291.502 215.839 291.836 215.872C292.003 215.912 292.173 215.939 292.345 215.953C292.625 216.923 293.087 217.841 293.711 218.665C294.923 220.21 296.352 221.493 297.722 222.847C298.524 223.621 299.658 224.867 300.858 223.894C301.083 223.687 301.229 223.419 301.272 223.13C301.938 223.546 302.624 223.982 303.428 223.968C304.586 224.006 305.021 222.605 304.946 221.517C304.936 221.459 304.936 221.4 304.946 221.341C305.71 221.682 306.534 221.819 307.185 220.944C308.308 219.102 307.787 215.846 306.122 214.893C306.005 214.817 305.867 214.765 305.75 214.689C305.862 214.546 305.936 214.381 305.967 214.208C306.186 213.244 305.54 212.41 304.835 212.042C304.384 211.845 303.894 211.872 303.403 211.855C303.38 211.696 303.297 211.549 303.169 211.44C302.659 211.008 301.993 210.943 301.366 210.83C302.288 210.717 303.074 210.376 303.586 209.711C303.756 209.458 303.877 209.179 303.941 208.887C304.864 208.818 305.826 208.657 306.612 208.052C307.438 207.532 307.931 206.41 307.541 205.572C308.035 205.428 308.486 205.181 308.858 204.85C310.314 203.479 310.024 201.689 308.458 200.749C308.156 200.563 307.826 200.418 307.478 200.32C308.814 199.487 310.328 198.526 310.627 196.678C310.846 195.802 310.573 194.909 309.967 194.422C308.576 193.486 306.77 193.84 305.14 194.374C305.34 194.017 305.455 193.625 305.477 193.224C305.559 191.945 304.247 191.089 303.186 191.282C302.566 191.375 301.979 191.607 301.478 191.955L301.458 191.979C301.462 190.576 300.323 190.733 299.163 191.659C298.043 192.449 297.156 193.611 296.447 194.864C296.115 194.305 295.486 194.412 294.955 194.968L294.857 195.087C295.153 194.291 295.136 193.526 294.195 193.181C294.077 193.136 293.95 193.112 293.822 193.109C294.295 192.142 294.73 191.091 294.498 190.062C294.226 189.038 293.049 189.067 292.301 189.623C292.293 189.636 292.282 189.648 292.269 189.657C292.255 189.666 292.239 189.672 292.223 189.674C292.283 189.077 292.423 188.472 292.208 187.945C291.74 186.765 290.309 186.447 289.325 187.333C289.216 187.429 289.117 187.534 289.03 187.647C287.482 187.165 286.2 189.198 285.863 190.786C285.491 190.407 285.06 190.187 284.529 190.481C283.37 191.143 282.953 192.696 282.852 193.999C282.821 194.305 282.82 194.613 282.849 194.919C282.645 194.977 282.461 195.082 282.313 195.223C282.165 195.364 282.059 195.537 282.003 195.726C281.408 198.02 283.011 200.139 283.772 201.794C283.983 202.269 284.159 202.757 284.297 203.254C283.851 202.945 283.308 202.776 282.749 202.772C282.462 202.776 282.186 202.871 281.968 203.04C281.749 203.21 281.601 203.443 281.549 203.702C281.518 204.021 281.592 204.342 281.763 204.623C281.928 205.021 282.151 205.397 282.427 205.74C282.779 206.143 283.111 206.57 283.502 206.97C283.363 207.004 283.234 207.069 283.129 207.16C282.519 207.811 283.144 208.758 283.476 209.316C283.681 209.591 283.924 209.839 284.2 210.055C284.119 210.764 285.372 211.998 285.744 212.29C285.941 212.458 286.15 212.613 286.37 212.754C284.482 214.518 282.672 216.363 280.92 218.267C280.82 218.396 280.708 218.517 280.586 218.629C280.423 218.545 280.252 218.474 280.076 218.417C279.823 218.325 279.586 218.201 279.371 218.048C278.509 217.52 277.864 216.467 278.436 215.337C278.673 214.831 279.362 214.172 279.658 213.507C279.722 213.321 279.742 213.124 279.716 212.929C279.689 212.735 279.617 212.549 279.504 212.383C279.879 211.623 280.783 210.963 281.061 210.104C281.102 209.939 281.093 209.767 281.035 209.606C280.977 209.446 280.871 209.303 280.73 209.194C280.868 208.94 281.025 208.661 281.163 208.406C281.794 207.38 282.034 205.647 280.563 205.815C280.484 205.823 280.425 205.851 280.347 205.859C280.607 204.102 281.575 201.662 279.457 201.171C279.301 201.15 279.142 201.151 278.987 201.174C279.264 200.314 279.619 199.402 279.387 198.505C279.136 197.062 277.487 197.182 276.504 197.849C276.287 197.992 276.089 198.159 275.914 198.346C275.683 197.054 275.156 195.857 273.881 195.918C271.486 196.2 270.38 198.851 270.118 201.221C270.098 201.332 270.098 201.42 270.078 201.531C270.016 201.51 269.949 201.502 269.882 201.507C269.196 201.422 268.488 201.975 268.035 202.566C267.01 204.069 267.358 206.051 267.883 207.555C267.903 207.618 267.942 207.658 267.962 207.722C267.372 208.043 267.115 208.879 267.231 209.525C267.324 209.951 267.524 210.352 267.816 210.694C268.04 210.964 268.328 211.182 268.658 211.334C268.578 211.692 268.793 211.999 269.009 212.219C269.536 212.758 270.399 213.111 270.869 213.546C271.137 213.863 271.379 214.198 271.592 214.548C270.727 215.159 270.136 216.182 270.564 217.279C271.245 219.293 273.243 220.584 275.225 220.366C276.207 220.268 277.19 219.514 277.936 219.396C278.25 219.365 278.563 219.553 278.778 219.86C278.895 220.024 278.954 220.171 279.032 220.294C277.241 222.378 275.508 224.565 274.186 227.041C273.713 227.876 273.279 228.752 272.845 229.628C271.902 230.159 271.039 230.07 270.333 229.439C269.629 228.676 269.888 227.401 269.754 226.21C269.678 225.671 269.457 225.158 269.11 224.718C268.738 224.426 268.189 224.262 267.718 224.484C267.623 224.117 267.404 223.786 267.093 223.539C266.466 223.075 265.602 223.205 265.247 223.897C264.817 223.458 264.327 223.134 263.7 223.108C262.72 222.987 261.933 223.678 261.852 224.65C261.364 224.629 260.882 224.754 260.477 225.005C259.2 225.811 258.566 227.89 259.505 229.067L259.544 229.107C258.737 229.779 258.322 231.025 259.616 231.247C260.141 231.308 260.674 231.247 261.167 231.071C260.955 231.537 260.86 232.041 260.888 232.545C260.888 232.792 260.975 233.033 261.138 233.23C261.3 233.428 261.528 233.571 261.788 233.639C262.16 233.711 262.573 233.605 262.946 233.502C263.028 233.471 263.107 233.434 263.182 233.391C263.178 234.794 264.472 235.235 265.966 234.385C266.099 234.303 266.224 234.21 266.339 234.107C266.625 234.173 266.922 234.184 267.212 234.141C267.502 234.097 267.78 233.999 268.027 233.852C268.401 233.619 268.657 233.177 268.874 232.783C269.367 231.835 269.312 230.548 270.194 230.658C270.594 230.66 270.985 230.757 271.332 230.94C271.586 231.023 271.821 231.307 272.096 231.192C271.938 231.558 271.76 231.949 271.622 232.335C271.573 232.358 271.532 232.392 271.504 232.435C271.167 233.629 269.969 234.033 269.064 234.955C268.515 235.509 268.099 236.162 267.842 236.873C267.797 236.983 267.764 237.096 267.743 237.211C267.074 237.891 266.345 238.862 266.736 239.655C266.821 239.801 266.933 239.931 267.068 240.04C266.903 240.623 266.855 241.229 266.926 241.828C266.962 242.569 267.078 243.347 267.43 243.794C266.547 244.035 265.865 242.065 264.413 242.077C264.227 242.052 264.036 242.066 263.855 242.118C263.675 242.17 263.51 242.259 263.373 242.378C262.059 242.048 261.052 244.404 262.088 245.682C262.322 245.916 262.631 246.077 262.97 246.142C262.941 246.31 262.961 246.482 263.027 246.64C263.399 247.108 264.047 246.977 264.577 246.728C264.89 247.222 265.616 247.26 266.126 246.99C266.598 246.681 266.894 246.104 267.268 245.65C267.406 245.439 267.76 245.185 267.819 245.201L268.231 245.095C267.912 247.167 267.788 249.261 267.861 251.353C267.971 254.147 268.512 256.853 269.212 259.457C269.91 262.235 271.08 264.836 272.722 266.995C273.193 267.606 273.688 268.2 274.209 268.776C274.253 268.84 274.32 268.888 274.399 268.912C274.477 268.936 274.562 268.935 274.64 268.908C275.383 268.965 275.383 268.614 275.032 268.342ZM290.016 207.113C290.064 205.985 290.484 204.897 291.222 203.992C291.314 203.87 291.419 203.757 291.537 203.654C291.396 204.874 291.334 206.084 291.252 207.276C291.211 207.762 291.19 208.268 291.15 208.754C290.992 208.901 290.815 209.028 290.678 209.151C290.637 209.119 290.609 209.076 290.599 209.027C290.245 208.44 290.045 207.784 290.016 207.113ZM291.829 211.512C291.434 211.26 291.1 210.935 290.85 210.558C290.762 210.424 290.684 210.286 290.616 210.143C290.675 210.16 290.773 210.127 290.832 210.143C291.165 210.088 291.283 210.076 291.637 210.041C292.333 209.962 293.036 209.943 293.736 209.986C294.835 210.053 296.521 210.499 298.208 210.77L297.854 210.805C296.558 211.065 295.105 211.691 293.986 211.78C293.122 211.778 292.494 211.84 291.828 211.512L291.829 211.512Z" fill="#319991"/>
<path d="M267.092 246.694C267.758 245.9 268.468 245.306 269.152 244.418C269.173 244.392 269.192 244.344 269.212 244.318C271.067 243.214 273.269 241.953 275.097 240.485C277.98 238.152 280.461 235.227 282.692 232.149C285.55 228.396 287.719 224.109 289.244 219.582C289.827 217.604 291.748 213.28 290.381 211.729C289.049 210.932 285.628 213.126 284.304 213.979C278.989 217.618 274.655 222.327 271.636 227.745C269.643 231.482 269.021 235.897 269.649 239.903C269.726 240.811 269.849 241.943 269.639 242.818C269.487 243.295 269.259 243.749 268.962 244.165C268.925 244.188 268.891 244.215 268.861 244.246C268.835 244.282 268.822 244.323 268.822 244.366C268.424 244.851 267.992 245.311 267.528 245.743C267.407 245.873 267.286 246.026 267.164 246.156C267.212 245.37 267.26 244.584 267.287 243.777C267.288 240.404 266.9 237.102 266.553 233.794C266.398 232.047 266.223 230.279 266.007 228.539C267.362 227.153 268.781 225.875 270.011 224.367C272.594 221.236 274.851 217.889 276.753 214.37C279.201 209.544 282.183 204.697 282.972 199.252C283.013 198.099 283.123 196.181 282.044 195.719C281.795 195.658 281.53 195.783 281.285 195.905L279.693 196.723C278.223 197.406 276.883 198.302 275.724 199.376C271.004 203.82 267.439 210.622 266.299 217.189C265.837 220.162 265.952 223.153 265.634 226.13V226.153C265.566 225.771 265.497 225.39 265.408 225.034C264.737 221.997 263.716 219.072 263.044 216.035C262.688 214.496 262.351 212.932 261.994 211.392V211.37C262.002 210.68 261.993 210.13 262.168 209.558C262.501 208.598 263.41 207.59 264.091 206.541C265.635 204.169 266.679 201.491 267.89 198.93C269.811 194.606 271.586 190.185 272.532 185.523C272.779 184.404 272.944 183.272 273.028 182.133C273.186 180.576 271.996 180.862 271.081 181.482C269.246 182.639 267.618 184.05 266.253 185.664C265.045 187.192 264.254 189.058 263.483 190.874C262.357 193.585 261.275 196.382 260.852 199.28C260.666 200.949 260.696 202.633 260.942 204.295C261.07 205.725 261.506 207.024 261.879 208.355C261.965 208.55 261.95 208.874 262.056 209.067C261.931 209.32 261.839 209.585 261.782 209.858L261.727 210.278C261.461 209.209 261.195 208.164 260.889 207.124C260.105 204.744 259.14 202.592 258.337 200.306C257.581 198.358 256.683 196.473 255.887 194.553C255.902 194.511 255.922 194.47 255.946 194.431C256.031 194.27 256.124 194.112 256.226 193.96C256.85 193.125 257.62 192.432 258.286 191.638C259.174 190.609 260.103 189.621 260.908 188.511C261.75 187.274 262.512 185.991 263.187 184.67C264.804 181.76 265.797 178.539 266.501 175.285C266.748 174.129 266.851 172.992 267.018 171.961C267.092 171.494 267.166 171.002 267.199 170.539C267.195 170.333 267.19 170.058 267.003 169.967C266.754 169.86 266.533 170.14 266.35 170.301C265.884 170.726 265.418 171.128 264.951 171.508C263.69 172.445 262.324 173.235 261.192 174.386C259.051 176.482 257.523 179.041 256.752 181.825C256.235 184.046 256.378 186.3 256.376 188.504C256.358 189.791 256.361 191.099 256.114 192.254C256 192.842 255.825 193.414 255.671 194.008C255.171 192.774 254.744 191.518 254.389 190.243C254.323 189.985 254.277 189.722 254.251 189.457C254.305 189.369 254.339 189.271 254.349 189.17C254.385 188.944 254.443 188.722 254.523 188.506C254.892 187.266 255.344 186.039 255.548 184.775C255.692 183.609 255.527 182.46 255.466 181.32C255.312 179.223 254.999 177.138 254.531 175.08C253.227 170.079 251.518 165.496 249.48 160.886C249.268 160.545 248.951 158.932 248.485 159.381C247.987 160.361 247.719 161.495 247.346 162.529C245.768 167.568 246.008 172.954 247.349 177.72C247.752 179.122 248.244 180.501 248.823 181.85C249.444 183.196 250.269 184.401 251.012 185.639C251.712 186.814 252.474 187.958 253.438 188.87C253.551 188.988 253.678 189.096 253.814 189.191C254.017 190.652 254.38 192.09 254.9 193.484C252.542 190.612 251.088 186.433 247.758 184.53C246.259 183.616 244.562 183.116 242.826 182.851C241.514 182.585 240.161 182.529 238.828 182.684C238.171 182.812 237.47 182.762 236.858 183.113C236.029 183.974 237.164 185.255 237.689 185.832C238.697 186.877 239.925 187.642 241.112 188.388C242.175 189.059 243.196 189.758 244.319 190.329C243.988 192.596 243.618 194.914 244.07 197.199C244.914 201.774 247.48 205.929 251.282 207.819C252.446 208.385 253.745 208.498 255.005 208.708C255.746 208.817 256.449 209.083 257.058 209.485C258.206 210.328 259.394 211.144 260.702 211.692C260.801 211.742 260.905 211.783 261.013 211.814C261.463 213.938 261.871 216.089 262.362 218.209C263.075 221.195 263.971 224.112 264.437 227.198C264.532 227.874 264.626 228.55 264.699 229.207C263.093 225.736 261.914 221.959 259.819 218.824C258.428 216.786 256.843 214.864 255.083 213.081C253.889 211.968 252.652 210.723 251.098 210.228C248.489 209.452 245.638 210.061 243.023 210.134C242.307 210.407 242.903 211.503 243.055 211.966C244.111 214.542 245.937 216.494 247.742 218.38C249.527 220.292 251.21 222.308 253.176 223.99C254.642 225.368 256.409 226.272 258.195 227.081C259.483 227.701 260.691 228.468 261.919 229.21C262.836 229.775 263.818 230.246 264.848 230.611C264.998 232.084 265.127 233.537 265.256 235.012C265.533 237.846 265.785 240.431 265.836 243.293C265.843 244.853 265.767 246.399 265.651 247.952C264.338 247.083 263.71 245.348 262.98 243.718C261.93 241.417 260.616 239.286 259.26 237.206C257.885 235.129 256.348 233.324 254.976 231.384C253.094 228.636 251.11 225.969 248.844 223.613C247.795 222.55 246.565 221.671 245.156 221.227C244.18 220.775 244.091 221.567 244.231 222.467C245.111 226.786 245.399 231.385 247.199 235.315C247.902 236.896 248.735 238.426 249.69 239.892C250.347 240.934 251.025 241.997 251.905 242.828C254.145 244.889 256.91 246.266 259.745 247.105C260.74 247.44 261.79 247.447 262.841 247.453C263.344 247.467 263.847 247.435 264.343 247.358L264.446 247.345C264.651 247.608 264.891 247.848 265.158 248.059C265.301 248.175 265.454 248.279 265.617 248.369C265.362 251.269 264.89 254.149 264.205 256.99C264.005 256.186 263.701 255.408 263.299 254.671C262.845 253.933 262.197 253.312 261.413 252.864C259.606 252.01 257.75 251.898 256.005 251.014C254.489 250.331 253.339 249.373 252.022 248.275C251.185 247.576 250.348 246.809 249.312 246.456C247.572 245.893 245.635 246.961 244.153 248.179C243.605 248.66 243.037 249.144 242.532 249.666C242.068 250.251 242.43 250.872 242.828 251.258C243.665 252.049 244.724 252.467 245.8 252.792C247.068 253.175 248.313 253.617 249.531 254.116C250.985 254.784 252.48 255.492 254.18 254.959C255.164 254.699 256.041 254.199 256.924 254.043C258.795 253.856 260.348 255.475 261.813 256.829C262.264 257.239 262.813 257.548 263.415 257.731C263.613 257.798 263.825 257.819 264.034 257.792C263.496 259.993 263 262.212 262.297 264.365C262.219 264.604 262.218 264.558 262.12 264.823V264.869C262.12 264.892 262.12 264.892 262.1 264.917V264.94C262.082 265.034 262.124 265.12 262.207 265.133C262.448 265.143 262.688 265.097 262.905 265C263.196 265.124 263.522 263.844 263.602 263.674C264.051 262.309 264.439 260.907 264.826 259.528C265.272 259.513 265.71 259.419 266.118 259.252C266.492 259.064 266.834 258.828 267.135 258.551C267.178 258.638 267.322 258.62 267.444 258.581C268.101 258.454 268.782 258.529 269.523 258.483C270.379 258.414 271.229 258.3 272.071 258.142C274.143 257.7 276.125 256.81 278.042 255.722C281.353 253.985 284.213 251.608 286.424 248.755C287.208 247.671 288.053 246.556 288.4 245.227C288.457 244.945 288.574 244.586 288.385 244.38C288.196 244.174 287.869 244.307 287.62 244.269C287.158 244.278 286.696 244.251 286.239 244.189C284.566 243.916 282.872 243.668 281.129 244.092C277.56 244.881 272.83 248.776 270.875 252.325C269.955 253.863 269.369 255.634 268.341 256.932C267.78 257.594 267.134 258.191 266.416 258.71C265.998 258.971 265.508 259.119 265.003 259.139L264.962 259.144C265.116 258.574 265.271 257.981 265.425 257.411C266.243 253.877 266.8 250.297 267.092 246.694ZM258.343 209.899C258.32 209.874 258.292 209.854 258.26 209.84C258.277 209.632 258.087 209.38 258.083 209.151C257.876 207.961 257.69 206.744 257.218 205.656C256.27 203.319 254.977 201.254 253.723 199.139C252.533 197.061 251.099 195.175 249.766 193.207C249.555 192.889 249.343 192.571 249.131 192.254C249.608 192.424 250.064 192.596 250.541 192.766C251.951 193.302 253.342 193.931 254.85 194.179C254.892 194.197 254.933 194.192 254.974 194.209C255.016 194.227 255.037 194.27 255.079 194.288L255.12 194.283C255.575 195.512 256.09 196.709 256.544 197.915C257.232 199.596 257.733 201.094 258.299 202.813C258.907 204.573 259.511 206.081 259.996 207.902C260.283 208.991 260.53 210.108 260.755 211.204C259.909 210.838 259.102 210.401 258.343 209.899Z" fill="#98DED9"/>
<path d="M274.54 248.732C275.114 248.704 275.623 248.791 276.242 248.728C276.26 248.727 276.287 248.715 276.305 248.713C277.454 249.147 278.799 249.684 280.085 249.935C282.121 250.324 284.245 250.235 286.336 249.948C288.938 249.668 291.494 248.79 293.905 247.476C294.926 246.859 297.403 245.838 297.514 244.427C297.332 243.381 295.148 242.655 294.301 242.376C290.938 241.355 287.312 241.326 283.931 242.293C281.663 243.005 279.641 244.728 278.257 246.897C277.919 247.357 277.508 247.942 277.074 248.239C276.83 248.38 276.558 248.475 276.273 248.517C276.25 248.509 276.226 248.504 276.202 248.503C276.177 248.507 276.154 248.52 276.139 248.539C275.789 248.561 275.439 248.553 275.091 248.517C274.993 248.515 274.885 248.524 274.786 248.523C275.123 248.184 275.46 247.845 275.796 247.486C277.162 245.929 278.351 244.206 279.558 242.502C280.207 241.617 280.856 240.71 281.478 239.797C282.552 239.846 283.607 239.977 284.683 239.906C286.93 239.773 289.148 239.374 291.283 238.717C294.163 237.733 297.255 237.011 299.757 234.897C300.24 234.386 301.058 233.555 300.836 232.793C300.759 232.655 300.63 232.548 300.473 232.492L299.539 232.06C298.746 231.641 297.87 231.371 296.962 231.267C293.375 230.92 289.272 232.248 286.182 234.702C284.804 235.84 283.637 237.28 282.312 238.493L282.303 238.503C282.431 238.292 282.56 238.081 282.67 237.872C283.645 236.127 284.442 234.257 285.417 232.513C285.905 231.621 286.41 230.727 286.898 229.835L286.907 229.824C287.129 229.538 287.399 229.286 287.706 229.075C288.22 228.802 288.973 228.798 289.655 228.66C291.2 228.349 292.679 227.644 294.174 227.077C296.652 226.056 299.114 224.917 301.359 223.245C301.915 222.845 302.437 222.406 302.919 221.932C303.609 221.293 303.042 220.82 302.446 220.64C301.323 220.248 300.125 220.07 298.924 220.117C297.848 220.208 296.794 220.668 295.766 221.115C294.243 221.794 292.7 222.536 291.368 223.659C290.596 224.366 289.925 225.159 289.372 226.021C288.842 226.747 288.48 227.568 288.084 228.373C288.037 228.506 287.901 228.648 287.863 228.792C287.71 228.847 287.566 228.923 287.439 229.018L287.248 229.185C287.58 228.556 287.902 227.938 288.207 227.302C288.873 225.803 289.379 224.319 290 222.855C290.502 221.571 290.924 220.243 291.4 218.952C291.422 218.94 291.447 218.931 291.472 218.925C291.569 218.894 291.668 218.869 291.769 218.85C292.343 218.782 292.915 218.854 293.489 218.825C294.243 218.828 294.997 218.791 295.747 218.714C296.57 218.57 297.379 218.365 298.165 218.099C299.955 217.577 301.636 216.594 303.219 215.449C303.781 215.041 304.28 214.568 304.76 214.177C304.979 213.999 305.205 213.81 305.405 213.612C305.458 213.565 305.499 213.509 305.527 213.446C305.554 213.383 305.566 213.316 305.562 213.248C305.511 213.072 305.314 213.089 305.18 213.07C304.831 213.03 304.492 212.979 304.161 212.916C303.304 212.708 302.467 212.379 301.572 212.334C299.906 212.215 298.247 212.631 296.879 213.512C295.785 214.275 294.927 215.389 294.034 216.406C293.506 216.99 292.979 217.597 292.417 218.005C292.136 218.218 291.838 218.394 291.54 218.589C291.837 217.843 292.172 216.973 292.577 216.198C292.655 216.049 292.743 215.904 292.843 215.765C292.901 215.751 292.954 215.722 292.997 215.682C293.099 215.598 293.211 215.524 293.331 215.463C293.973 215.079 294.64 214.742 295.229 214.261C295.756 213.796 296.159 213.181 296.597 212.624C297.403 211.551 298.129 210.43 298.768 209.266C300.269 206.307 301.549 203.259 302.599 200.141C302.657 199.876 303.189 198.97 302.832 198.94C302.246 199.14 301.685 199.527 301.126 199.815C298.489 201.34 296.4 203.949 294.979 206.833C294.558 207.7 294.186 208.587 293.866 209.49C293.556 210.428 293.381 211.404 293.161 212.353C292.93 213.247 292.8 214.161 292.772 215.079C292.768 215.193 292.772 215.306 292.785 215.419C292.257 216.223 291.813 217.072 291.459 217.954C291.728 215.428 292.869 212.759 292.378 210.187C292.172 209.042 291.771 207.934 291.189 206.903C290.818 206.14 290.331 205.43 289.742 204.793C289.441 204.518 289.196 204.138 288.822 203.989C288.16 203.965 288.071 205.134 288.036 205.668C287.995 206.663 288.151 207.641 288.299 208.59C288.43 209.44 288.534 210.282 288.728 211.117C287.685 211.996 286.606 212.878 285.853 214.164C284.321 216.706 283.611 219.93 284.287 222.737C284.499 223.59 284.945 224.303 285.338 225.041C285.579 225.481 285.735 225.955 285.801 226.444C285.87 227.413 286.033 228.374 286.288 229.316C286.305 229.389 286.328 229.461 286.356 229.531C285.667 230.741 284.951 231.942 284.279 233.171C283.34 234.913 282.499 236.716 281.427 238.379C281.189 238.739 280.951 239.1 280.713 239.44C281.51 237.02 282.592 234.676 283.067 232.163C283.368 230.488 283.545 228.798 283.597 227.101C283.595 225.98 283.631 224.776 283.242 223.757C282.569 222.072 281.242 220.903 280.221 219.607C279.839 219.369 279.622 220.179 279.492 220.47C278.849 222.196 278.751 224.027 278.671 225.816C278.574 227.606 278.396 229.394 278.459 231.17C278.457 232.552 278.761 233.868 279.109 235.151C279.346 236.092 279.494 237.06 279.659 238.028C279.776 238.752 279.958 239.467 280.201 240.165C279.662 240.922 279.122 241.658 278.574 242.405C277.532 243.855 276.582 245.178 275.442 246.525C274.814 247.249 274.159 247.925 273.487 248.583C273.341 247.514 273.805 246.393 274.189 245.269C274.701 243.659 275.11 242.023 275.415 240.37C275.735 238.711 275.884 237.096 276.149 235.502C276.574 233.283 276.848 231.043 276.971 228.794C277.026 227.786 276.88 226.777 276.54 225.817C276.353 225.112 275.999 225.432 275.687 225.919C274.273 228.361 272.52 230.632 271.612 233.362C271.233 234.471 270.929 235.6 270.703 236.743C270.502 237.559 270.385 238.39 270.354 239.226C270.39 241.264 270.809 243.28 271.593 245.188C271.847 245.807 272.195 246.391 272.624 246.923C272.804 247.178 273.007 247.419 273.232 247.642L273.276 247.689C273.247 247.918 273.241 248.15 273.257 248.381C273.264 248.507 273.28 248.633 273.305 248.758C272.063 249.944 270.717 251.036 269.281 252.021C269.538 251.531 269.737 251.018 269.877 250.489C270.003 249.897 270.009 249.289 269.894 248.696C269.555 247.382 268.897 246.387 268.594 245.091C268.296 244.005 268.248 242.977 268.193 241.801C268.159 241.053 268.153 240.273 267.902 239.583C267.471 238.438 266.305 237.946 265.25 237.754C264.848 237.689 264.442 237.643 264.034 237.617C263.622 237.652 263.508 238.122 263.502 238.503C263.525 239.265 263.696 240.016 264.007 240.723C264.327 241.547 264.628 242.373 264.884 243.232C265.165 244.28 265.445 245.367 266.304 245.986C266.782 246.366 267.316 246.581 267.714 246.958C268.499 247.823 268.432 249.36 268.439 250.732C268.444 251.152 268.526 251.568 268.681 251.963C268.725 252.089 268.796 252.206 268.891 252.306C267.796 253.049 266.71 253.822 265.572 254.459C265.446 254.53 265.463 254.508 265.32 254.58L265.302 254.602C265.292 254.613 265.292 254.613 265.274 254.614L265.265 254.625C265.243 254.642 265.227 254.665 265.22 254.691C265.213 254.717 265.216 254.744 265.227 254.768C265.307 254.888 265.416 254.988 265.546 255.062C265.605 255.267 266.247 254.842 266.346 254.804C267.069 254.403 267.783 253.952 268.488 253.511C268.651 253.721 268.854 253.9 269.089 254.041C269.297 254.142 269.524 254.208 269.757 254.235C269.739 254.297 269.8 254.361 269.862 254.406C270.163 254.681 270.39 255.062 270.69 255.418C271.035 255.815 271.404 256.195 271.793 256.556C272.741 257.366 273.839 258.016 275.034 258.475C276.894 259.309 278.939 259.727 281.029 259.52C281.765 259.417 282.536 259.332 283.205 258.895C283.341 258.793 283.531 258.687 283.543 258.496C283.554 258.305 283.377 258.2 283.298 258.056C283.116 257.82 282.951 257.573 282.807 257.317C282.283 256.34 281.742 255.364 280.91 254.674C279.239 253.223 275.871 252.617 273.694 253.261C272.723 253.504 271.784 254.024 270.869 254.101C270.38 254.12 269.891 254.067 269.421 253.943C269.135 253.835 268.889 253.655 268.712 253.422L268.694 253.404C268.983 253.219 269.281 253.024 269.571 252.839C271.344 251.594 273.006 250.221 274.54 248.732ZM286.118 227.287C286.12 227.264 286.117 227.24 286.11 227.218C286.201 227.13 286.231 226.917 286.322 226.809C286.726 226.154 287.147 225.498 287.409 224.755C287.996 223.194 288.342 221.582 288.723 219.968C289.113 218.403 289.333 216.803 289.625 215.216L289.771 214.453C289.882 214.774 289.986 215.086 290.097 215.406C290.415 216.371 290.687 217.369 291.158 218.25C291.166 218.28 291.184 218.298 291.192 218.328C291.201 218.357 291.191 218.388 291.2 218.417L291.218 218.436C290.893 219.234 290.604 220.05 290.288 220.837C289.869 221.964 289.452 222.91 288.97 223.992C288.488 225.115 288.107 226.118 287.553 227.206C287.221 227.855 286.863 228.496 286.505 229.117C286.332 228.516 286.203 227.904 286.118 227.287Z" fill="#42C2B9"/>
<path fill-rule="evenodd" clip-rule="evenodd" d="M248.787 256.709H287.937L282.683 265.929C281.316 268.329 279.259 270.339 276.735 271.742C274.211 273.145 271.317 273.886 268.366 273.886H268.358C265.407 273.886 262.513 273.145 259.989 271.742C257.465 270.339 255.408 268.329 254.042 265.929C251.481 261.435 248.787 256.709 248.787 256.709Z" fill="#18BCBF"/>
<mask id="mask0_2305_440" style="mask-type:luminance" maskUnits="userSpaceOnUse" x="248" y="256" width="40" height="18">
<path d="M248.787 256.709H287.937L282.683 265.929C281.316 268.329 279.259 270.339 276.735 271.742C274.211 273.145 271.317 273.886 268.366 273.886H268.358C265.407 273.886 262.513 273.145 259.989 271.742C257.465 270.339 255.408 268.329 254.042 265.929C251.481 261.435 248.787 256.709 248.787 256.709Z" fill="white"/>
</mask>
<g mask="url(#mask0_2305_440)">
<path fill-rule="evenodd" clip-rule="evenodd" d="M283.607 256.708C277.035 256.484 254.002 255.684 248.504 256.708C246.208 257.137 250.616 262.858 250.616 262.858C250.616 262.858 282.437 259.077 287.934 258.052C289.427 257.774 285.129 256.761 283.607 256.708Z" fill="black" fill-opacity="0.2"/>
</g>
<path fill-rule="evenodd" clip-rule="evenodd" d="M289.505 252.781H247.219V252.787C247.219 253.478 247.367 254.163 247.655 254.802C247.944 255.44 248.367 256.021 248.899 256.51C249.432 256.999 250.065 257.387 250.761 257.651C251.457 257.916 252.203 258.052 252.957 258.052H283.765C285.287 258.052 286.747 257.497 287.824 256.51C288.9 255.523 289.505 254.183 289.505 252.787V252.781Z" fill="#0369A1"/>
<path fill-rule="evenodd" clip-rule="evenodd" d="M114.927 58.2767C115.93 56.59 117.935 56.59 118.938 57.4341C119.94 58.2783 119.94 59.9619 118.938 61.6482C118.236 62.9114 116.431 64.1759 114.927 65.0198C113.423 64.1759 111.619 62.9114 110.918 61.6482C109.915 59.9615 109.915 58.2767 110.918 57.4341C111.921 56.5916 113.924 56.5903 114.927 58.2767Z" fill="#18BCBF"/>
<path fill-rule="evenodd" clip-rule="evenodd" d="M316.029 140.244C316.029 138.272 318.546 136.671 321.646 136.671C324.746 136.671 327.261 138.273 327.261 140.244C327.261 141.41 326.368 142.503 324.868 143.171L325.578 145.606L323.101 143.698C322.621 143.779 322.134 143.819 321.646 143.819C318.546 143.819 316.029 142.217 316.029 140.244Z" fill="#0369A1"/>
<path fill-rule="evenodd" clip-rule="evenodd" d="M284.216 71.7663C283.584 71.7668 282.979 71.9972 282.532 72.407C282.086 72.8167 281.835 73.3723 281.834 73.9518V93.2163C281.834 93.7959 282.085 94.3519 282.532 94.7618C282.978 95.1717 283.584 95.4019 284.216 95.4019C284.848 95.4019 285.454 95.1717 285.9 94.7618C286.347 94.3519 286.598 93.7959 286.598 93.2163V73.9518C286.598 73.3722 286.347 72.8164 285.9 72.4066C285.453 71.9968 284.848 71.7664 284.216 71.7663ZM294.665 75.8778C294.034 75.8783 293.428 76.1089 292.981 76.5188C292.535 76.9287 292.284 77.4845 292.283 78.0642V93.2156C292.283 93.7953 292.534 94.3512 292.981 94.7611C293.428 95.171 294.034 95.4013 294.665 95.4013C295.297 95.4013 295.903 95.171 296.35 94.7611C296.796 94.3512 297.047 93.7953 297.047 93.2156V78.0642C297.047 77.4845 296.796 76.9287 296.349 76.5188C295.903 76.1089 295.297 75.8783 294.665 75.8778ZM304.37 71.7729C303.739 71.7735 303.133 72.0039 302.687 72.4136C302.24 72.8234 301.989 73.379 301.988 73.9585V93.5733C301.988 94.153 302.239 94.7089 302.686 95.1188C303.133 95.5287 303.739 95.759 304.37 95.759C305.002 95.759 305.608 95.5287 306.055 95.1188C306.501 94.7089 306.752 94.153 306.752 93.5733V73.9585C306.752 73.3789 306.501 72.8231 306.054 72.4133C305.608 72.0035 305.002 71.7732 304.37 71.7729ZM314.029 60.2633C313.397 60.2638 312.791 60.4943 312.345 60.9042C311.898 61.314 311.647 61.8698 311.647 62.4493V93.5594C311.647 94.1391 311.898 94.6951 312.344 95.1049C312.791 95.5148 313.397 95.7451 314.029 95.7451C314.66 95.7451 315.266 95.5148 315.713 95.1049C316.16 94.6951 316.411 94.1391 316.411 93.5594V62.4493C316.41 61.8698 316.159 61.314 315.713 60.9042C315.266 60.4943 314.66 60.2638 314.029 60.2633ZM323.074 67.9532C322.442 67.9537 321.836 68.1843 321.39 68.5943C320.943 69.0044 320.692 69.5603 320.692 70.14V93.5701C320.692 94.1498 320.943 94.7057 321.39 95.1156C321.836 95.5255 322.442 95.7558 323.074 95.7558C323.706 95.7558 324.312 95.5255 324.758 95.1156C325.205 94.7057 325.456 94.1498 325.456 93.5701V70.14C325.456 69.5603 325.205 69.0044 324.758 68.5943C324.311 68.1843 323.706 67.9537 323.074 67.9532Z" fill="#E7E7E7"/>
<path fill-rule="evenodd" clip-rule="evenodd" d="M158.29 157.075C157.659 157.076 157.053 157.306 156.607 157.716C156.16 158.126 155.909 158.681 155.908 159.261V178.525C155.914 179.102 156.167 179.653 156.613 180.059C157.059 180.464 157.662 180.692 158.29 180.692C158.919 180.692 159.521 180.464 159.967 180.059C160.414 179.653 160.667 179.102 160.672 178.525V159.261C160.672 158.681 160.421 158.125 159.975 157.716C159.528 157.306 158.922 157.076 158.29 157.075ZM168.74 147.406C168.108 147.406 167.502 147.637 167.055 148.047C166.608 148.457 166.358 149.014 166.358 149.593V178.525C166.363 179.101 166.616 179.653 167.063 180.058C167.509 180.464 168.111 180.692 168.74 180.692C169.368 180.692 169.971 180.464 170.417 180.058C170.863 179.653 171.116 179.101 171.122 178.525V149.593C171.122 149.013 170.871 148.457 170.424 148.047C169.977 147.637 169.372 147.406 168.74 147.406ZM178.445 152.298C177.813 152.299 177.207 152.529 176.761 152.939C176.314 153.349 176.063 153.905 176.063 154.484V178.875C176.063 179.454 176.314 180.01 176.76 180.42C177.207 180.83 177.813 181.06 178.445 181.06C179.076 181.06 179.682 180.83 180.129 180.42C180.576 180.01 180.827 179.454 180.827 178.875V154.484C180.826 153.905 180.575 153.349 180.129 152.939C179.682 152.529 179.076 152.299 178.445 152.298ZM188.103 167.606C187.471 167.606 186.866 167.837 186.419 168.247C185.972 168.657 185.721 169.213 185.721 169.792V178.875C185.726 179.451 185.98 180.003 186.426 180.408C186.872 180.814 187.475 181.042 188.103 181.042C188.731 181.042 189.334 180.814 189.78 180.408C190.226 180.003 190.48 179.451 190.485 178.875V169.792C190.485 169.212 190.234 168.657 189.787 168.247C189.34 167.837 188.735 167.606 188.103 167.606ZM197.148 164.06C196.517 164.06 195.911 164.291 195.464 164.7C195.018 165.11 194.767 165.666 194.766 166.245V178.876C194.763 179.164 194.823 179.451 194.941 179.718C195.06 179.985 195.235 180.229 195.456 180.434C195.678 180.639 195.941 180.801 196.232 180.912C196.522 181.023 196.834 181.081 197.148 181.081C197.463 181.081 197.774 181.023 198.065 180.912C198.355 180.801 198.619 180.639 198.84 180.434C199.062 180.229 199.237 179.985 199.355 179.718C199.474 179.451 199.533 179.164 199.53 178.876V166.245C199.53 165.666 199.279 165.11 198.832 164.7C198.386 164.29 197.78 164.06 197.148 164.06Z" fill="#E7E7E7"/>
<path fill-rule="evenodd" clip-rule="evenodd" d="M313.374 138.845C313.374 138.627 313.28 138.418 313.112 138.264C312.944 138.11 312.716 138.023 312.478 138.023H301.39C301.153 138.023 300.925 138.11 300.757 138.264C300.589 138.418 300.495 138.627 300.495 138.845C300.495 139.063 300.589 139.272 300.757 139.426C300.925 139.58 301.153 139.667 301.39 139.667H312.478C312.716 139.667 312.944 139.58 313.112 139.426C313.28 139.272 313.374 139.063 313.374 138.845ZM311.132 142.45C311.132 142.232 311.038 142.023 310.87 141.869C310.702 141.715 310.474 141.628 310.237 141.628H301.39C301.152 141.628 300.924 141.714 300.756 141.868C300.588 142.023 300.494 142.232 300.494 142.45C300.494 142.667 300.588 142.877 300.756 143.031C300.924 143.185 301.152 143.271 301.39 143.271H310.237C310.474 143.271 310.702 143.185 310.87 143.03C311.038 142.876 311.132 142.667 311.132 142.45Z" fill="#E7E7E7"/>
<path fill-rule="evenodd" clip-rule="evenodd" d="M121.605 58.4681C121.606 58.2502 121.7 58.0413 121.868 57.8872C122.036 57.7332 122.264 57.6466 122.501 57.6464H130.567C130.803 57.6495 131.027 57.7374 131.192 57.8912C131.358 58.045 131.45 58.2522 131.45 58.4681C131.45 58.6841 131.358 58.8913 131.192 59.0451C131.027 59.1989 130.803 59.2868 130.567 59.2899H122.501C122.264 59.2898 122.036 59.2032 121.868 59.0491C121.7 58.895 121.606 58.686 121.605 58.4681ZM123.321 62.0726C123.321 61.8546 123.416 61.6457 123.584 61.4916C123.752 61.3375 123.979 61.2509 124.217 61.2508H130.567C130.805 61.2508 131.033 61.3374 131.201 61.4915C131.369 61.6456 131.463 61.8546 131.463 62.0726C131.463 62.2905 131.369 62.4996 131.201 62.6537C131.033 62.8078 130.805 62.8944 130.567 62.8944H124.217C123.979 62.8944 123.752 62.8078 123.584 62.6537C123.416 62.4996 123.321 62.2906 123.321 62.0726Z" fill="#E7E7E7"/>
<path fill-rule="evenodd" clip-rule="evenodd" d="M218.071 46.927C187.942 46.927 163.516 69.3399 163.516 96.9826C163.516 124.61 187.962 147.041 218.071 147.041C248.176 147.041 272.622 124.61 272.622 96.9826C272.622 87.7181 269.82 78.6354 264.528 70.7456C259.236 62.8558 251.661 56.4684 242.647 52.2945L218.071 96.9826V46.927Z" fill="#0369A1"/>
<mask id="mask1_2305_440" style="mask-type:luminance" maskUnits="userSpaceOnUse" x="163" y="46" width="110" height="102">
<path d="M218.071 46.927C187.942 46.927 163.516 69.3399 163.516 96.9826C163.516 124.61 187.962 147.041 218.071 147.041C248.176 147.041 272.622 124.61 272.622 96.9826C272.622 87.7181 269.82 78.6354 264.528 70.7456C259.236 62.8558 251.661 56.4684 242.647 52.2945L218.071 96.9826V46.927Z" fill="white"/>
</mask>
<g mask="url(#mask1_2305_440)">
<path fill-rule="evenodd" clip-rule="evenodd" d="M218.409 97.1439L260.493 129.03C260.493 129.03 259.383 143.63 253.35 144.531C247.107 145.461 228.866 142.508 223.04 134.61C217.218 126.712 218.409 97.1439 218.409 97.1439Z" fill="black" fill-opacity="0.41"/>
</g>
<path fill-rule="evenodd" clip-rule="evenodd" d="M218.071 46.927C187.942 46.927 163.516 69.3399 163.516 96.9826C163.516 124.61 187.962 147.041 218.071 147.041C229.502 147.04 240.643 143.745 249.923 137.621L218.071 96.9826V46.927Z" fill="#18BCBF"/>
<mask id="mask2_2305_440" style="mask-type:luminance" maskUnits="userSpaceOnUse" x="163" y="46" width="87" height="102">
<path d="M218.071 46.927C187.942 46.927 163.516 69.3399 163.516 96.9826C163.516 124.61 187.962 147.041 218.071 147.041C229.502 147.04 240.643 143.745 249.923 137.621L218.071 96.9826V46.927Z" fill="white"/>
</mask>
<g mask="url(#mask2_2305_440)">
<path fill-rule="evenodd" clip-rule="evenodd" d="M164.347 66.8544L218.067 96.9851C218.067 96.9851 233.21 47.0449 223.343 37.7425C213.475 28.4401 168.7 36.3173 158.867 41.1692C150.494 45.3004 164.347 66.8544 164.347 66.8544Z" fill="black" fill-opacity="0.49"/>
</g>
<path fill-rule="evenodd" clip-rule="evenodd" d="M137.411 63.2538C138.049 63.2463 138.671 63.0652 139.198 62.7334C139.724 62.4015 140.132 61.9338 140.369 61.3895C140.605 60.8451 140.661 60.2486 140.528 59.6752C140.395 59.1019 140.08 58.5776 139.623 58.1687C139.165 57.7597 138.586 57.4844 137.958 57.3777C137.33 57.271 136.681 57.3376 136.094 57.5691C135.507 57.8006 135.009 58.1866 134.661 58.6783C134.313 59.17 134.132 59.7452 134.141 60.3313C134.153 61.1165 134.504 61.8653 135.117 62.4133C135.73 62.9612 136.555 63.2635 137.411 63.2538ZM137.382 61.2788C137.169 61.2815 136.96 61.2261 136.782 61.1198C136.603 61.0134 136.463 60.8609 136.379 60.6815C136.295 60.502 136.271 60.3037 136.309 60.1116C136.348 59.9196 136.448 59.7423 136.596 59.6024C136.745 59.4624 136.935 59.366 137.144 59.3253C137.352 59.2846 137.568 59.3015 137.766 59.3738C137.964 59.4461 138.134 59.5706 138.255 59.7316C138.375 59.8925 138.441 60.0827 138.444 60.278C138.447 60.5398 138.337 60.7921 138.138 60.9797C137.939 61.1673 137.667 61.2748 137.382 61.2788Z" fill="#18BCBF"/>
<path fill-rule="evenodd" clip-rule="evenodd" d="M164.568 69.327L157.745 59.5258C157.647 59.3843 157.51 59.2683 157.349 59.1886C157.187 59.1088 157.007 59.0681 156.823 59.0701C156.823 59.0701 146.219 59.1983 139.505 59.2773C139.364 59.279 139.224 59.3063 139.095 59.3575C138.965 59.4087 138.847 59.4829 138.749 59.5758C138.65 59.6688 138.572 59.7786 138.52 59.8991C138.468 60.0195 138.442 60.1483 138.443 60.278C138.445 60.4077 138.475 60.5358 138.531 60.6549C138.587 60.7741 138.668 60.882 138.769 60.9725C138.87 61.0629 138.99 61.1342 139.121 61.1823C139.252 61.2303 139.393 61.2542 139.534 61.2524L156.253 61.052L162.755 70.3907C162.83 70.5016 162.929 70.5977 163.045 70.6734C163.161 70.7492 163.292 70.803 163.431 70.8319C163.57 70.8607 163.714 70.864 163.854 70.8416C163.994 70.8191 164.128 70.7713 164.248 70.7009C164.368 70.6306 164.472 70.5391 164.553 70.4318C164.634 70.3244 164.691 70.2034 164.721 70.0756C164.751 69.9479 164.753 69.816 164.726 69.6876C164.7 69.5592 164.647 69.4368 164.568 69.3276V69.327Z" fill="#18BCBF"/>
<path fill-rule="evenodd" clip-rule="evenodd" d="M294.575 137.503C293.936 137.51 293.314 137.692 292.787 138.023C292.261 138.355 291.854 138.823 291.617 139.367C291.38 139.912 291.324 140.508 291.457 141.082C291.59 141.655 291.905 142.179 292.363 142.588C292.82 142.997 293.4 143.272 294.028 143.379C294.656 143.486 295.304 143.419 295.891 143.188C296.478 142.956 296.977 142.57 297.325 142.078C297.672 141.587 297.853 141.012 297.845 140.425C297.833 139.64 297.482 138.891 296.869 138.343C296.255 137.795 295.43 137.493 294.575 137.503ZM294.603 139.478C294.816 139.475 295.025 139.531 295.204 139.637C295.382 139.744 295.522 139.896 295.606 140.075C295.69 140.255 295.714 140.453 295.676 140.645C295.637 140.837 295.537 141.014 295.389 141.154C295.24 141.294 295.05 141.391 294.842 141.431C294.633 141.472 294.417 141.455 294.219 141.383C294.021 141.31 293.851 141.186 293.731 141.025C293.61 140.864 293.544 140.674 293.541 140.479C293.538 140.217 293.648 139.965 293.847 139.777C294.046 139.59 294.318 139.482 294.603 139.478Z" fill="#0369A1"/>
<path fill-rule="evenodd" clip-rule="evenodd" d="M267.415 131.43L274.239 141.231C274.338 141.372 274.474 141.488 274.635 141.568C274.797 141.648 274.977 141.689 275.161 141.687C275.161 141.687 285.765 141.558 292.479 141.479C292.62 141.478 292.76 141.45 292.889 141.399C293.019 141.348 293.137 141.274 293.235 141.181C293.334 141.088 293.412 140.978 293.464 140.858C293.516 140.737 293.542 140.608 293.541 140.479C293.539 140.349 293.509 140.221 293.453 140.102C293.397 139.983 293.316 139.875 293.215 139.784C293.114 139.694 292.994 139.622 292.863 139.574C292.732 139.526 292.591 139.503 292.45 139.504L275.731 139.705L269.229 130.366C269.153 130.257 269.054 130.162 268.938 130.088C268.822 130.014 268.692 129.961 268.554 129.933C268.416 129.906 268.273 129.903 268.134 129.926C267.995 129.948 267.862 129.996 267.743 130.066C267.624 130.136 267.521 130.226 267.44 130.332C267.359 130.439 267.302 130.559 267.271 130.685C267.241 130.812 267.238 130.943 267.263 131.07C267.287 131.198 267.339 131.32 267.415 131.429V131.43Z" fill="#0369A1"/>
<path fill-rule="evenodd" clip-rule="evenodd" d="M63.0334 261.452C63.5124 271.302 54.3322 273.827 59.1037 276.64C64.5233 279.836 93.124 283.35 95.5572 280.625C100.885 274.659 83.709 273.023 80.8929 269.776C78.8854 267.46 81.5445 262.476 78.6692 261.137C75.691 259.748 62.8057 256.754 63.0334 261.452Z" fill="#98DED9"/>
<mask id="mask3_2305_440" style="mask-type:luminance" maskUnits="userSpaceOnUse" x="57" y="258" width="40" height="24">
<path d="M63.0334 261.452C63.5124 271.302 54.3322 273.827 59.1037 276.64C64.5233 279.836 93.124 283.35 95.5572 280.625C100.885 274.659 83.709 273.023 80.8929 269.776C78.8854 267.46 81.5445 262.476 78.6692 261.137C75.691 259.748 62.8057 256.754 63.0334 261.452Z" fill="white"/>
</mask>
<g mask="url(#mask3_2305_440)">
<path fill-rule="evenodd" clip-rule="evenodd" d="M84.5023 267.423C84.6206 270.371 73.5069 267.744 67.4101 271.233C63.2075 273.64 54.8992 270.326 54.7808 267.379C54.6623 264.431 61.7439 253.539 66.6979 253.545C71.652 253.552 84.3838 264.475 84.5023 267.423Z" fill="black" fill-opacity="0.23"/>
</g>
<path fill-rule="evenodd" clip-rule="evenodd" d="M61.4738 161.005C53.7206 184.568 69.548 187.611 79.0533 210.901C83.4081 221.572 56.913 249.945 57.8032 259.043C58.6255 267.421 78.228 271.712 84.3983 265.488C92.6702 257.142 106.818 226.657 107.442 208.968C107.927 195.257 96.5426 167.377 88.8804 159.383C82.8364 153.075 64.1215 152.962 61.4738 161.005Z" fill="#151C6C"/>
<mask id="mask4_2305_440" style="mask-type:luminance" maskUnits="userSpaceOnUse" x="57" y="154" width="51" height="115">
<path d="M61.4738 161.005C53.7206 184.568 69.548 187.611 79.0533 210.901C83.4081 221.572 56.913 249.945 57.8032 259.043C58.6255 267.421 78.228 271.712 84.3983 265.488C92.6702 257.142 106.818 226.657 107.442 208.968C107.927 195.257 96.5426 167.377 88.8804 159.383C82.8364 153.075 64.1215 152.962 61.4738 161.005Z" fill="white"/>
</mask>
<g mask="url(#mask4_2305_440)">
<path fill-rule="evenodd" clip-rule="evenodd" d="M61.6621 192.536C66.2738 198.542 75.4142 200.15 81.6617 204.744C88.0832 209.466 95.4768 214.359 100.185 220.862C105.093 227.642 107.751 247.604 111.116 245.428C114.481 243.251 121.058 218.014 120.373 207.811C119.779 198.965 112.91 191.231 107.003 184.218C99.525 175.34 85.1648 158.202 75.5041 154.543C66.9463 151.301 51.3412 155.924 49.0327 162.256C46.7243 168.588 56.2232 185.454 61.6621 192.536Z" fill="black" fill-opacity="0.2"/>
</g>
<path fill-rule="evenodd" clip-rule="evenodd" d="M90.3172 272.537C90.3091 272.572 90.2985 272.607 90.2854 272.64C90.2355 272.762 90.1787 272.882 90.115 272.998C89.7272 273.747 89.2314 274.443 88.789 275.165C88.6345 275.381 88.5097 275.613 88.4175 275.857C88.3764 275.98 88.374 276.11 88.4106 276.234C88.4471 276.358 88.5211 276.469 88.6239 276.556C88.7416 276.639 88.878 276.698 89.0234 276.727C89.1689 276.757 89.3196 276.756 89.4646 276.725C89.8872 276.63 90.2949 276.486 90.6778 276.296C91.6984 275.829 92.447 275.581 93.0008 275.481C93.4205 275.407 93.6924 275.415 93.8708 275.5C93.939 275.541 93.9962 275.596 94.0381 275.66C94.0801 275.725 94.1057 275.797 94.113 275.872C94.1456 276.002 94.2022 276.125 94.2803 276.238C94.3638 276.343 94.4854 276.418 94.6234 276.448C94.7623 276.479 94.9086 276.464 95.0365 276.405C95.1185 276.369 95.1891 276.314 95.2417 276.246C95.2943 276.178 95.3273 276.098 95.3375 276.015C95.3477 275.932 95.3348 275.848 95.3 275.771C95.2652 275.694 95.2097 275.626 95.1386 275.574C95.0496 275.225 94.828 274.916 94.5134 274.704C94.1569 274.497 93.7344 274.408 93.3155 274.452C92.6603 274.485 91.6775 274.735 90.1962 275.413C90.132 275.442 89.9596 275.504 89.7776 275.568C90.2193 274.854 90.704 274.163 91.0871 273.421C91.203 273.198 91.4749 272.616 91.4127 272.244C91.3953 272.082 91.3198 271.93 91.1982 271.812C91.0766 271.694 90.9157 271.616 90.7408 271.591C90.3802 271.532 90.0101 271.544 89.6549 271.626C89.1861 271.722 88.706 271.897 88.3365 272.007C86.7648 272.474 85.2607 273.109 83.7241 273.66C83.4795 273.747 82.8041 274.056 82.2262 274.161C82.1131 274.177 81.9986 274.184 81.8841 274.18C81.889 274.166 81.8977 274.15 81.9023 274.134C81.9249 274.054 81.9573 273.977 81.9989 273.904C82.1262 273.684 82.273 273.473 82.4377 273.275C83.2305 272.253 85.2074 270.48 86.5194 269.999C86.6497 269.949 86.7533 269.854 86.8079 269.735C86.8625 269.615 86.8638 269.481 86.8115 269.361C86.7592 269.24 86.6574 269.144 86.5282 269.091C86.3989 269.039 86.2525 269.036 86.1205 269.082C84.6609 269.616 82.4432 271.566 81.5616 272.701C81.3574 272.963 80.9732 273.458 80.8558 273.898C80.7727 274.167 80.8048 274.454 80.9455 274.702C81.1499 275.038 81.5478 275.203 82.0692 275.176C82.779 275.138 83.7882 274.696 84.1149 274.58C85.6313 274.035 87.1164 273.407 88.6678 272.947C88.9573 272.86 89.3195 272.73 89.687 272.637C89.8912 272.578 90.1032 272.544 90.3172 272.537Z" fill="black"/>
<path fill-rule="evenodd" clip-rule="evenodd" d="M129.71 260.324C135.543 268.604 129.01 275.038 134.676 275.255C141.113 275.503 167.733 265.285 168.334 261.805C169.65 254.186 153.923 260.733 149.706 259.235C146.699 258.166 146.251 252.632 143.033 252.808C139.698 252.989 126.928 256.375 129.71 260.324Z" fill="#98DED9"/>
<mask id="mask5_2305_440" style="mask-type:luminance" maskUnits="userSpaceOnUse" x="129" y="252" width="40" height="24">
<path d="M129.71 260.324C135.543 268.604 129.01 275.038 134.676 275.255C141.113 275.503 167.733 265.285 168.334 261.805C169.65 254.186 153.923 260.733 149.706 259.235C146.699 258.166 146.251 252.632 143.033 252.808C139.698 252.989 126.928 256.375 129.71 260.324Z" fill="white"/>
</mask>
<g mask="url(#mask5_2305_440)">
<path fill-rule="evenodd" clip-rule="evenodd" d="M151.68 257.093C153.122 259.73 141.823 261.575 137.856 267.073C135.122 270.864 126.065 271.016 124.623 268.379C123.181 265.743 124.693 253.136 129.202 251.254C133.712 249.372 150.238 254.458 151.68 257.093Z" fill="black" fill-opacity="0.23"/>
</g>
<path fill-rule="evenodd" clip-rule="evenodd" d="M72.3741 175.974C74.9358 193.452 94.5872 194.611 116.099 209.74C125.955 216.672 119.872 253.617 125.881 260.9C131.417 267.605 150.046 261.621 152.157 253.433C155.062 242.168 153 208.602 143.314 193.297C135.806 181.433 106.503 164.158 94.6797 161.272C85.8343 159.111 70.3727 162.312 72.3741 175.974Z" fill="#0369A1"/>
<path fill-rule="evenodd" clip-rule="evenodd" d="M159.361 257.252C159.373 257.285 159.383 257.32 159.39 257.355C159.414 257.484 159.43 257.613 159.44 257.743C159.517 258.569 159.472 259.4 159.487 260.227C159.473 260.486 159.493 260.744 159.548 260.998C159.58 261.122 159.65 261.236 159.749 261.326C159.849 261.416 159.974 261.477 160.11 261.505C160.258 261.522 160.408 261.51 160.55 261.468C160.692 261.426 160.821 261.355 160.929 261.261C161.242 260.983 161.514 260.67 161.74 260.329C162.364 259.453 162.874 258.892 163.297 258.549C163.619 258.291 163.857 258.172 164.058 258.162C164.14 258.166 164.22 258.187 164.291 258.223C164.363 258.259 164.425 258.31 164.472 258.371C164.572 258.468 164.689 258.549 164.818 258.609C164.948 258.662 165.094 258.67 165.23 258.632C165.367 258.594 165.485 258.513 165.563 258.403C165.614 258.334 165.644 258.254 165.652 258.171C165.66 258.088 165.645 258.004 165.608 257.928C165.571 257.851 165.514 257.785 165.442 257.734C165.369 257.684 165.284 257.651 165.194 257.639C164.925 257.379 164.563 257.215 164.175 257.177C163.753 257.164 163.34 257.283 163.002 257.515C162.455 257.847 161.744 258.518 160.838 259.79C160.799 259.845 160.685 259.977 160.562 260.117C160.551 259.297 160.589 258.475 160.512 257.658C160.488 257.411 160.402 256.783 160.144 256.49C160.04 256.359 159.892 256.263 159.722 256.217C159.552 256.172 159.37 256.179 159.205 256.238C158.862 256.355 158.549 256.537 158.287 256.772C157.936 257.072 157.617 257.446 157.359 257.711C156.259 258.843 155.311 260.087 154.287 261.275C154.123 261.463 153.711 262.043 153.27 262.402C153.181 262.468 153.086 262.527 152.985 262.577C152.982 262.562 152.981 262.544 152.976 262.528C152.952 262.449 152.938 262.367 152.933 262.285C152.922 262.036 152.932 261.786 152.965 261.538C153.088 260.29 153.818 257.843 154.686 256.82C154.772 256.717 154.809 256.586 154.791 256.458C154.772 256.329 154.699 256.212 154.588 256.132C154.476 256.053 154.335 256.016 154.194 256.031C154.054 256.046 153.926 256.112 153.837 256.213C152.871 257.351 152.03 260.061 151.893 261.449C151.861 261.77 151.802 262.375 151.943 262.809C152.019 263.08 152.205 263.313 152.463 263.462C152.824 263.657 153.259 263.616 153.694 263.35C154.285 262.988 154.913 262.14 155.131 261.888C156.141 260.715 157.077 259.485 158.163 258.369C158.365 258.16 158.606 257.88 158.873 257.629C159.016 257.483 159.18 257.356 159.361 257.252Z" fill="black"/>
<path fill-rule="evenodd" clip-rule="evenodd" d="M84.765 116.789C93.8052 117.882 96.07 143.11 104.299 146.734C112.528 150.358 128.658 139.885 134.138 138.535C134.872 138.354 134.98 135.452 136.145 133.941C137.23 132.537 138.176 133.653 137.309 137.032C137.093 137.876 139.085 134.914 140.155 134.285C143.044 132.585 145.902 138.974 136.093 144.198C129.935 147.477 110.833 160.355 100.908 159.046C90.9836 157.737 79.4656 143.301 76.5472 136.336C72.4815 126.636 79.5828 116.163 84.765 116.789Z" fill="#624A4A"/>
<path fill-rule="evenodd" clip-rule="evenodd" d="M91.4969 107.183C92.6181 108.009 88.3665 110.902 88.8514 112.935C89.4647 115.512 95.3606 119.444 95.1777 122.647C94.9948 125.85 90.5367 132.41 87.7572 132.147C84.9777 131.884 79.4362 125.091 78.4983 121.064C77.5605 117.036 79.9543 110.288 82.1214 107.974C84.1662 105.79 90.3742 106.356 91.4969 107.183Z" fill="#15141F"/>
<path fill-rule="evenodd" clip-rule="evenodd" d="M59.5999 162.755C61.8043 170.382 79.0666 167.123 85.1598 169.932C103.434 178.353 109.852 171.135 103.272 161.206C98.8278 154.496 96.905 149.512 95.0932 143.238C93.2368 136.809 92.8207 127.438 92.1337 122.634C91.0599 115.099 79.6747 113.822 71.9439 124.178C66.6704 131.24 57.3971 155.13 59.5999 162.755Z" fill="#98DED9"/>
<mask id="mask6_2305_440" style="mask-type:luminance" maskUnits="userSpaceOnUse" x="59" y="116" width="47" height="58">
<path d="M59.5999 162.755C61.8043 170.382 79.0666 167.123 85.1598 169.932C103.434 178.353 109.852 171.135 103.272 161.206C98.8278 154.496 96.905 149.512 95.0932 143.238C93.2368 136.809 92.8207 127.438 92.1337 122.634C91.0599 115.099 79.6747 113.822 71.9439 124.178C66.6704 131.24 57.3971 155.13 59.5999 162.755Z" fill="white"/>
</mask>
<g mask="url(#mask6_2305_440)">
<path fill-rule="evenodd" clip-rule="evenodd" d="M100.287 146.039V155.484C100.287 156.467 100.675 157.39 101.33 157.967C101.985 158.543 102.827 158.706 103.596 158.403C102.827 158.706 102.224 159.439 101.973 160.374C101.723 161.301 101.85 162.28 102.333 163.126L106.906 170.768L102.333 163.126C101.857 162.332 101.096 161.86 100.287 161.86C99.4777 161.86 98.7183 162.332 98.2426 163.126C98.7251 162.279 98.8526 161.3 98.6008 160.373C98.3514 159.438 97.7483 158.706 96.9777 158.402C97.7483 158.706 98.5908 158.543 99.2454 157.966C99.9001 157.389 100.287 156.466 100.287 155.483V146.039Z" fill="#56E6E6"/>
<path fill-rule="evenodd" clip-rule="evenodd" d="M84.3572 128.208C80.976 127.728 81.8604 138.178 83.3096 142.904C86.2298 152.427 94.2027 155.334 95.3992 160.076C96.3929 164.021 90.4899 168.521 90.4772 171.351C90.4682 173.764 92.7822 177.655 95.3293 177.059C100.111 175.943 117.79 169.862 119.167 164.651C120.545 159.441 109.261 151.72 103.595 145.786C97.7923 139.712 87.7386 128.689 84.3572 128.208Z" fill="black" fill-opacity="0.2"/>
<path fill-rule="evenodd" clip-rule="evenodd" d="M63.5934 146.951V155.252C63.5934 156.116 63.9347 156.928 64.5101 157.435C64.7604 157.677 65.085 157.843 65.4408 157.912C65.7967 157.981 66.1669 157.948 66.5021 157.819L73.0057 155.253L66.503 157.818C65.8269 158.085 65.2967 158.729 65.0763 159.55C64.8561 160.365 64.9685 161.225 65.3925 161.969C64.9739 161.271 64.3058 160.857 63.5943 160.857C62.8829 160.857 62.2155 161.271 61.7974 161.969C62.2216 161.225 62.3336 160.364 62.1123 159.55C61.8939 158.729 61.3632 158.085 60.6856 157.818L54.1816 155.252L60.6852 157.818C61.0207 157.947 61.3911 157.98 61.7471 157.911C62.1032 157.843 62.428 157.676 62.6785 157.434C63.254 156.927 63.5939 156.116 63.5939 155.252L63.5934 146.951Z" fill="#56E6E6"/>
<path fill-rule="evenodd" clip-rule="evenodd" d="M69.9254 134.013V142.314C69.9254 143.178 70.2667 143.99 70.842 144.497C71.0923 144.739 71.4169 144.905 71.7728 144.974C72.1287 145.042 72.4989 145.01 72.8342 144.881C72.1579 145.148 71.6279 145.791 71.4075 146.612C71.1872 147.427 71.2996 148.288 71.7234 149.031L75.7427 155.748L71.724 149.031C71.3054 148.333 70.6374 147.918 69.926 147.918C69.2145 147.918 68.5471 148.333 68.1291 149.031C68.5532 148.287 68.6652 147.426 68.444 146.612C68.2256 145.79 67.6947 145.147 67.0173 144.88C67.3527 145.009 67.7231 145.042 68.0791 144.973C68.4352 144.904 68.7601 144.738 69.0105 144.496C69.586 143.989 69.926 143.178 69.926 142.314L69.9254 134.013Z" fill="#56E6E6"/>
<path fill-rule="evenodd" clip-rule="evenodd" d="M76.5274 154.534C76.5274 155.743 77.0052 156.879 77.8105 157.588C78.6159 158.298 79.6522 158.498 80.5986 158.125C79.6522 158.498 78.9102 159.399 78.6018 160.548C78.2936 161.689 78.4509 162.893 79.0441 163.935C78.4592 162.958 77.5233 162.377 76.5274 162.377C75.5315 162.377 74.5982 162.958 74.0125 163.935C74.6061 162.893 74.7629 161.689 74.4531 160.548C74.1465 159.399 73.4045 158.498 72.4564 158.125C73.4045 158.498 74.4402 158.298 75.2461 157.588C76.052 156.879 76.5274 155.743 76.5274 154.534Z" fill="#56E6E6"/>
<path fill-rule="evenodd" clip-rule="evenodd" d="M82.4299 145.683C82.4299 146.547 82.7711 147.358 83.3466 147.866C83.5969 148.108 83.9215 148.274 84.2773 148.343C84.6332 148.411 85.0034 148.379 85.3386 148.25C84.6623 148.517 84.1323 149.16 83.9119 149.981C83.6917 150.796 83.8041 151.657 84.2281 152.401C83.8095 151.703 83.1413 151.288 82.4299 151.288C81.7185 151.288 81.0511 151.703 80.633 152.401C81.0572 151.657 81.1692 150.796 80.9479 149.981C80.7295 149.16 80.1986 148.516 79.5212 148.25C79.8566 148.379 80.227 148.411 80.5831 148.343C80.9391 148.274 81.264 148.108 81.5144 147.866C82.0899 147.358 82.4299 146.547 82.4299 145.683Z" fill="#56E6E6"/>
<path fill-rule="evenodd" clip-rule="evenodd" d="M78.0982 131.212V137.343C78.0897 137.639 78.1452 137.934 78.2614 138.21C78.3776 138.487 78.5522 138.74 78.7752 138.954C78.96 139.133 79.1997 139.256 79.4625 139.307C79.7253 139.357 79.9987 139.333 80.2463 139.238L85.0487 137.343L80.2461 139.238C79.7467 139.435 79.3543 139.91 79.1925 140.516C79.0298 141.118 79.1128 141.754 79.4258 142.303C79.1164 141.788 78.6234 141.482 78.0972 141.482C77.5711 141.482 77.0791 141.788 76.7703 142.303C77.0836 141.754 77.1664 141.118 77.0029 140.516C76.8411 139.91 76.4496 139.435 75.9493 139.238C76.197 139.333 76.4706 139.357 76.7335 139.306C76.9965 139.256 77.2364 139.133 77.4213 138.954C77.6441 138.739 77.8186 138.487 77.9346 138.21C78.0506 137.933 78.1059 137.639 78.0972 137.342L78.0982 131.212ZM87.8774 160.804C87.8689 161.101 87.9244 161.396 88.0406 161.672C88.1568 161.949 88.3314 162.201 88.5544 162.416C88.7392 162.595 88.9789 162.718 89.2416 162.768C89.5044 162.819 89.7778 162.795 90.0253 162.7C89.5261 162.897 89.1346 163.372 88.9719 163.978C88.8092 164.58 88.8922 165.216 89.2053 165.765C88.8959 165.25 88.4028 164.944 87.8767 164.944C87.3505 164.944 86.8585 165.25 86.5497 165.765C86.8631 165.216 86.9458 164.58 86.7823 163.978C86.6205 163.372 86.229 162.897 85.7287 162.7L80.9266 160.804L85.7294 162.7C85.9772 162.795 86.2507 162.819 86.5137 162.768C86.7766 162.718 87.0165 162.595 87.2014 162.416C87.4243 162.201 87.5987 161.949 87.7147 161.672C87.8307 161.395 87.886 161.101 87.8774 160.804Z" fill="#56E6E6"/>
<path fill-rule="evenodd" clip-rule="evenodd" d="M80.9093 115.035V123.382C80.9093 124.251 81.2524 125.067 81.831 125.577C82.0827 125.82 82.4092 125.987 82.767 126.056C83.1248 126.125 83.497 126.092 83.8341 125.962C83.1541 126.23 82.621 126.877 82.3995 127.703C82.1779 128.522 82.291 129.388 82.7173 130.136L86.7595 136.89L82.7191 130.136C82.2987 129.435 81.6271 129.017 80.9111 129.017C80.1951 129.017 79.5248 129.435 79.1044 130.136L75.06 136.89L79.1026 130.136C79.529 129.388 79.6417 128.523 79.4191 127.704C79.1989 126.878 78.6658 126.231 77.9846 125.963C78.3218 126.093 78.6942 126.125 79.0522 126.056C79.4102 125.988 79.7368 125.82 79.9888 125.577C80.5675 125.067 80.9093 124.251 80.9093 123.383V115.035Z" fill="#56E6E6"/>
<path fill-rule="evenodd" clip-rule="evenodd" d="M69.5256 117.442V128.354C69.5256 129.49 69.974 130.557 70.7306 131.223C71.4872 131.889 72.4596 132.078 73.349 131.727C72.4601 132.078 71.7633 132.923 71.4744 134.003C71.1848 135.074 71.3325 136.206 71.8897 137.183C71.3401 136.266 70.4612 135.721 69.5261 135.721C68.591 135.721 67.7136 136.266 67.1641 137.183C67.7216 136.206 67.8688 135.074 67.578 134.003C67.2899 132.923 66.593 132.078 65.7034 131.727L57.1543 128.354L65.7017 131.727C66.5921 132.078 67.5654 131.889 68.3225 131.223C69.0797 130.556 69.5259 129.49 69.5259 128.354L69.5256 117.442Z" fill="#56E6E6"/>
</g>
<path fill-rule="evenodd" clip-rule="evenodd" d="M185.806 80.4032C196.957 88.8276 198.394 104.154 189.014 114.608C179.633 125.062 162.964 126.709 151.813 118.285C140.662 109.86 139.226 94.533 148.606 84.0793C157.987 73.6256 174.656 71.9789 185.806 80.4032ZM181.557 85.1385C189.919 91.4564 190.998 102.952 183.963 110.792C176.928 118.632 164.425 119.868 156.062 113.55C147.7 107.232 146.622 95.7361 153.658 87.8955C160.693 80.0548 173.194 78.8198 181.557 85.1385Z" fill="#0369A1"/>
<path fill-rule="evenodd" clip-rule="evenodd" d="M158.642 116.554C158.643 116.554 158.643 116.553 158.644 116.552C158.644 116.551 158.644 116.55 158.644 116.549C158.643 116.547 158.643 116.546 158.641 116.544L155.498 114.17C155.086 113.858 154.611 113.624 154.1 113.481C153.589 113.338 153.052 113.288 152.52 113.336C151.989 113.383 151.472 113.526 151.001 113.756C150.529 113.987 150.112 114.3 149.772 114.679L131.232 135.34C130.547 136.104 130.22 137.087 130.324 138.072C130.428 139.058 130.954 139.965 131.787 140.594L134.3 142.493C134.384 142.556 134.48 142.603 134.583 142.632C134.687 142.661 134.796 142.671 134.903 142.662C135.011 142.652 135.115 142.623 135.211 142.576C135.306 142.529 135.391 142.466 135.459 142.389L158.642 116.554Z" fill="#0369A1"/>
<path fill-rule="evenodd" clip-rule="evenodd" d="M148.912 130.166C148.913 130.164 148.915 130.162 148.914 130.16C148.914 130.158 148.912 130.156 148.911 130.155L144.289 126.663C143.064 125.737 141.487 125.296 139.907 125.436C138.327 125.577 136.873 126.287 135.864 127.412L119.762 145.355C118.753 146.48 118.271 147.926 118.424 149.376C118.577 150.826 119.352 152.161 120.577 153.087L124.571 156.105C124.654 156.168 124.75 156.215 124.854 156.244C124.957 156.273 125.066 156.283 125.174 156.273C125.281 156.263 125.386 156.234 125.481 156.187C125.576 156.141 125.661 156.077 125.73 156.001L148.912 130.166Z" fill="#18BCBF"/>
<path fill-rule="evenodd" clip-rule="evenodd" d="M89.2967 119.499C98.4149 119.396 104.577 144.071 113.285 146.581C121.994 149.091 136.331 136.614 141.545 134.56C142.243 134.285 141.898 131.398 142.817 129.75C143.672 128.218 144.782 129.199 144.451 132.657C144.368 133.521 145.878 130.328 146.84 129.566C149.435 127.505 153.258 133.455 144.361 139.908C138.776 143.961 121.87 159.206 111.843 159.209C101.817 159.213 88.1721 146.433 84.2009 139.92C78.669 130.852 84.0698 119.556 89.2967 119.499ZM78.6888 103.42C79.2359 107.408 87.8653 112.789 90.7083 111.893C96.8235 109.971 93.2716 97.1429 91.3469 94.4108C89.4223 91.6786 81.277 94.0025 79.1677 95.5036C77.0583 97.0048 78.2924 100.518 78.6888 103.42Z" fill="#FFE3CA"/>
<path fill-rule="evenodd" clip-rule="evenodd" d="M85.9816 101.741C86.4748 100.219 87.7898 98.9286 89.187 97.9938C91.126 96.6968 96.6755 96.0878 97.6154 93.9614C98.5552 91.835 96.9948 87.0905 94.823 85.2318C92.6512 83.3731 86.7496 81.5401 84.5866 82.8123C82.4235 84.0845 83.4582 91.091 81.8456 92.8702C80.3642 94.5078 75.514 91.4285 74.9185 93.4881C74.0666 96.4358 79.7219 109.608 76.7283 110.566C73.7348 111.523 67.4922 97.9789 56.956 99.2297C39.7474 101.271 39.7529 117.206 41.6202 122.14C44.605 130.021 54.94 135.212 61.6584 134.92C68.3767 134.629 77.8715 125.925 81.927 120.397C85.7825 115.135 84.7727 105.474 85.9816 101.741Z" fill="#27253A"/>
</svg>
