<svg width="48" height="48" viewBox="0 0 48 48" fill="none" xmlns="http://www.w3.org/2000/svg">
<path d="M20 16V4C20 2.93913 19.5786 1.92172 18.8284 1.17157C18.0783 0.421427 17.0609 0 16 0L4 0C2.93913 0 1.92172 0.421427 1.17157 1.17157C0.421427 1.92172 0 2.93913 0 4L0 16C0 17.0609 0.421427 18.0783 1.17157 18.8284C1.92172 19.5786 2.93913 20 4 20H16C17.0609 20 18.0783 19.5786 18.8284 18.8284C19.5786 18.0783 20 17.0609 20 16ZM2 16V4C2 3.46957 2.21071 2.96086 2.58579 2.58579C2.96086 2.21071 3.46957 2 4 2H16C16.5304 2 17.0391 2.21071 17.4142 2.58579C17.7893 2.96086 18 3.46957 18 4V16C18 16.5304 17.7893 17.0391 17.4142 17.4142C17.0391 17.7893 16.5304 18 16 18H4C3.46957 18 2.96086 17.7893 2.58579 17.4142C2.21071 17.0391 2 16.5304 2 16ZM44 0H32C30.9391 0 29.9217 0.421427 29.1716 1.17157C28.4214 1.92172 28 2.93913 28 4V16C28 17.0609 28.4214 18.0783 29.1716 18.8284C29.9217 19.5786 30.9391 20 32 20H44C45.0609 20 46.0783 19.5786 46.8284 18.8284C47.5786 18.0783 48 17.0609 48 16V4C48 2.93913 47.5786 1.92172 46.8284 1.17157C46.0783 0.421427 45.0609 0 44 0ZM46 16C46 16.5304 45.7893 17.0391 45.4142 17.4142C45.0391 17.7893 44.5304 18 44 18H32C31.4696 18 30.9609 17.7893 30.5858 17.4142C30.2107 17.0391 30 16.5304 30 16V4C30 3.46957 30.2107 2.96086 30.5858 2.58579C30.9609 2.21071 31.4696 2 32 2H44C44.5304 2 45.0391 2.21071 45.4142 2.58579C45.7893 2.96086 46 3.46957 46 4V16ZM37.6 34.47C37.856 34.0146 37.9886 33.5003 37.9848 32.9779C37.9809 32.4555 37.8407 31.9432 37.5781 31.4916C37.3154 31.04 36.9394 30.6649 36.4872 30.4033C36.035 30.1416 35.5224 30.0026 35 30H27.33C28.25 26.78 29.63 24 26.11 21.33C25.8076 21.1058 25.4588 20.9525 25.0891 20.8814C24.7195 20.8103 24.3386 20.8233 23.9747 20.9193C23.6108 21.0153 23.2731 21.192 22.9867 21.4362C22.7002 21.6804 22.4724 21.9858 22.32 22.33C19 29.69 19.65 29 16.51 31.37C15.39 29.65 14.13 30 9 30C8.73478 30 8.48043 30.1054 8.29289 30.2929C8.10536 30.4804 8 30.7348 8 31V47C8 47.2652 8.10536 47.5196 8.29289 47.7071C8.48043 47.8946 8.73478 48 9 48H14C14.5117 47.9989 15.0147 47.8669 15.461 47.6166C15.9073 47.3664 16.2822 47.0061 16.55 46.57C19.41 48.48 19.41 48 34 48C34.5224 47.9974 35.035 47.8584 35.4872 47.5967C35.9394 47.3351 36.3154 46.96 36.5781 46.5084C36.8407 46.0568 36.9809 45.5445 36.9848 45.0221C36.9886 44.4997 36.856 43.9854 36.6 43.53C37.2463 43.1174 37.7101 42.4729 37.896 41.729C38.082 40.9851 37.9761 40.1982 37.6 39.53C38.0254 39.259 38.3755 38.885 38.6181 38.4428C38.8607 38.0006 38.9878 37.5044 38.9878 37C38.9878 36.4956 38.8607 35.9994 38.6181 35.5572C38.3755 35.115 38.0254 34.741 37.6 34.47ZM15 45C15 45.2652 14.8946 45.5196 14.7071 45.7071C14.5196 45.8946 14.2652 46 14 46H10V32H14C14.2652 32 14.5196 32.1054 14.7071 32.2929C14.8946 32.4804 15 32.7348 15 33V45ZM34 46C18.12 46 19.91 46.41 17 44.46V33.46C19.06 31.92 20.65 30.96 21.76 28.46C24.36 22.62 24.13 22.31 25.2 23.11C25.6843 23.4747 26.0467 23.9776 26.2395 24.5525C26.4323 25.1273 26.4464 25.747 26.28 26.33L25 30.73C24.9573 30.8817 24.9511 31.0413 24.9819 31.1959C25.0127 31.3504 25.0795 31.4955 25.177 31.6193C25.2745 31.7431 25.3998 31.8422 25.5429 31.9083C25.6859 31.9745 25.8425 32.0059 26 32H35C35.2652 32 35.5196 32.1054 35.7071 32.2929C35.8946 32.4804 36 32.7348 36 33C36 33.2652 35.8946 33.5196 35.7071 33.7071C35.5196 33.8946 35.2652 34 35 34H29C28.7348 34 28.4804 34.1054 28.2929 34.2929C28.1054 34.4804 28 34.7348 28 35C28 35.2652 28.1054 35.5196 28.2929 35.7071C28.4804 35.8946 28.7348 36 29 36H36C36.2652 36 36.5196 36.1054 36.7071 36.2929C36.8946 36.4804 37 36.7348 37 37C37 37.2652 36.8946 37.5196 36.7071 37.7071C36.5196 37.8946 36.2652 38 36 38H29C28.7348 38 28.4804 38.1054 28.2929 38.2929C28.1054 38.4804 28 38.7348 28 39C28 39.2652 28.1054 39.5196 28.2929 39.7071C28.4804 39.8946 28.7348 40 29 40H35C35.2652 40 35.5196 40.1054 35.7071 40.2929C35.8946 40.4804 36 40.7348 36 41C36 41.2652 35.8946 41.5196 35.7071 41.7071C35.5196 41.8946 35.2652 42 35 42H29C28.7348 42 28.4804 42.1054 28.2929 42.2929C28.1054 42.4804 28 42.7348 28 43C28 43.2652 28.1054 43.5196 28.2929 43.7071C28.4804 43.8946 28.7348 44 29 44H34C34.2652 44 34.5196 44.1054 34.7071 44.2929C34.8946 44.4804 35 44.7348 35 45C35 45.2652 34.8946 45.5196 34.7071 45.7071C34.5196 45.8946 34.2652 46 34 46Z" fill="#0369A1"/>
<path d="M10 5.99994C9.20888 5.99994 8.43552 6.23454 7.77772 6.67406C7.11992 7.11359 6.60723 7.7383 6.30448 8.46921C6.00173 9.20011 5.92252 10.0044 6.07686 10.7803C6.2312 11.5562 6.61216 12.269 7.17157 12.8284C7.73098 13.3878 8.44372 13.7687 9.21964 13.9231C9.99556 14.0774 10.7998 13.9982 11.5307 13.6955C12.2616 13.3927 12.8864 12.88 13.3259 12.2222C13.7654 11.5644 14 10.7911 14 9.99994C14 8.93908 13.5786 7.92166 12.8284 7.17151C12.0783 6.42137 11.0609 5.99994 10 5.99994ZM10 11.9999C9.60444 11.9999 9.21776 11.8826 8.88886 11.6629C8.55996 11.4431 8.30362 11.1308 8.15224 10.7653C8.00087 10.3999 7.96126 9.99772 8.03843 9.60976C8.1156 9.2218 8.30608 8.86543 8.58579 8.58573C8.86549 8.30602 9.22186 8.11554 9.60982 8.03837C9.99778 7.9612 10.3999 8.00081 10.7654 8.15218C11.1308 8.30356 11.4432 8.5599 11.6629 8.8888C11.8827 9.2177 12 9.60438 12 9.99994C12 10.5304 11.7893 11.0391 11.4142 11.4142C11.0391 11.7892 10.5304 11.9999 10 11.9999ZM15.71 4.28994C15.5217 4.10164 15.2663 3.99585 15 3.99585C14.7337 3.99585 14.4783 4.10164 14.29 4.28994C14.1017 4.47825 13.9959 4.73364 13.9959 4.99994C13.9959 5.26624 14.1017 5.52164 14.29 5.70994C14.3832 5.80318 14.4939 5.87714 14.6158 5.9276C14.7376 5.97806 14.8681 6.00403 15 6.00403C15.1319 6.00403 15.2624 5.97806 15.3843 5.9276C15.5061 5.87714 15.6168 5.80318 15.71 5.70994C15.8032 5.6167 15.8772 5.50601 15.9277 5.38419C15.9781 5.26237 16.0041 5.1318 16.0041 4.99994C16.0041 4.86808 15.9781 4.73751 15.9277 4.61569C15.8772 4.49387 15.8032 4.38318 15.71 4.28994ZM41 3.99994H40C38.9391 3.99994 37.9217 4.42137 37.1716 5.17151C36.4214 5.92166 36 6.93908 36 7.99994V8.99994H35C34.7348 8.99994 34.4804 9.1053 34.2929 9.29283C34.1054 9.48037 34 9.73472 34 9.99994C34 10.2652 34.1054 10.5195 34.2929 10.707C34.4804 10.8946 34.7348 10.9999 35 10.9999H36V14.9999C36 15.2652 36.1054 15.5195 36.2929 15.707C36.4804 15.8946 36.7348 15.9999 37 15.9999C37.2652 15.9999 37.5196 15.8946 37.7071 15.707C37.8946 15.5195 38 15.2652 38 14.9999V10.9999H40C40.2652 10.9999 40.5196 10.8946 40.7071 10.707C40.8946 10.5195 41 10.2652 41 9.99994C41 9.73472 40.8946 9.48037 40.7071 9.29283C40.5196 9.1053 40.2652 8.99994 40 8.99994H38V7.99994C38 7.46951 38.2107 6.9608 38.5858 6.58573C38.9609 6.21065 39.4696 5.99994 40 5.99994H41C41.2652 5.99994 41.5196 5.89458 41.7071 5.70705C41.8946 5.51951 42 5.26516 42 4.99994C42 4.73472 41.8946 4.48037 41.7071 4.29283C41.5196 4.1053 41.2652 3.99994 41 3.99994Z" fill="#0369A1"/>
</svg>
