<svg width="60" height="60" viewBox="0 0 60 60" fill="none" xmlns="http://www.w3.org/2000/svg">
<path d="M8.72207 37.1382C7.41213 37.1381 6.13159 37.5265 5.04237 38.2542C3.95316 38.9819 3.1042 40.0162 2.60287 41.2264C2.10153 42.4366 1.97034 43.7683 2.22587 45.0531C2.48141 46.3379 3.11219 47.518 4.03846 48.4443C4.96473 49.3706 6.14487 50.0014 7.42964 50.2569C8.71442 50.5124 10.0461 50.3812 11.2563 49.8799C12.4665 49.3786 13.5009 48.5296 14.2286 47.4404C14.9563 46.3512 15.3447 45.0706 15.3446 43.7607C15.3426 42.0049 14.6442 40.3216 13.4027 39.0801C12.1612 37.8385 10.4779 37.1402 8.72207 37.1382ZM8.72207 49.4462C7.59757 49.4462 6.4983 49.1129 5.56327 48.4882C4.62824 47.8635 3.89944 46.9756 3.46905 45.9367C3.03866 44.8979 2.926 43.7547 3.14532 42.6518C3.36465 41.5489 3.9061 40.5358 4.70121 39.7406C5.49631 38.9454 6.50937 38.4039 7.61225 38.1845C8.71514 37.9651 9.85832 38.0776 10.8972 38.508C11.9361 38.9383 12.8241 39.667 13.4489 40.602C14.0736 41.5369 14.4071 42.6362 14.4071 43.7607C14.4055 45.268 13.806 46.7131 12.7402 47.779C11.6744 48.8448 10.2294 49.4444 8.72207 49.4462Z" fill="#0369A1"/>
<path d="M10.4338 39.8544C10.2351 39.7704 10.0214 39.7272 9.80566 39.7274H9.28113C8.85362 39.7279 8.44377 39.8979 8.14147 40.2002C7.83918 40.5025 7.66913 40.9124 7.66863 41.3399V42.5671H7.19285C7.06853 42.5671 6.9493 42.6165 6.8614 42.7044C6.77349 42.7923 6.7241 42.9115 6.7241 43.0358C6.7241 43.1601 6.77349 43.2794 6.8614 43.3673C6.9493 43.4552 7.06853 43.5046 7.19285 43.5046H7.67051V47.3249C7.67051 47.4492 7.71989 47.5684 7.8078 47.6563C7.89571 47.7442 8.01494 47.7936 8.13926 47.7936C8.26358 47.7936 8.38281 47.7442 8.47071 47.6563C8.55862 47.5684 8.60801 47.4492 8.60801 47.3249V43.5046H9.71145C9.83577 43.5046 9.95499 43.4552 10.0429 43.3673C10.1308 43.2794 10.1802 43.1601 10.1802 43.0358C10.1802 42.9115 10.1308 42.7923 10.0429 42.7044C9.95499 42.6165 9.83577 42.5671 9.71145 42.5671H8.60801V41.3399C8.60826 41.1609 8.67945 40.9894 8.80598 40.8629C8.93252 40.7363 9.10406 40.6651 9.28301 40.6649H9.80566C9.89584 40.6646 9.98513 40.6827 10.0682 40.7178C10.1827 40.7663 10.3117 40.7673 10.427 40.7207C10.5422 40.674 10.6342 40.5834 10.6827 40.4689C10.7312 40.3544 10.7322 40.2254 10.6855 40.1101C10.6388 39.9949 10.5483 39.9029 10.4338 39.8544ZM10.1586 20.6844C11.4686 20.6845 12.7492 20.2961 13.8384 19.5684C14.9276 18.8407 15.7766 17.8063 16.2779 16.5961C16.7792 15.3858 16.9104 14.0541 16.6548 12.7693C16.3992 11.4845 15.7684 10.3044 14.8421 9.37814C13.9158 8.45189 12.7356 7.82114 11.4508 7.56566C10.166 7.31018 8.83426 7.44144 7.62406 7.94285C6.41386 8.44425 5.37953 9.29328 4.65188 10.3826C3.92423 11.4718 3.53595 12.7524 3.53613 14.0624C3.53837 15.8181 4.23682 17.5012 5.47831 18.7426C6.7198 19.984 8.40297 20.6823 10.1586 20.6844ZM10.1586 8.37598C11.2831 8.37589 12.3823 8.70923 13.3173 9.33386C14.2524 9.95849 14.9811 10.8464 15.4116 11.8852C15.842 12.924 15.9547 14.0671 15.7355 15.17C15.5162 16.2729 14.9748 17.286 14.1798 18.0812C13.3848 18.8764 12.3719 19.418 11.269 19.6375C10.1662 19.857 9.02305 19.7446 7.98412 19.3144C6.9452 18.8843 6.05716 18.1557 5.4323 17.2209C4.80743 16.286 4.47382 15.1868 4.47363 14.0624C4.47512 12.555 5.07451 11.1097 6.14029 10.0436C7.20607 8.97758 8.65121 8.37784 10.1586 8.37598Z" fill="#0369A1"/>
<path d="M7.64035 17.7052H12.6775C13.0614 17.7048 13.4295 17.5521 13.701 17.2806C13.9725 17.0092 14.1251 16.6411 14.1255 16.2572V11.8659C14.1251 11.482 13.9725 11.1139 13.701 10.8425C13.4295 10.571 13.0614 10.4183 12.6775 10.418H7.64035C7.25648 10.4185 6.88847 10.5712 6.61703 10.8426C6.34559 11.1141 6.19288 11.4821 6.19238 11.8659V16.2572C6.19288 16.6411 6.34559 17.0091 6.61703 17.2805C6.88847 17.5519 7.25648 17.7047 7.64035 17.7052ZM7.12941 11.8659C7.12966 11.7305 7.18359 11.6008 7.27937 11.5051C7.37515 11.4094 7.50496 11.3556 7.64035 11.3555H12.6775C12.8129 11.3556 12.9427 11.4094 13.0384 11.5051C13.1341 11.6008 13.1879 11.7306 13.188 11.8659V16.2572C13.1879 16.3925 13.1341 16.5223 13.0384 16.618C12.9427 16.7137 12.8129 16.7675 12.6775 16.7677H7.64035C7.505 16.7675 7.37524 16.7137 7.27953 16.618C7.18383 16.5223 7.13001 16.3925 7.12988 16.2572L7.12941 11.8659Z" fill="#0369A1"/>
<path d="M10.1588 16.2604C10.564 16.2605 10.9602 16.1404 11.2972 15.9153C11.6342 15.6903 11.8969 15.3703 12.0521 14.9959C12.2072 14.6215 12.2479 14.2096 12.1689 13.8121C12.0898 13.4146 11.8947 13.0495 11.6082 12.7629C11.3217 12.4763 10.9566 12.2811 10.5592 12.202C10.1617 12.1229 9.7497 12.1635 9.37528 12.3185C9.00087 12.4736 8.68084 12.7362 8.45569 13.0731C8.23053 13.4101 8.11035 13.8062 8.11035 14.2115C8.11097 14.7546 8.32697 15.2754 8.71098 15.6594C9.09499 16.0435 9.61566 16.2597 10.1588 16.2604ZM10.1588 13.1001C10.3786 13.1 10.5935 13.1651 10.7764 13.2872C10.9592 13.4092 11.1017 13.5828 11.1859 13.7859C11.2701 13.9889 11.2922 14.2124 11.2494 14.428C11.2065 14.6437 11.1007 14.8417 10.9453 14.9972C10.7899 15.1527 10.5919 15.2586 10.3763 15.3015C10.1607 15.3444 9.93716 15.3225 9.73405 15.2384C9.53094 15.1542 9.35733 15.0118 9.23519 14.829C9.11305 14.6462 9.04785 14.4313 9.04785 14.2115C9.04822 13.9169 9.16537 13.6345 9.37362 13.4262C9.58187 13.2179 9.86422 13.1006 10.1588 13.1001Z" fill="#0369A1"/>
<path d="M12.3736 12.4874C12.5476 12.4874 12.6886 12.3464 12.6886 12.1724C12.6886 11.9985 12.5476 11.8574 12.3736 11.8574C12.1996 11.8574 12.0586 11.9985 12.0586 12.1724C12.0586 12.3464 12.1996 12.4874 12.3736 12.4874Z" fill="#0369A1"/>
<path d="M57.6561 30.8906C57.6575 29.6006 57.2822 28.3382 56.5762 27.2586C55.8702 26.1789 54.8642 25.3289 53.6819 24.813C52.4995 24.2971 51.1922 24.1377 49.9205 24.3544C48.6488 24.5711 47.4681 25.1545 46.5234 26.0329C45.5786 26.9113 44.911 28.0465 44.6024 29.2991C44.2938 30.5517 44.3578 31.8671 44.7864 33.0838C45.2151 34.3006 45.9897 35.3656 47.0152 36.1482C48.0408 36.9308 49.2725 37.3969 50.5592 37.4892C50.5491 37.7727 50.495 38.0529 50.3989 38.3198L51.275 38.6536C51.4138 38.2804 51.4912 37.8872 51.5042 37.4892C53.1734 37.3695 54.7355 36.6227 55.8766 35.3986C57.0178 34.1746 57.6535 32.5641 57.6561 30.8906ZM51.0317 36.5742C49.9072 36.5739 48.8081 36.2402 47.8732 35.6152C46.9384 34.9902 46.2099 34.1021 45.7799 33.0631C45.3498 32.0241 45.2375 30.8808 45.4572 29.778C45.6769 28.6752 46.2187 27.6623 47.014 26.8674C47.8094 26.0724 48.8227 25.5312 49.9256 25.3122C51.0286 25.0931 52.1717 25.2061 53.2105 25.6367C54.2492 26.0674 55.137 26.7964 55.7614 27.7316C56.3859 28.6668 56.719 29.7661 56.7186 30.8906C56.7165 32.3979 56.1165 33.8428 55.0504 34.9084C53.9843 35.9739 52.539 36.573 51.0317 36.5742Z" fill="#0369A1"/>
<path d="M55.2787 28.4418C55.2399 28.4046 55.1955 28.3739 55.147 28.3508C55.1859 28.2574 55.1938 28.1539 55.1696 28.0557C55.1453 27.9574 55.0903 27.8694 55.0124 27.8047C54.9281 27.7343 54.8213 27.6966 54.7115 27.6984C54.6017 27.7002 54.4962 27.7414 54.4143 27.8146C54.234 27.9067 54.0458 27.9822 53.8518 28.0401C53.5628 27.8129 53.2175 27.6686 52.8528 27.6226C52.4881 27.5767 52.1178 27.6308 51.7814 27.7792C51.4451 27.9276 51.1555 28.1646 50.9436 28.465C50.7317 28.7653 50.6055 29.1177 50.5785 29.4843C49.6123 29.3485 48.736 28.8447 48.1326 28.078C48.0886 28.0204 48.0318 27.9738 47.9667 27.9418C47.9017 27.9099 47.8301 27.8934 47.7576 27.8938C47.6848 27.8938 47.613 27.9108 47.5479 27.9433C47.4829 27.9758 47.4262 28.0231 47.3826 28.0813C47.2181 28.3525 47.1149 28.6564 47.08 28.9717C47.0451 29.2869 47.0794 29.606 47.1805 29.9066C47.1303 29.9493 47.0897 30.0021 47.0613 30.0615C47.0328 30.121 47.0173 30.1858 47.0155 30.2516C47.0091 30.8185 47.2262 31.3652 47.6198 31.7732C47.5917 31.8741 47.5979 31.9814 47.6376 32.0783C47.7674 32.4748 48.0157 32.8218 48.3491 33.0726C47.9959 33.1834 47.6242 33.223 47.2555 33.1888C47.1513 33.179 47.0467 33.2045 46.9586 33.261C46.8704 33.3176 46.8038 33.4021 46.7692 33.501C46.7347 33.5999 46.7343 33.7075 46.7681 33.8066C46.8018 33.9058 46.8678 33.9908 46.9555 34.048C47.7328 34.5353 48.6221 34.8147 49.5384 34.8594C49.6953 34.8597 49.852 34.848 50.0071 34.8243C50.9805 34.7392 51.9108 34.3834 52.6926 33.7972C53.5644 33.1028 54.1768 32.135 54.4312 31.0499C54.4882 30.808 54.529 30.5627 54.5535 30.3154C54.5657 30.1919 54.5744 30.0685 54.5798 29.9451C54.5798 29.9296 54.5798 29.8982 54.5798 29.8588C54.8542 29.6205 55.1022 29.3533 55.3195 29.0619C55.3873 28.9705 55.4204 28.858 55.413 28.7444C55.4055 28.6308 55.3579 28.5235 55.2787 28.4418ZM53.6484 29.9033C53.6441 30.0093 53.6362 30.1152 53.6259 30.2207C53.6055 30.4258 53.5715 30.6294 53.5241 30.8301C53.3199 31.7156 52.8195 32.5049 52.1057 33.0674C51.4517 33.5455 50.6774 33.8319 49.8698 33.8947C49.5588 33.9363 49.2429 33.9222 48.937 33.853C49.2408 33.7341 49.5267 33.5735 49.7863 33.3758C49.8556 33.3192 49.9073 33.244 49.9352 33.159C49.9631 33.074 49.966 32.9827 49.9438 32.8961C49.9215 32.8094 49.8749 32.731 49.8094 32.67C49.744 32.6089 49.6625 32.5679 49.5745 32.5518C49.3144 32.5218 49.0661 32.4267 48.8526 32.2752C48.9133 32.2485 48.9676 32.2093 49.012 32.16C49.0565 32.1108 49.0899 32.0527 49.1102 31.9895C49.1305 31.9264 49.1372 31.8597 49.1298 31.7938C49.1224 31.7279 49.1011 31.6643 49.0673 31.6072L49.0415 31.5637C49.0094 31.5094 48.9667 31.4622 48.916 31.4248C48.8652 31.3875 48.8075 31.3607 48.7462 31.3462C48.6236 31.3205 48.5073 31.2709 48.404 31.2001C48.3007 31.1293 48.2124 31.0387 48.1443 30.9337C48.2372 30.9286 48.3265 30.8961 48.4008 30.8401C48.4751 30.7842 48.5311 30.7074 48.5617 30.6196C48.5923 30.5317 48.596 30.4368 48.5724 30.3468C48.5488 30.2568 48.499 30.1759 48.4293 30.1143C48.3094 30.0147 48.2107 29.8923 48.1387 29.7541C48.0667 29.6159 48.0231 29.4647 48.0102 29.3094C48.8728 30.0287 49.9522 30.437 51.0749 30.4687C51.147 30.4728 51.219 30.459 51.2844 30.4284C51.3499 30.3979 51.4067 30.3517 51.4499 30.2938C51.4951 30.2378 51.5267 30.1721 51.5424 30.1019C51.5581 30.0316 51.5574 29.9587 51.5404 29.8888C51.5199 29.8049 51.5097 29.7188 51.5099 29.6324C51.5103 29.3433 51.6253 29.0661 51.8296 28.8617C52.034 28.6572 52.3111 28.5421 52.6002 28.5416C52.7498 28.5409 52.8979 28.5712 53.0351 28.6308C53.1722 28.6903 53.2955 28.7778 53.3971 28.8876C53.4336 28.9271 53.4768 28.9599 53.5246 28.9846C53.5008 29.0928 53.5161 29.2058 53.5677 29.3038C53.5976 29.3612 53.6393 29.4117 53.6901 29.4519C53.6442 29.5977 53.63 29.7516 53.6484 29.9033ZM44.5785 15.7785C45.6315 15.7788 46.661 15.4668 47.5366 14.882C48.4123 14.2972 49.095 13.4659 49.4982 12.4932C49.9014 11.5204 50.0071 10.45 49.802 9.41714C49.5968 8.38432 49.09 7.43553 48.3456 6.69075C47.6012 5.94597 46.6527 5.43865 45.62 5.23295C44.5873 5.02725 43.5167 5.1324 42.5438 5.53511C41.5708 5.93781 40.7392 6.61999 40.1539 7.49538C39.5687 8.37076 39.2561 9.40003 39.2559 10.453C39.257 11.8646 39.818 13.2181 40.8159 14.2165C41.8138 15.2149 43.1669 15.7766 44.5785 15.7785ZM44.5785 6.06834C45.4462 6.06806 46.2945 6.32514 47.0161 6.80706C47.7377 7.28897 48.3002 7.97407 48.6323 8.7757C48.9645 9.57732 49.0515 10.4595 48.8822 11.3105C48.713 12.1616 48.2951 12.9433 47.6815 13.5568C47.0679 14.1704 46.2861 14.5881 45.4351 14.7573C44.584 14.9265 43.7019 14.8394 42.9003 14.5072C42.0987 14.1749 41.4137 13.6124 40.9318 12.8907C40.45 12.1691 40.193 11.3207 40.1934 10.453C40.1952 9.29063 40.6578 8.17637 41.4798 7.35448C42.3018 6.53258 43.4161 6.07008 44.5785 6.06834Z" fill="#0369A1"/>
<path d="M43.7644 13.5047C43.79 13.5113 43.8162 13.5155 43.8426 13.5174C43.8689 13.5174 43.897 13.5226 43.9256 13.5268C43.9219 13.5437 43.9181 13.5601 43.9139 13.5737C43.9074 13.5978 43.9027 13.6224 43.8998 13.6472L43.8722 13.8962C43.8638 13.999 43.8812 14.1023 43.9227 14.1968C43.9642 14.2913 44.0285 14.3741 44.1098 14.4376C44.2136 14.514 44.3396 14.5542 44.4684 14.5519C44.5773 14.55 44.6849 14.5286 44.7862 14.4887C45.7988 13.9622 46.7346 13.2998 47.5678 12.5199C48.7936 11.1882 48.9169 9.72006 47.9353 8.41694C47.8931 8.3499 46.8647 6.77959 44.1323 6.98537C44.1211 6.98537 44.0756 6.99287 44.0644 6.99475C43.3955 7.09506 41.1764 7.59475 40.7189 9.83022C40.7151 9.85881 40.2853 12.6394 43.7644 13.5047ZM41.6409 10.0032C41.9648 8.42303 43.5417 8.02131 44.2045 7.92194L44.2223 7.91865C46.3514 7.76537 47.1159 8.87584 47.1661 8.9499C47.8964 9.92209 47.8027 10.8821 46.8787 11.8857C46.2741 12.4559 45.6049 12.9535 44.8847 13.3683C44.8863 13.2741 44.8726 13.1803 44.8444 13.0904C44.7253 12.7327 44.3039 12.6179 43.9537 12.5865C41.377 11.9269 41.6325 10.0632 41.6409 10.0032Z" fill="#0369A1"/>
<path d="M43.2109 10.7109C43.2944 10.7109 43.3759 10.6862 43.4453 10.6398C43.5147 10.5935 43.5688 10.5276 43.6007 10.4505C43.6326 10.3734 43.641 10.2886 43.6247 10.2068C43.6084 10.1249 43.5683 10.0498 43.5093 9.99075C43.4503 9.93175 43.3751 9.89157 43.2932 9.87529C43.2114 9.85902 43.1266 9.86737 43.0495 9.8993C42.9724 9.93123 42.9065 9.9853 42.8602 10.0547C42.8138 10.1241 42.7891 10.2056 42.7891 10.2891C42.7888 10.3446 42.7995 10.3995 42.8206 10.4509C42.8416 10.5022 42.8727 10.5488 42.9119 10.5881C42.9512 10.6273 42.9978 10.6584 43.0491 10.6795C43.1005 10.7005 43.1555 10.7112 43.2109 10.7109ZM44.837 10.7109C44.9206 10.7114 45.0024 10.6871 45.0721 10.641C45.1417 10.5949 45.1962 10.5292 45.2285 10.4521C45.2608 10.3751 45.2694 10.2902 45.2534 10.2082C45.2374 10.1262 45.1974 10.0508 45.1385 9.99159C45.0796 9.93236 45.0045 9.89194 44.9226 9.87547C44.8407 9.859 44.7557 9.86722 44.6785 9.89908C44.6013 9.93094 44.5352 9.98501 44.4888 10.0544C44.4423 10.1239 44.4175 10.2055 44.4175 10.2891C44.4172 10.3444 44.4278 10.3992 44.4488 10.4503C44.4697 10.5015 44.5006 10.548 44.5396 10.5872C44.5785 10.6264 44.6249 10.6576 44.6759 10.6788C44.727 10.7 44.7817 10.7109 44.837 10.7109Z" fill="#0369A1"/>
<path d="M46.4625 10.7109C46.6942 10.7109 46.882 10.5231 46.882 10.2914C46.882 10.0597 46.6942 9.87183 46.4625 9.87183C46.2308 9.87183 46.043 10.0597 46.043 10.2914C46.043 10.5231 46.2308 10.7109 46.4625 10.7109Z" fill="#0369A1"/>
<path d="M19.3459 52.8161L18.1113 53.3179L18.4643 54.1864L19.6989 53.6846L19.3459 52.8161Z" fill="#0369A1"/>
<path d="M9.91063 54.1712C10.339 54.4558 10.8063 54.6768 11.2981 54.8274L11.5794 53.9326C11.1743 53.8094 10.7895 53.6276 10.437 53.393L9.91063 54.1712ZM12.8619 54.1908L12.7653 55.1232C13.115 55.1586 13.4662 55.1761 13.8177 55.1757C13.9527 55.1757 14.0913 55.1732 14.2334 55.1682L14.2006 54.2307C13.754 54.2487 13.3066 54.2354 12.8619 54.1908ZM16.557 53.9504C16.213 54.016 15.8759 54.0713 15.5553 54.114L15.6795 55.0435C16.032 54.9966 16.4023 54.9352 16.7797 54.8621C16.8097 54.8564 16.839 54.8477 16.8673 54.8363L17.1617 54.7163L16.8088 53.8482L16.557 53.9504ZM8.1875 51.5504C8.26647 52.0962 8.47387 52.6154 8.79266 53.0654L9.5675 52.5371C9.3405 52.2153 9.18792 51.847 9.12078 51.459L8.1875 51.5504ZM18.0139 12.2912C18.3121 12.2918 18.6098 12.3148 18.9045 12.3601L19.0452 11.4333C18.7039 11.3811 18.3592 11.3544 18.0139 11.3537C17.847 11.352 17.6802 11.36 17.5142 11.3776L17.6267 12.3085C17.7554 12.2956 17.8846 12.2899 18.0139 12.2912ZM23.6188 17.843L24.5483 17.7188C24.4849 17.2331 24.3882 16.7523 24.2591 16.2797L23.3553 16.5296C23.473 16.9609 23.5611 17.3997 23.6188 17.843ZM21.837 12.5583C21.4258 12.2583 20.9782 12.0116 20.5048 11.8243L20.1584 12.6962C20.5573 12.8531 20.9346 13.0602 21.2811 13.3126L21.837 12.5583ZM23.7406 14.8866C23.5222 14.4321 23.2528 14.0039 22.9377 13.6102L22.2078 14.199C22.4784 14.5371 22.7095 14.9049 22.8969 15.2954L23.7406 14.8866ZM39.1873 11.2224L39.0805 10.2905C38.667 10.3374 38.2691 10.4035 37.8983 10.4841L38.0984 11.4005C38.4582 11.3228 38.8216 11.2633 39.1873 11.2224ZM34.768 13.2572L34.0311 12.6807C33.7118 13.0896 33.4587 13.5461 33.2811 14.0335L34.1619 14.3551C34.3051 13.9596 34.5097 13.5892 34.768 13.2572ZM36.8277 11.7826L36.4784 10.9126C36.0089 11.0981 35.5624 11.3372 35.1477 11.6251L35.6862 12.3924C36.0419 12.1458 36.425 11.9412 36.8277 11.7826ZM33.9669 16.8615C33.9104 16.5715 33.8834 16.2766 33.8863 15.9812C33.8863 15.8626 33.89 15.7351 33.8998 15.601L32.9652 15.5321C32.9534 15.6905 32.9488 15.841 32.9488 15.9812C32.9452 16.3482 32.9804 16.7146 33.0538 17.0743L33.9669 16.8615ZM48.6875 39.9985L49.0986 40.8423C49.566 40.6205 49.997 40.3291 50.3769 39.9779L49.7342 39.2963C49.423 39.5821 49.07 39.8189 48.6875 39.9985ZM46.1281 40.7288L46.2655 41.6565C46.749 41.5863 47.2279 41.4869 47.6994 41.3588L47.45 40.4551C47.0154 40.5733 46.5739 40.6647 46.1281 40.7288ZM29.6539 29.2866C28.5496 29.2866 27.4701 29.6141 26.552 30.2276C25.6338 30.8411 24.9182 31.7131 24.4956 32.7334C24.073 33.7536 23.9625 34.8763 24.1779 35.9593C24.3934 37.0424 24.9252 38.0372 25.7061 38.818C26.487 39.5989 27.4819 40.1306 28.5649 40.346C29.648 40.5613 30.7707 40.4507 31.7909 40.0281C32.8111 39.6054 33.683 38.8897 34.2965 37.9715C34.9099 37.0532 35.2373 35.9737 35.2372 34.8694C35.2354 33.3892 34.6466 31.9702 33.5999 30.9235C32.5532 29.8769 31.1341 29.2882 29.6539 29.2866ZM33.2286 31.9065C32.6362 32.0681 32.0334 32.1884 31.4244 32.2665C31.1846 31.5568 30.835 30.8892 30.3884 30.2879C31.5001 30.4651 32.5095 31.0403 33.2286 31.9065ZM29.5831 39.1252C29.179 38.5993 28.8624 38.0116 28.6456 37.3847C29.2701 37.3468 29.8963 37.3478 30.5206 37.3876C30.3035 38.0137 29.987 38.6007 29.5831 39.1262V39.1252ZM28.3869 36.4533C28.3139 36.1009 28.2669 35.7435 28.2463 35.3841H30.9181C30.8977 35.7443 30.8507 36.1025 30.7775 36.4557C29.9818 36.3945 29.1826 36.3942 28.3869 36.4547V36.4533ZM30.4611 32.3527C29.8761 32.3867 29.2897 32.3867 28.7047 32.3527C28.9175 31.7849 29.2135 31.2519 29.5831 30.7712C29.9529 31.2522 30.2488 31.7858 30.4611 32.3541V32.3527ZM29.5625 33.3296C29.9427 33.3296 30.3392 33.3141 30.7475 33.2827C30.835 33.6656 30.8919 34.0548 30.9177 34.4466H28.2495C28.2748 34.0562 28.3313 33.6684 28.4183 33.2869C28.7811 33.3141 29.1617 33.331 29.5625 33.331V33.3296ZM27.3125 34.4466H25.0311C25.0834 33.8738 25.2424 33.3157 25.4998 32.8013C26.1522 32.9767 26.8158 33.1076 27.4859 33.1932C27.397 33.6065 27.3398 34.026 27.3148 34.448L27.3125 34.4466ZM27.3092 35.3841C27.3286 35.7755 27.3756 36.1651 27.4498 36.5499C26.792 36.635 26.1406 36.7637 25.4998 36.9352C25.2555 36.4496 25.0995 35.9244 25.0391 35.3841H27.3092ZM31.8528 35.3841H34.2669C34.2035 35.9546 34.034 36.5082 33.7672 37.0163C33.0951 36.8147 32.409 36.663 31.7145 36.5626C31.7896 36.1741 31.8366 35.7807 31.8552 35.3855L31.8528 35.3841ZM31.85 34.4466C31.8246 34.0209 31.7666 33.5978 31.6766 33.181C32.3847 33.0823 33.0844 32.93 33.7695 32.7254C34.0495 33.2604 34.2215 33.8452 34.2758 34.4466H31.85ZM28.7595 30.3108C28.32 30.9068 27.9756 31.5673 27.7386 32.2688C27.1637 32.2007 26.5933 32.0996 26.03 31.966C26.7165 31.1091 27.6844 30.5232 28.7619 30.3123L28.7595 30.3108ZM26.0323 37.7719C26.5791 37.6425 27.1326 37.5436 27.6903 37.4757C27.9073 38.1591 28.224 38.8067 28.6302 39.3976C27.6054 39.1648 26.6897 38.5918 26.0323 37.7719ZM30.5127 39.4323C30.9299 38.8331 31.2545 38.1744 31.4755 37.4785C32.067 37.5571 32.6525 37.6755 33.2281 37.8329C32.5371 38.6663 31.5766 39.232 30.5127 39.4323ZM31.8955 49.1912H27.5863C27.2817 49.1912 26.9896 49.3121 26.7742 49.5275C26.5588 49.7429 26.4378 50.035 26.4378 50.3396C26.4378 50.6442 26.5588 50.9363 26.7742 51.1517C26.9896 51.367 27.2817 51.488 27.5863 51.488H31.8955C32.2001 51.488 32.4922 51.367 32.7075 51.1517C32.9229 50.9363 33.0439 50.6442 33.0439 50.3396C33.0439 50.035 32.9229 49.7429 32.7075 49.5275C32.4922 49.3121 32.2001 49.1912 31.8955 49.1912ZM31.8955 50.5505H27.5863C27.5305 50.5504 27.4771 50.5282 27.4377 50.4887C27.3984 50.4493 27.3762 50.3958 27.3763 50.3401C27.377 50.2846 27.3993 50.2316 27.4386 50.1924C27.4778 50.1531 27.5308 50.1308 27.5863 50.1301H31.8955C31.9509 50.1309 32.0037 50.1533 32.0429 50.1925C32.082 50.2318 32.1043 50.2847 32.105 50.3401C32.1048 50.3955 32.0826 50.4486 32.0433 50.4878C32.0041 50.527 31.9509 50.549 31.8955 50.5491V50.5505Z" fill="#0369A1"/>
<path d="M46.0379 51.9014C45.9985 51.7805 45.8921 51.503 45.766 51.1758C45.5888 50.7169 45.263 49.8731 45.2185 49.6632C45.2241 48.8307 45.2654 47.9794 45.3015 47.1553C45.3999 45.6608 45.4082 44.1617 45.3263 42.6661C45.1642 41.1445 44.8144 39.6487 44.2848 38.213L43.5099 35.8177C43.397 35.4673 43.3389 35.1016 43.3379 34.7335V28.403C43.3379 28.3409 43.3256 28.2795 43.3016 28.2222C43.2777 28.1649 43.2426 28.113 43.1984 28.0694C43.1543 28.0258 43.1019 27.9914 43.0443 27.9682C42.9867 27.945 42.9251 27.9334 42.863 27.9342C42.3341 27.9393 41.8116 28.0507 41.3266 28.2617C40.8416 28.4728 40.404 28.7792 40.0398 29.1628C40.0398 29.0921 40.0398 29.018 40.0398 28.95L40.0238 19.8399C40.0235 19.5559 39.9105 19.2836 39.7097 19.0827C39.509 18.8819 39.2367 18.7688 38.9527 18.7683H20.5309C20.2468 18.7687 19.9744 18.8817 19.7736 19.0826C19.5727 19.2835 19.4597 19.5558 19.4593 19.8399V28.5544H18.9685C18.5851 28.5549 18.2176 28.7073 17.9464 28.9783C17.6751 29.2492 17.5224 29.6166 17.5215 30V32.0405C17.5223 32.2994 17.5929 32.5533 17.7258 32.7755C17.8587 32.9977 18.049 33.18 18.2766 33.3033C18.0491 33.4267 17.8589 33.609 17.726 33.8312C17.5931 34.0534 17.5225 34.3072 17.5215 34.5661V36.6094C17.5223 36.8683 17.5929 37.1222 17.7258 37.3444C17.8587 37.5666 18.049 37.7489 18.2766 37.8722C18.049 37.9956 17.8588 38.1779 17.7259 38.4001C17.5931 38.6223 17.5224 38.8761 17.5215 39.135V41.1755C17.5228 41.4348 17.594 41.689 17.7277 41.9112C17.8613 42.1335 18.0524 42.3156 18.2809 42.4383C18.0522 42.5614 17.8609 42.744 17.7274 42.9668C17.5938 43.1895 17.5228 43.4442 17.522 43.7039V45.7397C17.5223 46.1234 17.6749 46.4912 17.9462 46.7625C18.2175 47.0338 18.5853 47.1864 18.969 47.1867H19.4616V51.6671C19.4619 51.9512 19.5748 52.2237 19.7757 52.4247C19.9766 52.6256 20.249 52.7387 20.5332 52.7391H28.8034C29.7034 53.8032 30.6404 54.676 32.2805 54.8485L33.4651 59.5121C33.4907 59.613 33.5492 59.7025 33.6314 59.7665C33.7135 59.8305 33.8147 59.8654 33.9188 59.8655C33.9503 59.8653 33.9817 59.862 34.0126 59.8557L46.9768 57.1678C47.0396 57.1548 47.099 57.1291 47.1514 57.0922C47.2038 57.0553 47.2481 57.008 47.2816 56.9533C47.315 56.8986 47.3369 56.8376 47.3458 56.7742C47.3547 56.7107 47.3506 56.646 47.3335 56.5842L46.0379 51.9014ZM20.3973 19.8389C20.3974 19.8034 20.4116 19.7694 20.4367 19.7443C20.4618 19.7192 20.4958 19.705 20.5313 19.7049H38.9527C38.9883 19.7054 39.0223 19.7198 39.0473 19.745C39.0724 19.7702 39.0866 19.8043 39.0868 19.8399L39.1027 28.95C39.1027 29.251 39.1027 29.5871 39.098 29.9053C39.098 30.2672 39.0934 30.6085 39.0948 30.8466C39.004 31.1734 38.9559 31.5106 38.9518 31.8497L38.8702 39.1407C38.7452 39.2344 38.6226 39.3308 38.5023 39.4299V21.6783C38.502 21.3999 38.3914 21.133 38.1946 20.9361C37.9979 20.7392 37.7311 20.6283 37.4527 20.6278H22.1054C21.8269 20.6281 21.5598 20.7388 21.3629 20.9358C21.1659 21.1327 21.0552 21.3998 21.0549 21.6783V28.6378C20.9945 28.6214 20.9326 28.6125 20.8712 28.6013C20.8346 28.5947 20.799 28.5849 20.762 28.5797C20.6469 28.5633 20.5308 28.5548 20.4146 28.5544L20.3973 19.8389ZM35.5637 48.0235H22.1054C22.0905 48.0236 22.0758 48.0208 22.062 48.0151C22.0482 48.0095 22.0357 48.0012 22.0252 47.9907C22.0147 47.9801 22.0064 47.9676 22.0008 47.9539C21.9951 47.9401 21.9923 47.9254 21.9924 47.9105V46.6153C22.0487 46.5685 22.1035 46.5183 22.157 46.4649C22.4224 46.2028 22.6242 45.8834 22.7467 45.5311C22.8693 45.1788 22.9093 44.8031 22.8638 44.4328C22.8601 44.4005 22.853 44.3696 22.8479 44.3391C22.838 44.2758 22.8273 44.2125 22.8127 44.1516C22.8038 44.1146 22.7921 44.0785 22.7813 44.0419C22.7654 43.9871 22.749 43.9322 22.7298 43.8788C22.7157 43.8403 22.6993 43.8028 22.6829 43.7653C22.6618 43.7157 22.6398 43.6664 22.6159 43.6186C22.5966 43.5807 22.5765 43.5432 22.5549 43.5061C22.5291 43.4592 22.502 43.4171 22.4734 43.3735C22.4448 43.3299 22.4265 43.3008 22.3988 43.2657C22.3712 43.2305 22.3355 43.1841 22.3023 43.1447C22.269 43.1053 22.2465 43.0772 22.2165 43.0453C22.1795 43.0055 22.1401 42.9685 22.1002 42.9314C22.0702 42.9033 22.0412 42.8738 22.0093 42.8471C22.0032 42.8419 21.998 42.8358 21.992 42.8307V42.0492C22.0482 42.0024 22.103 41.9524 22.1565 41.8992C22.3876 41.6712 22.5707 41.3992 22.6953 41.0994C22.8198 40.7995 22.8831 40.4778 22.8816 40.1532C22.8812 40.056 22.8751 39.959 22.8634 39.8625C22.8596 39.8307 22.8526 39.7992 22.8474 39.7688C22.8376 39.7055 22.8268 39.6427 22.8123 39.5813C22.8034 39.5438 22.7916 39.5077 22.7809 39.4711C22.7649 39.4163 22.7485 39.3619 22.7293 39.3085C22.7152 39.27 22.6988 39.2325 22.6824 39.1946C22.6613 39.1449 22.6393 39.0961 22.6154 39.0483C22.5962 39.0099 22.576 38.9728 22.5545 38.9358C22.5287 38.8889 22.5015 38.8463 22.4729 38.8032C22.4443 38.76 22.426 38.7305 22.3984 38.6949C22.3707 38.6592 22.3351 38.6133 22.3018 38.5739C22.2685 38.5346 22.246 38.5064 22.216 38.4746C22.179 38.4352 22.1396 38.3982 22.0998 38.3607C22.0698 38.3325 22.0407 38.303 22.0088 38.2758L21.9915 38.2599V37.4832C22.0484 37.436 22.1038 37.3853 22.1579 37.3313C22.3877 37.1028 22.5699 36.8311 22.6941 36.5318C22.8182 36.2325 22.8818 35.9116 22.8812 35.5875C22.8808 35.4904 22.8747 35.3933 22.8629 35.2969C22.8591 35.2646 22.8521 35.2332 22.847 35.2032C22.8371 35.1399 22.8263 35.0771 22.8118 35.0157C22.8029 34.9786 22.7912 34.9421 22.7804 34.9055C22.7645 34.8507 22.748 34.7963 22.7288 34.7428C22.7148 34.7044 22.6984 34.6669 22.682 34.6289C22.6609 34.5797 22.6388 34.5305 22.6149 34.4827C22.5957 34.4447 22.5755 34.4072 22.554 34.3702C22.5282 34.3233 22.501 34.2811 22.4724 34.2375C22.4485 34.201 22.4255 34.1649 22.3979 34.1297C22.3702 34.0946 22.3346 34.0482 22.3013 34.0083C22.268 33.9685 22.2455 33.9413 22.2155 33.9089C22.1785 33.8696 22.1391 33.8325 22.0993 33.7955C22.0693 33.7669 22.0402 33.7374 22.0084 33.7107C22.0023 33.7055 21.9971 33.6994 21.991 33.6942V32.9175C22.0473 32.8703 22.1021 32.8202 22.1555 32.7671C22.3866 32.539 22.5697 32.2672 22.6942 31.9674C22.8188 31.6676 22.8822 31.346 22.8807 31.0214C22.8803 30.9243 22.8742 30.8272 22.8624 30.7308C22.8587 30.6985 22.8516 30.6675 22.8465 30.6371C22.8366 30.5742 22.8259 30.511 22.8113 30.4496C22.8024 30.4125 22.7907 30.3764 22.7799 30.3394C22.764 30.2846 22.7476 30.2302 22.7284 30.1767C22.7143 30.1383 22.6979 30.1008 22.6815 30.0628C22.6604 30.0136 22.6384 29.9649 22.6145 29.9166C22.5952 29.8786 22.5751 29.8411 22.5535 29.8041C22.5277 29.7572 22.5005 29.715 22.472 29.6714C22.448 29.6349 22.4251 29.5988 22.3974 29.5636C22.3698 29.5285 22.3341 29.4821 22.3009 29.4422C22.2676 29.4024 22.2451 29.3752 22.2151 29.3433C22.178 29.3035 22.1387 29.2664 22.0988 29.2294C22.0688 29.2008 22.0398 29.1713 22.0079 29.1446C22.0018 29.1394 21.9966 29.1333 21.9905 29.1286V21.6783C21.9904 21.6634 21.9933 21.6487 21.9989 21.6349C22.0045 21.6212 22.0128 21.6087 22.0234 21.5982C22.0339 21.5876 22.0464 21.5793 22.0601 21.5737C22.0739 21.5681 22.0886 21.5652 22.1035 21.5653H37.4527C37.4826 21.5657 37.5111 21.5777 37.5322 21.5988C37.5533 21.6199 37.5653 21.6485 37.5657 21.6783V40.35C36.5259 41.5586 35.822 43.0193 35.5248 44.5857C35.322 45.7239 35.3352 46.8901 35.5637 48.0235ZM21.2626 34.3158C21.4511 34.4409 21.6095 34.6063 21.7262 34.8001C21.843 34.9939 21.9152 35.2112 21.9376 35.4363C21.96 35.6614 21.9321 35.8887 21.8559 36.1018C21.7797 36.3148 21.6571 36.5082 21.497 36.668C21.21 36.9547 20.8212 37.1161 20.4155 37.1171H18.9685C18.8338 37.1168 18.7046 37.0633 18.6092 36.9682C18.5137 36.8731 18.4597 36.7441 18.459 36.6094V34.5671C18.4592 34.432 18.513 34.3026 18.6085 34.2072C18.704 34.1118 18.8335 34.0581 18.9685 34.058H20.4146C20.7168 34.0566 21.0123 34.1464 21.2626 34.3158ZM21.2626 38.8819C21.4722 39.0212 21.6441 39.2102 21.7631 39.4319C21.8821 39.6537 21.9444 39.9015 21.9446 40.1532C21.9457 40.3541 21.9066 40.5533 21.8295 40.7389C21.7525 40.9246 21.6391 41.0929 21.496 41.2341C21.4248 41.3063 21.3462 41.3708 21.2616 41.4267C21.0126 41.5953 20.7185 41.6847 20.4179 41.6832H18.9685C18.8335 41.6829 18.704 41.6291 18.6085 41.5336C18.513 41.4381 18.4592 41.3087 18.459 41.1736V39.1332C18.4596 38.9983 18.5135 38.8692 18.609 38.774C18.7045 38.6788 18.8337 38.6253 18.9685 38.625H20.4146C20.7167 38.6231 21.0123 38.7126 21.2626 38.8819ZM18.459 30C18.4592 29.865 18.513 29.7356 18.6085 29.6402C18.704 29.5447 18.8335 29.4911 18.9685 29.491H20.4146C20.7162 29.4895 21.0112 29.5791 21.2612 29.7478H21.264C21.4732 29.8874 21.6447 30.0763 21.7635 30.298C21.8822 30.5197 21.9444 30.7672 21.9446 31.0186C21.9454 31.2191 21.9061 31.4178 21.8291 31.6029C21.7521 31.7881 21.6388 31.956 21.496 32.0967C21.4248 32.1691 21.3462 32.2338 21.2616 32.2899C21.0125 32.4581 20.7185 32.5473 20.4179 32.5458H18.9685C18.8335 32.5456 18.704 32.4918 18.6085 32.3963C18.513 32.3008 18.4592 32.1713 18.459 32.0363V30ZM18.9685 46.2478C18.8334 46.2477 18.7039 46.194 18.6084 46.0985C18.5128 46.0029 18.4591 45.8734 18.459 45.7383V43.7035C18.4592 43.5684 18.513 43.4389 18.6085 43.3434C18.704 43.2479 18.8335 43.1942 18.9685 43.1939H20.4146C20.7169 43.1923 21.0125 43.2824 21.2626 43.4522C21.4722 43.5915 21.6442 43.7804 21.7632 44.0022C21.8822 44.224 21.9445 44.4718 21.9446 44.7235C21.9457 44.924 21.9066 45.1228 21.8295 45.308C21.7525 45.4932 21.6391 45.661 21.496 45.8016C21.4249 45.874 21.3463 45.9388 21.2616 45.9947C21.0125 46.1629 20.7185 46.2521 20.4179 46.2507H18.9685V46.2478ZM20.3987 51.6657V47.1853H20.4146C20.5307 47.185 20.6466 47.1765 20.7615 47.16C20.8004 47.1549 20.8384 47.1446 20.8768 47.1375C20.9363 47.1263 20.9963 47.1178 21.0549 47.1024V47.9096C21.0552 48.1881 21.1659 48.4551 21.3629 48.6521C21.5598 48.849 21.8269 48.9598 22.1054 48.96H35.8004C35.8885 49.2525 35.9902 49.5392 36.1055 49.8202C36.1248 49.8671 36.1435 49.9139 36.1627 49.9608C36.1913 50.0274 36.2199 50.093 36.2499 50.1581C36.3071 50.2889 36.368 50.416 36.4257 50.5275C36.4678 50.6197 36.5147 50.7095 36.5663 50.7966C36.706 51.061 36.8591 51.3182 37.0248 51.5672C37.0438 51.5947 37.0535 51.6276 37.0524 51.661C37.0515 51.6834 37.0454 51.7054 37.0346 51.7252C37.0223 51.7486 37.0036 51.768 36.9807 51.7813C36.9578 51.7946 36.9317 51.8011 36.9052 51.8002H20.5309C20.4957 51.7996 20.4623 51.7853 20.4376 51.7603C20.4129 51.7353 20.3989 51.7017 20.3987 51.6666V51.6657ZM34.2652 58.8488L33.2223 54.75C33.2867 54.6842 33.3304 54.6009 33.3478 54.5105C33.3652 54.42 33.3556 54.3265 33.3201 54.2415C33.2847 54.1565 33.225 54.0838 33.1485 54.0325C33.072 53.9812 32.982 53.9536 32.8899 53.9532C32.3588 53.9733 31.8299 53.875 31.3415 53.6652C30.8532 53.4555 30.4177 53.1396 30.0666 52.7405H36.9038C37.1003 52.7407 37.2932 52.6874 37.4617 52.5864C37.6303 52.4854 37.7682 52.3405 37.8608 52.1672C37.9533 51.9938 37.997 51.7986 37.9871 51.6023C37.9773 51.4061 37.9142 51.2162 37.8048 51.053C37.7865 51.0253 37.771 50.9981 37.7532 50.9705C37.6946 50.8796 37.636 50.7891 37.5826 50.6991C37.5132 50.5824 37.4476 50.4647 37.3852 50.3466C37.3432 50.2745 37.3049 50.2004 37.2704 50.1244C37.1434 49.8755 37.0332 49.6196 36.9315 49.3603L36.848 49.1353C36.8012 49.0027 36.7613 48.8682 36.7205 48.7336C36.6835 48.615 36.6427 48.4992 36.6113 48.3778L36.5884 48.2888C36.2901 47.1364 36.2422 45.9335 36.4477 44.761C36.7233 43.3046 37.3919 41.9514 38.3813 40.8478L38.3841 40.845C38.7474 40.4406 39.1564 40.0798 39.6029 39.7697L39.8026 39.6319L39.8898 31.8647C39.8931 31.6079 39.9293 31.3525 39.9976 31.1049L40.0341 31.02V30.9928C40.197 30.4611 40.5047 29.9853 40.9228 29.6187C41.3409 29.2521 41.8529 29.0092 42.4013 28.9172V34.7344C42.4022 35.2001 42.4754 35.6628 42.6184 36.106L43.3937 38.5027C43.8973 39.8677 44.232 41.2892 44.3902 42.7355C44.4683 44.1938 44.4594 45.6554 44.3635 47.1127C44.3251 47.9461 44.2857 48.8077 44.2796 49.6594C44.2702 49.8525 44.3616 50.145 44.889 51.5133C45.0071 51.8194 45.1074 52.0786 45.1384 52.1719L46.2962 56.3536L34.2652 58.8488Z" fill="#0369A1"/>
</svg>
