<svg width="468" height="468" viewBox="0 0 468 468" fill="none" xmlns="http://www.w3.org/2000/svg">
<path fill-rule="evenodd" clip-rule="evenodd" d="M372.075 357.181C450.882 356.453 466 397.772 321.159 388.974C296.026 387.448 256.159 375.27 223.265 372.9C187.738 370.339 118.56 374.042 107.993 373.615C66.2944 371.92 41.3046 356.223 161.365 357.181C205.445 357.532 332.499 357.545 372.075 357.181Z" fill="#F6F6F6"/>
<path d="M363.306 384.081C376.944 384.081 387.999 382.476 387.999 380.495C387.999 378.514 376.944 376.909 363.306 376.909C349.669 376.909 338.614 378.514 338.614 380.495C338.614 382.476 349.669 384.081 363.306 384.081Z" fill="black" fill-opacity="0.2"/>
<path d="M232.73 364.463C243.251 364.463 251.78 363.256 251.78 361.768C251.78 360.279 243.251 359.073 232.73 359.073C222.209 359.073 213.68 360.279 213.68 361.768C213.68 363.256 222.209 364.463 232.73 364.463Z" fill="black" fill-opacity="0.2"/>
<path fill-rule="evenodd" clip-rule="evenodd" d="M413.141 200.942C437.348 273.813 379.599 380.091 318.411 325.337C286.38 296.676 228.431 260.377 187.243 284.427C24.2918 379.584 13.2049 216.372 63.363 225.618C199.115 250.642 189.633 187.177 221.965 138.308C265.083 73.1363 380.262 101.959 413.141 200.942Z" fill="#F6F6F6"/>
<path d="M114.487 370.233C124.732 370.233 133.037 368.941 133.037 367.347C133.037 365.754 124.732 364.462 114.487 364.462C104.242 364.462 95.9365 365.754 95.9365 367.347C95.9365 368.941 104.242 370.233 114.487 370.233Z" fill="black" fill-opacity="0.2"/>
<path d="M133.523 360.133C132.841 359.333 132.216 358.486 131.655 357.597C129.811 354.803 128.694 351.902 127.836 348.316C126.103 341.819 125.801 335.023 126.949 328.397C127.042 328.957 127.064 329.497 127.133 330.088C127.154 330.912 127.574 331.437 127.971 331.993C128.276 332.445 128.367 333.119 128.74 333.649C129.372 334.408 130.495 334.286 131.107 333.422C131.55 333.59 132.032 333.621 132.493 333.51C132.953 333.399 133.369 333.152 133.686 332.801C134.274 332.139 134.604 331.248 134.864 330.336C134.911 330.102 134.959 329.869 134.983 329.667C135.474 330.042 136.083 330.261 136.646 329.744C137.679 328.891 137.871 327.217 137.664 325.899C137.585 325.368 137.444 324.847 137.246 324.347L137.292 324.343C138.324 323.946 138.118 322.286 137.698 321.476C137.391 320.761 136.983 320.095 136.485 319.497C136.58 319.31 136.605 319.095 136.557 318.891C136.443 317.62 135.437 316.788 134.524 316.459C133.401 316.01 131.878 316.089 131.129 315.486C130.825 315.19 130.6 314.822 130.476 314.416C130.429 314.364 130.429 314.307 130.406 314.224C130.507 313.982 130.593 313.735 130.665 313.483C132.222 309.494 133.778 305.962 135.988 302.644C136.047 303.037 136.077 303.434 136.079 303.831C136.053 304.889 135.909 306.101 136.61 306.825C137.428 307.791 138.857 307.722 139.494 306.313C139.87 305.531 139.896 304.588 140.32 303.801C140.442 303.565 140.584 303.34 140.743 303.127C140.999 303.927 140.738 305.181 140.478 306.093C139.816 308.559 137.914 310.219 137.157 312.753C136.944 313.831 137.599 314.274 138.255 314.145C138.136 314.985 137.993 315.799 138.108 316.613C138.501 318.709 140.069 319.709 141.757 319.127C141.802 319.863 141.847 320.6 142.103 321.228C142.615 322.655 143.971 323.706 145.332 323.16C145.859 322.909 146.312 322.526 146.648 322.048C147.416 323.762 147.644 326.417 149.611 326.661C150.22 326.823 150.877 326.581 151.37 326.043C151.712 326.218 152.073 326.351 152.447 326.441C153.172 326.505 153.877 326.143 154.487 325.622C156.531 323.776 156.375 320.514 155.608 318.173C155.608 318.116 155.584 318.09 155.584 318.033C155.654 317.996 155.725 318.017 155.795 317.981C158.329 316.738 156.58 313.42 155.224 312.255L155.06 312.073C156.563 310.713 155.373 308.646 153.877 307.554C153.596 307.356 153.362 307.096 153.081 306.899C153.443 306.558 153.69 306.112 153.787 305.625C154.048 304.428 153.23 303.519 152.458 303.117C151.975 302.9 151.474 302.725 150.96 302.594C151.07 302.407 151.122 302.192 151.11 301.975C151.098 301.758 151.023 301.55 150.893 301.376C150.333 300.638 149.372 300.485 148.53 300.576C148.226 300.638 147.945 300.725 147.616 300.818C147.335 300.392 146.422 300.405 145.929 300.487C144.617 300.629 143.608 301.108 142.579 300.649C141.666 300.206 141.247 299.225 140.804 298.161C140.643 297.719 140.511 297.266 140.409 296.807C142.548 294.152 144.757 291.689 147.059 289.274C147.253 290.057 147.338 290.863 147.311 291.67C147.283 293.355 146.759 296.605 148.798 296.413C149.123 296.335 149.421 296.175 149.666 295.949C149.922 296.861 150.247 297.796 150.831 298.446C151.789 299.682 154.131 299.943 154.769 297.906C154.922 297.303 154.945 296.675 154.838 296.063C154.73 295.45 154.494 294.868 154.146 294.353C153.609 293.527 152.323 292.497 152.863 291.896C152.957 291.772 153.191 291.803 153.59 291.846C153.789 291.898 153.993 291.933 154.198 291.951C154.532 293.214 155.084 294.409 155.829 295.481C157.277 297.492 158.983 299.16 160.619 300.922C161.577 301.931 162.932 303.552 164.364 302.285C164.633 302.017 164.806 301.668 164.859 301.291C165.654 301.832 166.473 302.4 167.433 302.381C168.815 302.432 169.335 300.608 169.245 299.192C169.233 299.116 169.233 299.039 169.245 298.964C170.158 299.407 171.141 299.586 171.918 298.447C173.259 296.049 172.637 291.811 170.649 290.572C170.509 290.473 170.345 290.406 170.205 290.307C170.338 290.12 170.427 289.906 170.464 289.68C170.725 288.426 169.954 287.34 169.112 286.861C168.574 286.605 167.989 286.64 167.402 286.618C167.375 286.411 167.275 286.22 167.122 286.078C166.513 285.516 165.718 285.431 164.969 285.284C166.07 285.137 167.009 284.693 167.62 283.829C167.824 283.499 167.967 283.136 168.045 282.756C169.146 282.666 170.295 282.456 171.234 281.67C172.22 280.994 172.809 279.533 172.343 278.443C172.933 278.256 173.471 277.934 173.916 277.503C175.654 275.719 175.309 273.389 173.437 272.166C173.077 271.923 172.683 271.735 172.267 271.608C173.863 270.523 175.671 269.273 176.028 266.868C176.289 265.728 175.964 264.565 175.239 263.931C173.578 262.714 171.422 263.174 169.475 263.87C169.714 263.405 169.851 262.894 169.878 262.372C169.975 260.708 168.409 259.594 167.143 259.845C166.401 259.967 165.701 260.267 165.102 260.721L165.079 260.752C165.083 258.927 163.724 259.131 162.338 260.336C161 261.364 159.942 262.875 159.094 264.507C158.698 263.78 157.948 263.918 157.313 264.642L157.196 264.798C157.55 263.761 157.529 262.766 156.406 262.317C156.264 262.259 156.114 262.227 155.961 262.224C156.527 260.965 157.046 259.597 156.768 258.259C156.443 256.925 155.036 256.963 154.145 257.687C154.135 257.704 154.122 257.719 154.106 257.731C154.09 257.743 154.071 257.751 154.051 257.754C154.124 256.976 154.29 256.189 154.034 255.504C153.475 253.967 151.766 253.553 150.591 254.707C150.461 254.831 150.343 254.968 150.239 255.115C148.39 254.488 146.86 257.134 146.456 259.202C146.012 258.708 145.497 258.422 144.864 258.804C143.479 259.667 142.982 261.688 142.86 263.383C142.824 263.781 142.823 264.182 142.857 264.581C142.614 264.657 142.394 264.793 142.218 264.976C142.041 265.16 141.914 265.385 141.847 265.631C141.137 268.616 143.051 271.374 143.959 273.528C144.212 274.146 144.422 274.781 144.587 275.428C144.054 275.026 143.406 274.807 142.739 274.801C142.397 274.806 142.067 274.929 141.806 275.149C141.545 275.37 141.368 275.674 141.306 276.011C141.269 276.427 141.357 276.844 141.561 277.209C141.758 277.727 142.025 278.216 142.354 278.663C142.775 279.188 143.171 279.744 143.639 280.263C143.472 280.308 143.319 280.393 143.193 280.511C142.464 281.36 143.211 282.59 143.607 283.317C143.852 283.675 144.143 283.998 144.473 284.279C144.377 285.202 145.872 286.808 146.316 287.188C146.552 287.406 146.802 287.607 147.065 287.791C144.81 290.088 142.648 292.488 140.557 294.966C140.437 295.134 140.303 295.292 140.157 295.437C139.962 295.328 139.759 295.236 139.549 295.161C139.247 295.041 138.963 294.88 138.706 294.682C137.677 293.995 136.907 292.622 137.591 291.153C137.873 290.495 138.696 289.636 139.049 288.771C139.126 288.529 139.15 288.272 139.118 288.02C139.086 287.767 139 287.525 138.866 287.309C139.314 286.319 140.393 285.461 140.724 284.342C140.774 284.127 140.764 283.903 140.694 283.695C140.624 283.486 140.498 283.3 140.329 283.159C140.493 282.827 140.682 282.465 140.847 282.133C141.6 280.798 141.887 278.542 140.129 278.761C140.036 278.771 139.966 278.808 139.872 278.817C140.183 276.531 141.339 273.356 138.81 272.717C138.624 272.689 138.434 272.691 138.248 272.721C138.579 271.601 139.004 270.415 138.726 269.248C138.426 267.37 136.458 267.525 135.284 268.393C135.024 268.58 134.787 268.797 134.579 269.04C134.302 267.359 133.674 265.802 132.151 265.881C129.291 266.247 127.97 269.697 127.658 272.782C127.634 272.927 127.634 273.041 127.611 273.186C127.536 273.159 127.456 273.148 127.377 273.154C126.558 273.043 125.712 273.763 125.171 274.533C123.947 276.49 124.363 279.068 124.99 281.025C125.014 281.108 125.061 281.16 125.084 281.243C124.38 281.661 124.073 282.749 124.211 283.59C124.322 284.144 124.562 284.665 124.91 285.111C125.177 285.461 125.522 285.746 125.916 285.943C125.89 286.154 125.915 286.369 125.987 286.569C126.06 286.77 126.179 286.95 126.335 287.095C126.967 287.797 127.997 288.256 128.557 288.822C128.877 289.235 129.166 289.67 129.42 290.126C128.387 290.922 127.681 292.253 128.193 293.68C129.006 296.301 131.392 297.982 133.759 297.697C134.931 297.571 136.105 296.589 136.996 296.435C137.37 296.395 137.744 296.639 138.002 297.039C138.142 297.252 138.212 297.444 138.306 297.605C136.167 300.317 134.098 303.164 132.52 306.385C131.954 307.472 131.436 308.612 130.918 309.751C129.791 310.443 128.761 310.326 127.919 309.505C127.078 308.512 127.387 306.854 127.227 305.303C127.137 304.602 126.873 303.934 126.459 303.361C126.014 302.981 125.359 302.767 124.796 303.057C124.683 302.578 124.422 302.147 124.049 301.826C123.301 301.222 122.27 301.391 121.846 302.292C121.331 301.72 120.746 301.299 119.997 301.266C118.826 301.107 117.886 302.007 117.789 303.272C117.207 303.245 116.631 303.407 116.148 303.735C114.623 304.783 113.866 307.488 114.987 309.021L115.033 309.073C114.071 309.947 113.574 311.569 115.12 311.857C115.747 311.937 116.383 311.858 116.972 311.629C116.719 312.235 116.605 312.891 116.639 313.548C116.639 313.87 116.743 314.183 116.937 314.44C117.131 314.696 117.403 314.883 117.713 314.971C118.158 315.065 118.65 314.927 119.096 314.793C119.193 314.753 119.287 314.705 119.377 314.649C119.372 316.474 120.917 317.048 122.7 315.943C122.859 315.836 123.008 315.715 123.146 315.581C123.487 315.667 123.841 315.682 124.188 315.625C124.535 315.567 124.866 315.44 125.161 315.249C125.607 314.945 125.914 314.37 126.173 313.857C126.762 312.625 126.696 310.949 127.749 311.092C128.226 311.095 128.694 311.221 129.107 311.459C129.411 311.568 129.692 311.937 130.019 311.788C129.831 312.264 129.618 312.772 129.453 313.274C129.395 313.304 129.347 313.348 129.313 313.404C128.91 314.958 127.48 315.483 126.399 316.684C125.743 317.404 125.246 318.255 124.94 319.179C124.887 319.322 124.848 319.47 124.823 319.62C124.024 320.504 123.154 321.767 123.62 322.801C123.722 322.989 123.856 323.158 124.017 323.299C123.82 324.059 123.763 324.847 123.848 325.627C123.892 326.592 124.03 327.603 124.45 328.185C123.395 328.499 122.582 325.935 120.848 325.951C120.624 325.918 120.397 325.936 120.181 326.004C119.966 326.072 119.769 326.187 119.605 326.342C118.037 325.913 116.833 328.98 118.071 330.642C118.35 330.947 118.719 331.157 119.124 331.241C119.089 331.46 119.113 331.683 119.193 331.89C119.637 332.498 120.409 332.328 121.043 332.003C121.416 332.647 122.283 332.696 122.893 332.345C123.457 331.942 123.81 331.191 124.257 330.601C124.421 330.327 124.844 329.996 124.914 330.016L125.406 329.877C125.022 332.574 124.872 335.299 124.956 338.021C125.087 341.656 125.734 345.179 126.569 348.567C127.403 352.183 128.8 355.568 130.761 358.378C131.322 359.174 131.929 359.963 132.536 360.695C132.589 360.778 132.669 360.84 132.763 360.872C132.857 360.903 132.958 360.902 133.051 360.867C133.941 360.943 133.943 360.486 133.523 360.133ZM151.416 280.448C151.473 278.979 151.975 277.563 152.856 276.386C152.966 276.227 153.092 276.08 153.232 275.946C153.064 277.533 152.989 279.109 152.892 280.659C152.843 281.291 152.818 281.95 152.77 282.583C152.582 282.774 152.37 282.939 152.206 283.1C152.157 283.059 152.124 283.002 152.113 282.939C151.689 282.174 151.451 281.321 151.416 280.448ZM153.581 286.173C153.109 285.845 152.711 285.422 152.412 284.931C152.307 284.757 152.213 284.577 152.132 284.391C152.202 284.412 152.319 284.37 152.389 284.391C152.787 284.319 152.927 284.304 153.35 284.258C154.182 284.155 155.021 284.131 155.857 284.187C157.169 284.273 159.183 284.854 161.197 285.207L160.776 285.252C159.228 285.59 157.493 286.405 156.157 286.521C155.126 286.519 154.376 286.6 153.581 286.173Z" fill="#319991"/>
<path d="M141.246 341.833C139.972 341.88 138.696 341.837 137.428 341.703C133.382 341.355 129.78 340.234 125.723 338.353C118.237 335.113 111.543 330.286 106.103 324.208C106.705 324.542 107.235 324.926 107.849 325.306C108.65 325.906 109.466 325.901 110.293 325.941C110.952 325.993 111.662 326.413 112.448 326.456C113.644 326.427 114.375 325.265 114.013 324.033C114.952 323.508 115.525 322.403 115.362 321.112C115.175 320.054 114.575 319.069 113.903 318.136C113.716 317.915 113.53 317.694 113.356 317.52C114.082 317.334 114.749 316.92 114.681 315.995C114.647 314.37 113.198 312.927 111.788 312.134C111.223 311.809 110.622 311.55 109.997 311.364L110.028 311.315C110.427 310.035 108.692 308.983 107.605 308.773C106.694 308.527 105.753 308.414 104.81 308.438C104.703 308.207 104.517 308.021 104.286 307.913C102.992 307.065 101.443 307.396 100.443 308.017C99.1706 308.748 98.0998 310.257 96.9626 310.515C96.452 310.583 95.9326 310.52 95.453 310.332C95.3694 310.325 95.2887 310.298 95.2177 310.254C95.0637 309.976 94.8936 309.707 94.7082 309.449C92.0839 304.967 89.8932 300.828 88.3994 296.228C88.8175 296.469 89.2181 296.738 89.5979 297.036C90.5847 297.856 91.6307 298.906 92.8458 298.782C94.3806 298.732 95.3908 297.32 94.529 295.654C94.0685 294.707 93.19 293.972 92.7599 292.977C92.6275 292.683 92.5199 292.379 92.4382 292.068C93.391 292.426 94.3881 293.618 95.059 294.551C96.9076 297.038 97.0555 300.097 98.8966 302.723C99.7624 303.737 100.675 303.447 101.048 302.726C101.757 303.471 102.424 304.219 103.285 304.723C105.575 305.926 107.706 305.187 108.423 303.142C109.157 303.654 109.892 304.165 110.682 304.394C112.426 304.981 114.446 304.481 114.95 302.776C115.108 302.086 115.084 301.366 114.882 300.688C117.091 301.246 119.789 303.028 121.501 301.338C122.113 300.881 122.377 300.075 122.236 299.2C122.66 299.006 123.058 298.763 123.424 298.475C124.033 297.832 124.218 296.89 124.18 295.917C123.961 292.583 120.741 290.277 117.936 289.246C117.881 289.203 117.839 289.205 117.785 289.162C117.804 289.069 117.876 289.017 117.895 288.923C118.619 285.577 114.145 284.744 112.017 285.158L111.721 285.176C111.557 282.723 108.696 282.3 106.53 282.902C106.13 283.019 105.707 283.047 105.308 283.165C105.256 282.564 105.018 281.994 104.627 281.535C103.684 280.385 102.203 280.479 101.241 280.912C100.67 281.209 100.127 281.555 99.6161 281.945C99.5201 281.7 99.3542 281.488 99.139 281.336C98.9239 281.185 98.669 281.1 98.4059 281.091C97.2827 281.07 96.4143 281.868 95.8661 282.74C95.6952 283.076 95.5668 283.41 95.4077 283.792C94.7918 283.738 94.1167 284.617 93.8242 285.147C92.9715 286.502 92.6689 287.823 91.4573 288.458C90.3488 288.993 89.1 288.654 87.7545 288.274C87.2121 288.095 86.6824 287.88 86.1686 287.63C85.2521 283.598 84.5709 279.643 84.0046 275.634C84.8957 276.04 85.7267 276.566 86.474 277.198C88.0568 278.492 90.7562 281.436 92.1066 279.351C92.2764 278.983 92.3489 278.579 92.3172 278.175C93.3784 278.62 94.5124 279.012 95.5698 278.945C97.4671 278.965 99.4776 276.932 98.0193 274.793C97.5605 274.194 96.9803 273.699 96.3167 273.34C95.6531 272.982 94.9211 272.768 94.1689 272.712C92.9792 272.601 91.0314 273.05 90.8671 272.084C90.8203 271.901 91.026 271.702 91.366 271.355C91.5658 271.204 91.7526 271.037 91.9243 270.855C93.377 271.488 94.9292 271.862 96.5107 271.959C99.513 272.095 102.384 271.727 105.292 271.497C106.973 271.344 109.535 271.274 109.407 268.958C109.354 268.5 109.152 268.072 108.833 267.739C109.947 267.39 111.103 267.037 111.808 266.11C112.896 264.832 111.552 262.965 110.137 261.986C110.056 261.94 109.983 261.882 109.92 261.813C111.029 261.278 111.939 260.477 111.439 258.881C110.167 255.801 105.667 253.204 102.992 254.163C102.792 254.222 102.604 254.327 102.405 254.386C102.328 254.119 102.191 253.873 102.003 253.668C101.006 252.476 99.3936 252.392 98.3039 252.833C97.6557 253.153 97.2481 253.736 96.7862 254.277C96.5681 254.147 96.3115 254.097 96.0608 254.137C95.0691 254.292 94.3891 254.986 93.6852 255.587C94.3736 254.428 94.6577 253.201 94.2952 251.969C94.1342 251.527 93.8965 251.118 93.5932 250.758C94.3359 249.642 95.0005 248.391 94.9595 246.906C95.0576 245.459 94.1111 243.799 92.7232 243.422C92.9891 242.72 93.088 241.966 93.0122 241.219C92.6224 238.222 90.1459 236.798 87.5738 237.658C87.0718 237.819 86.5962 238.052 86.1625 238.352C86.3313 236.017 86.5016 233.356 84.4822 231.206C83.593 230.1 82.2428 229.535 81.0939 229.747C78.6858 230.411 77.5017 232.81 76.6984 235.185C76.4352 234.608 76.0523 234.094 75.5752 233.676C74.0655 232.33 71.8265 232.983 71.1128 234.378C70.6708 235.175 70.4298 236.068 70.4108 236.979L70.4228 237.026C68.6895 235.648 67.8605 237.096 67.9644 239.319C67.9361 241.366 68.5779 243.511 69.4922 245.545C68.5021 245.375 68.0692 246.193 68.281 247.341L68.3402 247.57C67.6206 246.453 66.6575 245.724 65.3852 246.455C65.2232 246.546 65.0792 246.665 64.9605 246.808C64.1883 245.323 63.2776 243.8 61.795 243.057C60.2817 242.362 59.26 243.729 59.2771 245.122C59.2866 245.145 59.291 245.169 59.2898 245.193C59.2886 245.217 59.282 245.241 59.2703 245.263C58.5849 244.609 57.9599 243.859 57.1157 243.586C55.2336 242.961 53.5535 244.276 53.7671 246.262C53.7877 246.48 53.8292 246.695 53.8909 246.905C51.9019 248.192 53.2692 251.639 54.9331 253.579C54.1294 253.63 53.4695 253.904 53.3562 254.795C53.1351 256.76 54.6839 258.755 56.2056 260.147C56.5575 260.481 56.9381 260.783 57.3431 261.051C57.2323 261.339 57.1961 261.651 57.2378 261.957C57.2796 262.263 57.398 262.554 57.582 262.802C59.8879 265.724 63.9527 265.978 66.686 266.735C67.4642 266.96 68.226 267.237 68.9659 267.567C68.1822 267.772 67.485 268.223 66.9769 268.854C66.7242 269.183 66.5933 269.589 66.6067 270.004C66.6201 270.418 66.7769 270.815 67.0504 271.127C67.4178 271.476 67.882 271.706 68.3823 271.787C69.0239 271.989 69.69 272.103 70.3624 272.126C71.1781 272.121 72.0055 272.162 72.8517 272.108C72.7689 272.301 72.7346 272.51 72.752 272.719C73.0113 274.051 74.7443 274.266 75.7343 274.436C76.2582 274.473 76.7847 274.439 77.2998 274.337C78.1055 275.123 80.759 274.908 81.4545 274.771C81.8391 274.712 82.219 274.626 82.5917 274.514C83.0801 278.388 83.7383 282.251 84.522 286.106C84.5915 286.347 84.6409 286.592 84.6694 286.841C84.419 286.944 84.1778 287.068 83.9484 287.212C83.6077 287.409 83.2408 287.558 82.8587 287.653C81.4313 288.115 79.5469 287.817 78.6614 286.059C78.2482 285.295 78.05 283.866 77.4929 282.879C77.32 282.623 77.0937 282.408 76.8295 282.248C76.5654 282.088 76.2698 281.987 75.963 281.953C75.3585 280.783 75.3546 279.109 74.5386 277.951C74.3721 277.742 74.151 277.584 73.8998 277.493C73.6485 277.402 73.377 277.383 73.1154 277.437C72.924 277.03 72.7209 276.578 72.5304 276.173C71.8261 274.451 69.8963 272.481 68.7815 274.318C68.7207 274.415 68.7019 274.509 68.6411 274.606C66.6989 272.591 64.5477 269.101 62.0367 271.026C61.8704 271.183 61.729 271.365 61.6171 271.564C60.8012 270.407 59.992 269.11 58.6718 268.497C56.6594 267.369 55.3256 269.359 55.2692 271.129C55.2508 271.517 55.2793 271.905 55.3541 272.286C53.5465 271.285 51.5916 270.711 50.5206 272.22C48.7174 275.215 51.0064 279.069 53.7061 281.688C53.8263 281.819 53.9347 281.906 54.0549 282.038C53.9726 282.088 53.9022 282.156 53.8486 282.236C53.126 282.933 53.1737 284.278 53.5006 285.373C54.442 288.01 57.2076 289.555 59.5415 290.43C59.6382 290.47 59.7227 290.465 59.8193 290.505C59.6873 291.49 60.4916 292.601 61.3953 293.102C62.0066 293.414 62.6824 293.578 63.3686 293.582C63.9033 293.592 64.4331 293.479 64.9172 293.252C65.2895 293.693 65.8633 293.749 66.3287 293.72C67.4709 293.647 68.6825 293.013 69.6438 292.905C70.277 292.911 70.9089 292.964 71.534 293.065C71.5142 294.647 72.2489 296.32 73.991 296.907C77.0967 298.105 80.4913 297.1 82.002 294.634C82.7632 293.423 82.7122 291.567 83.2366 290.604C83.4802 290.217 83.9945 290.045 84.5683 290.101C84.8763 290.128 85.1117 290.206 85.3349 290.239C86.3055 294.315 87.4573 298.425 89.3351 302.351C89.9447 303.708 90.6387 305.058 91.333 306.408C91.1437 308.001 90.2566 308.894 88.8423 309.076C87.2652 309.129 85.9194 307.588 84.3233 306.572C83.5885 306.13 82.7547 305.88 81.8981 305.842C81.2025 305.979 80.5054 306.442 80.3565 307.195C79.8159 306.943 79.2095 306.867 78.6235 306.979C77.4865 307.237 76.8706 308.345 77.4091 309.427C76.4782 309.486 75.6372 309.725 75.0417 310.414C74.0095 311.409 74.1588 312.98 75.2897 314.024C74.8252 314.558 74.5461 315.228 74.4941 315.934C74.3441 318.175 76.3484 320.93 78.65 321.017L78.7347 321.011C78.8416 322.585 80.0114 324.278 81.4491 323.024C81.9962 322.487 82.4004 321.823 82.6249 321.09C83.0115 321.787 83.5494 322.388 84.1991 322.85C84.5051 323.092 84.8819 323.228 85.2723 323.237C85.6626 323.246 86.0452 323.127 86.3619 322.899C86.7866 322.548 87.0251 321.974 87.2331 321.449C87.2688 321.326 87.2937 321.2 87.3075 321.072C89.0407 322.45 90.7499 321.412 91.0403 318.884C91.0587 318.652 91.0559 318.419 91.0319 318.187C91.3697 317.927 91.6506 317.601 91.8572 317.228C92.0638 316.855 92.1916 316.444 92.2327 316.019C92.2784 315.365 91.9618 314.642 91.6688 314.009C90.939 312.522 89.2956 311.324 90.2243 310.429C90.5856 309.978 91.0578 309.627 91.5949 309.413C91.9283 309.206 92.4901 309.217 92.595 308.791C92.9064 309.33 93.2298 309.913 93.5836 310.449C93.568 310.526 93.574 310.606 93.6007 310.68C94.7773 312.233 94.2004 313.989 94.5292 315.922C94.7218 317.088 95.1567 318.201 95.8059 319.188C95.9016 319.347 96.0121 319.496 96.1361 319.633C96.3769 321.059 96.9237 322.837 98.2575 323.171C98.5134 323.216 98.7753 323.215 99.0309 323.169C99.6051 323.927 100.312 324.576 101.118 325.082C102.069 325.766 103.136 326.395 104.005 326.433C103.51 327.673 100.458 326.518 99.169 328.18C98.9696 328.368 98.8153 328.598 98.7178 328.854C98.6202 329.11 98.582 329.385 98.606 329.657C97.0171 330.827 99.03 334.279 101.543 334.352C102.044 334.316 102.52 334.123 102.905 333.801C103.087 333.998 103.318 334.144 103.574 334.223C104.486 334.258 104.908 333.394 105.075 332.547C105.968 332.677 106.667 331.888 106.792 331.044C106.832 330.205 106.384 329.303 106.159 328.434C106.021 328.071 106.024 327.42 106.097 327.369L106.336 326.796C108.616 329.188 111.098 331.38 113.753 333.346C117.311 335.957 121.15 337.991 125.002 339.746C129.071 341.674 133.343 342.891 137.492 343.139C138.67 343.204 139.879 343.221 141.033 343.194C141.152 343.206 141.272 343.177 141.372 343.111C141.473 343.046 141.548 342.948 141.585 342.834C142.333 342.043 141.899 341.699 141.246 341.833ZM78.8882 264.847C77.5337 263.688 76.5636 262.144 76.1066 260.421C76.038 260.197 75.9926 259.966 75.9712 259.732C77.3541 261.086 78.7979 262.343 80.1993 263.602C80.7649 264.124 81.3723 264.644 81.9379 265.166C81.9784 265.488 81.9768 265.814 82.0058 266.091C81.9298 266.107 81.8508 266.095 81.7823 266.059C80.7363 265.886 79.7452 265.471 78.8882 264.846V264.847ZM85.9644 267.096C85.2971 267.298 84.595 267.358 83.903 267.273C83.6588 267.242 83.4169 267.195 83.1788 267.132C83.2516 267.081 83.3005 266.939 83.3733 266.887C83.6049 266.454 83.6964 266.309 83.9704 265.874C84.4974 265.004 85.1064 264.187 85.7891 263.434C86.8585 262.251 88.9261 260.772 90.7773 259.121C90.6857 259.266 90.5943 259.411 90.503 259.556C89.6606 261.283 89.1299 263.548 88.2349 264.906C87.4566 265.885 86.9694 266.66 85.9644 267.095V267.096Z" fill="#43C3B9"/>
<path d="M124.04 331.96C124.836 330.926 125.683 330.153 126.5 328.997C126.524 328.964 126.547 328.901 126.572 328.868C128.787 327.432 131.416 325.79 133.598 323.88C137.041 320.844 140.004 317.036 142.669 313.031C146.082 308.147 148.671 302.568 150.493 296.676C151.189 294.102 153.483 288.474 151.851 286.456C150.259 285.419 146.174 288.274 144.594 289.384C138.246 294.12 133.071 300.249 129.465 307.3C127.085 312.163 126.343 317.908 127.092 323.123C127.186 324.304 127.332 325.778 127.08 326.917C126.899 327.538 126.627 328.128 126.273 328.669C126.228 328.699 126.187 328.735 126.151 328.775C126.121 328.822 126.105 328.876 126.105 328.931C125.63 329.562 125.114 330.161 124.56 330.724C124.415 330.893 124.271 331.092 124.126 331.261C124.183 330.238 124.24 329.214 124.273 328.165C124.275 323.774 123.811 319.477 123.396 315.173C123.212 312.899 123.002 310.598 122.744 308.333C124.362 306.531 126.057 304.867 127.525 302.904C130.609 298.829 133.305 294.473 135.576 289.894C138.499 283.613 142.06 277.305 143.002 270.219C143.052 268.719 143.183 266.222 141.894 265.621C141.598 265.542 141.281 265.704 140.988 265.863L139.087 266.928C137.332 267.817 135.732 268.982 134.347 270.38C128.711 276.164 124.453 285.015 123.092 293.563C122.54 297.43 122.678 301.324 122.298 305.199V305.228C122.216 304.732 122.134 304.235 122.028 303.772C121.226 299.819 120.008 296.013 119.206 292.06C118.779 290.057 118.377 288.022 117.951 286.019V285.989C117.961 285.092 117.949 284.377 118.158 283.631C118.556 282.383 119.641 281.07 120.456 279.705C122.299 276.617 123.546 273.133 124.991 269.8C127.285 264.173 129.405 258.419 130.535 252.352C130.829 250.896 131.027 249.423 131.127 247.941C131.316 245.915 129.895 246.287 128.802 247.093C126.611 248.599 124.667 250.435 123.037 252.535C121.594 254.524 120.65 256.952 119.729 259.317C118.385 262.844 117.092 266.485 116.587 270.256C116.365 272.428 116.4 274.619 116.694 276.782C116.847 278.643 117.367 280.334 117.813 282.066C117.916 282.32 117.898 282.741 118.024 282.992C117.874 283.321 117.764 283.667 117.696 284.022L117.631 284.568C117.313 283.178 116.996 281.818 116.63 280.464C115.694 277.366 114.541 274.566 113.583 271.59C112.68 269.055 111.607 266.602 110.657 264.104C110.674 264.048 110.698 263.995 110.727 263.945C110.828 263.735 110.939 263.53 111.061 263.332C111.806 262.245 112.726 261.343 113.52 260.309C114.581 258.971 115.691 257.685 116.651 256.24C117.658 254.63 118.567 252.96 119.374 251.241C121.304 247.454 122.49 243.262 123.331 239.026C123.626 237.523 123.749 236.042 123.949 234.701C124.037 234.093 124.125 233.453 124.164 232.85C124.16 232.582 124.154 232.225 123.93 232.105C123.633 231.967 123.369 232.331 123.151 232.54C122.594 233.094 122.037 233.617 121.479 234.111C119.974 235.331 118.343 236.359 116.99 237.857C114.434 240.585 112.61 243.915 111.688 247.538C111.071 250.429 111.242 253.362 111.24 256.23C111.218 257.905 111.221 259.607 110.926 261.111C110.791 261.876 110.582 262.621 110.398 263.392C109.801 261.788 109.29 260.153 108.867 258.494C108.788 258.157 108.733 257.815 108.703 257.471C108.767 257.355 108.807 257.228 108.82 257.096C108.863 256.803 108.932 256.513 109.027 256.232C109.468 254.619 110.008 253.022 110.251 251.377C110.423 249.86 110.228 248.363 110.153 246.88C109.969 244.151 109.596 241.437 109.037 238.759C107.502 232.457 105.486 226.282 103.008 220.288C102.755 219.843 102.376 217.746 101.82 218.329C101.226 219.604 100.906 221.081 100.461 222.426C98.5756 228.984 98.8622 235.993 100.464 242.196C100.945 244.021 101.533 245.816 102.224 247.571C102.966 249.322 103.951 250.891 104.838 252.502C105.674 254.031 106.584 255.521 107.735 256.707C107.871 256.861 108.021 257 108.184 257.124C108.426 259.026 108.86 260.898 109.481 262.712C106.665 258.973 104.928 253.535 100.953 251.059C99.1627 249.869 97.1353 249.218 95.0637 248.873C93.4963 248.527 91.881 248.454 90.2887 248.656C89.5044 248.823 88.6671 248.757 87.9368 249.215C86.9467 250.335 88.3021 252.002 88.9292 252.753C90.1319 254.113 91.5994 255.108 93.0169 256.08C94.2857 256.953 95.5055 257.862 96.8459 258.605C96.4513 261.556 96.0086 264.572 96.5492 267.546C97.5554 273.501 100.621 278.908 105.162 281.367C106.551 282.104 108.103 282.251 109.608 282.524C110.492 282.666 111.332 283.012 112.059 283.535C113.429 284.633 114.849 285.694 116.41 286.408C116.528 286.473 116.652 286.526 116.781 286.566C117.319 289.33 117.807 292.131 118.393 294.889C119.243 298.775 120.314 302.571 120.871 306.587C120.984 307.468 121.097 308.348 121.184 309.202C119.266 304.685 117.858 299.769 115.356 295.69C113.695 293.036 111.802 290.535 109.7 288.216C108.275 286.767 106.797 285.146 104.942 284.503C101.827 283.493 98.4209 284.284 95.2991 284.38C94.4441 284.736 95.1559 286.162 95.338 286.764C96.5978 290.117 98.7792 292.658 100.934 295.112C103.065 297.6 105.076 300.223 107.423 302.413C109.174 304.206 111.284 305.382 113.417 306.436C114.954 307.242 116.397 308.241 117.864 309.206C118.959 309.942 120.132 310.554 121.362 311.03C121.541 312.947 121.695 314.838 121.849 316.758C122.18 320.446 122.481 323.81 122.541 327.535C122.55 329.564 122.46 331.577 122.321 333.597C120.753 332.467 120.003 330.209 119.132 328.088C117.878 325.093 116.307 322.319 114.689 319.613C113.046 316.909 111.213 314.56 109.573 312.036C107.325 308.459 104.957 304.988 102.251 301.922C100.998 300.539 99.5284 299.394 97.8467 298.817C96.6811 298.229 96.5749 299.259 96.7417 300.431C97.7926 306.052 98.1364 312.037 100.286 317.151C101.126 319.209 102.12 321.2 103.261 323.108C104.045 324.465 104.855 325.848 105.905 326.929C108.58 329.612 111.88 331.403 115.268 332.495C116.455 332.931 117.71 332.94 118.965 332.948C119.565 332.966 120.166 332.925 120.758 332.824L120.881 332.807C121.127 333.15 121.413 333.462 121.732 333.737C121.903 333.888 122.086 334.023 122.28 334.14C121.975 337.914 121.412 341.663 120.594 345.36C120.356 344.314 119.992 343.3 119.512 342.341C118.97 341.381 118.195 340.573 117.26 339.989C115.102 338.879 112.886 338.732 110.802 337.582C108.992 336.693 107.619 335.447 106.046 334.018C105.047 333.109 104.047 332.11 102.81 331.651C100.732 330.918 98.4184 332.308 96.6486 333.892C95.9948 334.519 95.3164 335.148 94.7127 335.828C94.1595 336.59 94.5908 337.397 95.0663 337.9C96.0669 338.929 97.3303 339.474 98.6159 339.896C100.129 340.395 101.616 340.97 103.071 341.62C104.807 342.489 106.593 343.411 108.623 342.717C109.798 342.378 110.846 341.728 111.899 341.525C114.133 341.281 115.987 343.388 117.738 345.152C118.277 345.685 118.931 346.087 119.651 346.325C119.887 346.413 120.141 346.44 120.39 346.404C119.748 349.269 119.156 352.156 118.316 354.958C118.222 355.27 118.222 355.21 118.105 355.554V355.614C118.105 355.644 118.105 355.644 118.082 355.677V355.707C118.059 355.829 118.11 355.941 118.209 355.958C118.497 355.971 118.784 355.912 119.042 355.785C119.389 355.947 119.78 354.281 119.875 354.059C120.412 352.284 120.874 350.459 121.337 348.664C121.87 348.645 122.394 348.523 122.881 348.305C123.327 348.06 123.736 347.753 124.096 347.392C124.147 347.505 124.318 347.481 124.465 347.432C125.249 347.265 126.063 347.364 126.947 347.303C127.969 347.214 128.985 347.065 129.989 346.859C132.464 346.283 134.831 345.125 137.119 343.709C141.074 341.449 144.49 338.355 147.129 334.643C148.065 333.231 149.074 331.78 149.489 330.051C149.557 329.684 149.697 329.217 149.471 328.949C149.245 328.681 148.854 328.853 148.558 328.804C148.006 328.816 147.455 328.781 146.909 328.7C144.911 328.344 142.889 328.021 140.807 328.574C136.545 329.601 130.897 334.67 128.562 339.288C127.462 341.289 126.763 343.593 125.536 345.284C124.866 346.145 124.094 346.922 123.238 347.598C122.738 347.937 122.153 348.13 121.549 348.155L121.501 348.162C121.685 347.42 121.869 346.649 122.054 345.907C123.029 341.308 123.692 336.648 124.04 331.96ZM113.593 284.073C113.565 284.041 113.531 284.015 113.493 283.997C113.513 283.725 113.286 283.398 113.282 283.1C113.035 281.551 112.813 279.968 112.249 278.552C111.117 275.51 109.573 272.823 108.077 270.07C106.655 267.366 104.943 264.911 103.352 262.35L102.593 261.11C103.163 261.331 103.707 261.555 104.277 261.777C105.962 262.474 107.623 263.293 109.422 263.616C109.472 263.639 109.521 263.632 109.571 263.655C109.62 263.679 109.646 263.735 109.695 263.758L109.744 263.751C110.287 265.35 110.903 266.909 111.445 268.478C112.267 270.666 112.865 272.615 113.541 274.853C114.266 277.143 114.988 279.106 115.568 281.475C115.91 282.892 116.205 284.345 116.474 285.772C115.464 285.295 114.499 284.726 113.593 284.073Z" fill="#98DED9"/>
<path d="M132.936 334.612C133.62 334.575 134.229 334.688 134.968 334.607C134.989 334.605 135.021 334.589 135.043 334.587C136.415 335.151 138.021 335.85 139.557 336.178C141.989 336.684 144.525 336.567 147.021 336.194C150.128 335.829 153.18 334.688 156.059 332.976C157.278 332.173 160.237 330.845 160.368 329.009C160.151 327.647 157.543 326.702 156.532 326.339C152.517 325.01 148.186 324.972 144.148 326.23C141.44 327.157 139.026 329.399 137.373 332.222C136.969 332.82 136.478 333.582 135.959 333.969C135.668 334.152 135.343 334.275 135.003 334.33C134.976 334.32 134.947 334.313 134.917 334.312C134.887 334.317 134.86 334.334 134.842 334.359C134.425 334.388 134.006 334.378 133.591 334.331C133.474 334.329 133.345 334.34 133.227 334.338C133.629 333.897 134.03 333.456 134.432 332.989C136.064 330.963 137.484 328.721 138.925 326.503C139.7 325.35 140.475 324.171 141.218 322.982C142.501 323.046 143.761 323.216 145.045 323.124C147.729 322.951 150.378 322.431 152.927 321.577C156.367 320.296 160.059 319.356 163.047 316.605C163.623 315.94 164.6 314.859 164.334 313.867C164.242 313.689 164.088 313.55 163.901 313.477L162.785 312.916C161.839 312.37 160.792 312.019 159.708 311.883C155.426 311.431 150.525 313.16 146.835 316.353C145.19 317.834 143.796 319.708 142.213 321.287L142.202 321.301C142.356 321.027 142.509 320.752 142.641 320.479C143.805 318.209 144.757 315.776 145.921 313.506C146.504 312.345 147.107 311.181 147.689 310.019L147.7 310.005C147.966 309.633 148.288 309.305 148.654 309.031C149.269 308.675 150.167 308.67 150.983 308.491C152.828 308.086 154.594 307.168 156.379 306.43C159.338 305.102 162.278 303.619 164.959 301.443C165.623 300.923 166.246 300.351 166.822 299.734C167.645 298.902 166.969 298.287 166.255 298.053C164.915 297.543 163.484 297.311 162.05 297.372C160.766 297.491 159.506 298.089 158.279 298.671C156.46 299.555 154.618 300.52 153.027 301.983C152.105 302.902 151.304 303.935 150.643 305.056C150.011 306 149.579 307.07 149.105 308.117C149.049 308.291 148.887 308.476 148.841 308.662C148.658 308.734 148.487 308.833 148.335 308.956L148.107 309.173C148.503 308.354 148.888 307.55 149.252 306.722C150.048 304.772 150.651 302.84 151.393 300.935C151.993 299.263 152.497 297.536 153.065 295.855C153.092 295.839 153.121 295.828 153.151 295.821C153.267 295.78 153.385 295.747 153.505 295.723C154.191 295.634 154.874 295.727 155.559 295.69C156.46 295.694 157.361 295.646 158.257 295.546C159.24 295.359 160.205 295.091 161.144 294.745C163.282 294.067 165.288 292.787 167.18 291.297C167.85 290.766 168.446 290.15 169.02 289.641C169.28 289.409 169.55 289.163 169.789 288.906C169.852 288.845 169.902 288.771 169.934 288.69C169.966 288.608 169.981 288.52 169.976 288.433C169.915 288.204 169.68 288.226 169.519 288.201C169.103 288.148 168.698 288.081 168.303 288C167.279 287.73 166.28 287.301 165.211 287.243C163.222 287.088 161.241 287.63 159.608 288.776C158.3 289.769 157.275 291.219 156.21 292.543C155.579 293.305 154.948 294.093 154.278 294.624C153.943 294.902 153.587 295.13 153.231 295.384C153.586 294.414 153.986 293.282 154.471 292.272C154.563 292.077 154.67 291.889 154.789 291.709C154.858 291.69 154.922 291.652 154.972 291.6C155.094 291.491 155.228 291.396 155.371 291.316C156.137 290.816 156.935 290.377 157.638 289.752C158.266 289.147 158.748 288.347 159.271 287.621C160.234 286.226 161.1 284.766 161.864 283.251C163.656 279.401 165.185 275.433 166.439 271.376C166.507 271.031 167.144 269.852 166.716 269.813C166.018 270.073 165.348 270.577 164.68 270.952C161.531 272.936 159.037 276.332 157.34 280.085C156.837 281.214 156.393 282.368 156.01 283.543C155.641 284.763 155.432 286.033 155.169 287.269C154.893 288.433 154.737 289.622 154.705 290.817C154.699 290.965 154.704 291.112 154.72 291.259C154.089 292.306 153.559 293.411 153.136 294.558C153.458 291.271 154.82 287.797 154.233 284.449C153.988 282.959 153.509 281.517 152.814 280.176C152.371 279.183 151.789 278.258 151.086 277.429C150.727 277.072 150.434 276.577 149.988 276.384C149.196 276.353 149.091 277.874 149.049 278.568C149.039 279.843 149.144 281.115 149.362 282.371C149.519 283.477 149.643 284.573 149.875 285.659C148.63 286.803 147.342 287.952 146.442 289.624C144.612 292.933 143.765 297.129 144.572 300.781C144.825 301.891 145.358 302.82 145.826 303.78C146.114 304.352 146.301 304.969 146.38 305.605C146.463 306.866 146.657 308.117 146.961 309.343C146.981 309.438 147.009 309.531 147.043 309.622C146.22 311.197 145.365 312.761 144.563 314.359C143.441 316.626 142.437 318.973 141.157 321.136C140.872 321.606 140.588 322.075 140.304 322.517C141.255 319.367 142.547 316.316 143.115 313.046C143.474 310.867 143.685 308.666 143.748 306.459C143.746 305 143.788 303.432 143.324 302.107C142.519 299.914 140.935 298.392 139.717 296.706C139.261 296.396 139.001 297.449 138.846 297.829C138.078 300.075 137.961 302.458 137.866 304.786C137.749 307.116 137.537 309.443 137.613 311.755C137.61 313.553 137.973 315.265 138.389 316.934C138.672 318.159 138.848 319.42 139.044 320.678C139.185 321.621 139.401 322.552 139.692 323.46C139.048 324.444 138.405 325.402 137.75 326.375C136.505 328.262 135.37 329.982 134.01 331.736C133.259 332.678 132.478 333.559 131.675 334.414C131.501 333.023 132.055 331.565 132.513 330.102C133.124 328.007 133.613 325.878 133.977 323.726C134.359 321.567 134.537 319.465 134.853 317.39C135.361 314.504 135.689 311.588 135.836 308.66C135.901 307.348 135.727 306.035 135.321 304.786C135.098 303.868 134.675 304.285 134.303 304.919C132.614 308.097 130.521 311.053 129.436 314.606C128.983 316.049 128.621 317.518 128.351 319.005C128.111 320.067 127.971 321.149 127.933 322.236C127.976 324.889 128.477 327.514 129.413 329.996C129.717 330.802 130.132 331.562 130.645 332.254C130.859 332.587 131.102 332.9 131.37 333.19L131.423 333.251C131.388 333.55 131.381 333.852 131.4 334.152C131.408 334.316 131.427 334.48 131.457 334.642C129.974 336.186 128.367 337.607 126.652 338.89C126.958 338.252 127.196 337.583 127.363 336.896C127.514 336.125 127.521 335.334 127.383 334.561C126.978 332.853 126.193 331.556 125.831 329.87C125.475 328.456 125.418 327.119 125.353 325.588C125.312 324.614 125.304 323.599 125.006 322.701C124.491 321.211 123.099 320.57 121.84 320.321C121.359 320.236 120.875 320.176 120.388 320.143C119.895 320.188 119.759 320.8 119.752 321.296C119.78 322.287 119.984 323.265 120.355 324.185C120.737 325.257 121.097 326.332 121.403 327.45C121.738 328.814 122.072 330.229 123.099 331.034C123.67 331.529 124.307 331.808 124.782 332.299C125.718 333.424 125.639 335.426 125.648 337.21C125.654 337.756 125.752 338.298 125.937 338.812C125.99 338.976 126.075 339.128 126.188 339.258C124.881 340.226 123.584 341.231 122.225 342.06C122.074 342.152 122.096 342.124 121.923 342.218L121.902 342.246C121.891 342.26 121.891 342.26 121.869 342.262L121.859 342.276C121.831 342.298 121.812 342.328 121.804 342.362C121.796 342.396 121.799 342.432 121.813 342.463C121.908 342.619 122.038 342.75 122.193 342.846C122.265 343.113 123.031 342.56 123.15 342.51C124.012 341.987 124.865 341.4 125.707 340.828C125.901 341.1 126.145 341.334 126.425 341.517C126.674 341.648 126.945 341.734 127.224 341.769C127.2 341.85 127.275 341.933 127.349 341.992C127.708 342.35 127.98 342.846 128.337 343.309C128.75 343.825 129.189 344.32 129.654 344.79C132.689 347.461 136.645 348.844 140.683 348.647C141.562 348.514 142.484 348.403 143.283 347.834C143.445 347.702 143.671 347.564 143.685 347.315C143.699 347.066 143.487 346.929 143.393 346.743C143.176 346.436 142.981 346.114 142.808 345.78C142.184 344.509 141.537 343.239 140.544 342.34C138.548 340.452 134.526 339.663 131.927 340.502C130.767 340.817 129.646 341.494 128.554 341.595C127.97 341.62 127.385 341.551 126.824 341.389C126.482 341.249 126.188 341.014 125.977 340.711L125.956 340.687C126.301 340.447 126.658 340.193 127.003 339.952C129.12 338.333 131.104 336.547 132.936 334.612ZM146.76 306.704C146.762 306.673 146.759 306.643 146.751 306.613C146.859 306.499 146.895 306.222 147.004 306.082C147.526 305.237 147.961 304.342 148.302 303.409C149.002 301.376 149.415 299.279 149.871 297.179C150.336 295.143 150.599 293.059 150.947 290.994L151.121 290.001C151.254 290.419 151.378 290.824 151.511 291.241C151.89 292.496 152.215 293.795 152.777 294.942C152.788 294.981 152.809 295.005 152.819 295.043C152.829 295.081 152.819 295.121 152.828 295.16L152.849 295.183C152.461 296.222 152.115 297.284 151.738 298.309C151.237 299.775 150.739 301.007 150.164 302.415C149.589 303.875 149.133 305.181 148.472 306.597C148.076 307.442 147.648 308.276 147.22 309.084C147.014 308.302 146.861 307.507 146.76 306.704Z" fill="#42C2B9"/>
<path fill-rule="evenodd" clip-rule="evenodd" d="M102.182 344.992H148.933C148.933 344.992 145.718 351.141 142.661 356.99C141.027 360.113 138.57 362.73 135.555 364.556C132.54 366.382 129.083 367.347 125.558 367.347C122.033 367.347 118.576 366.381 115.561 364.556C112.546 362.73 110.088 360.113 108.455 356.99C105.397 351.14 102.182 344.992 102.182 344.992Z" fill="#B2B7F0"/>
<mask id="mask0_2288_370" style="mask-type:luminance" maskUnits="userSpaceOnUse" x="102" y="344" width="47" height="24">
<path d="M102.182 344.992H148.933C148.933 344.992 145.718 351.141 142.661 356.99C141.027 360.113 138.57 362.73 135.555 364.556C132.54 366.382 129.083 367.347 125.558 367.347C122.033 367.347 118.576 366.381 115.561 364.556C112.546 362.73 110.088 360.113 108.455 356.99C105.397 351.14 102.182 344.992 102.182 344.992Z" fill="white"/>
</mask>
<g mask="url(#mask0_2288_370)">
<path fill-rule="evenodd" clip-rule="evenodd" d="M143.761 344.991C135.914 344.7 108.408 343.659 101.843 344.991C99.1012 345.549 104.365 352.994 104.365 352.994C104.365 352.994 142.364 348.075 148.929 346.741C150.711 346.379 145.579 345.06 143.761 344.991Z" fill="black" fill-opacity="0.2"/>
</g>
<path fill-rule="evenodd" clip-rule="evenodd" d="M150.805 339.881H100.308V339.888C100.308 340.788 100.485 341.679 100.829 342.511C101.173 343.342 101.678 344.097 102.315 344.734C102.951 345.37 103.706 345.875 104.538 346.219C105.369 346.563 106.26 346.741 107.16 346.741H143.952C144.852 346.741 145.743 346.563 146.575 346.219C147.406 345.875 148.161 345.37 148.798 344.734C149.434 344.097 149.939 343.342 150.283 342.511C150.628 341.679 150.805 340.788 150.805 339.888V339.881Z" fill="#1A2283"/>
<path fill-rule="evenodd" clip-rule="evenodd" d="M359.616 111.141C359.616 107.903 358.329 104.798 356.04 102.508C353.75 100.219 350.645 98.9326 347.407 98.9326H284.528C281.29 98.9326 278.184 100.219 275.895 102.508C273.605 104.798 272.319 107.903 272.318 111.141V111.148C272.319 114.386 273.605 117.492 275.895 119.781C278.184 122.07 281.29 123.357 284.528 123.357H347.407C350.645 123.357 353.75 122.07 356.04 119.781C358.329 117.492 359.616 114.386 359.616 111.148V111.141Z" fill="#737CE3"/>
<path fill-rule="evenodd" clip-rule="evenodd" d="M321.242 115.905C321.095 116.097 320.738 116.001 320.25 115.638C319.645 115.154 319.105 114.593 318.644 113.97L315.667 110.093C315.161 109.446 314.731 108.744 314.386 107.999C314.107 107.365 314.035 106.899 314.182 106.708C314.329 106.515 314.686 106.611 315.173 106.974C315.779 107.458 316.319 108.019 316.78 108.642L319.757 112.52C320.263 113.166 320.692 113.868 321.038 114.613C321.316 115.247 321.389 115.713 321.242 115.905Z" fill="white"/>
<path fill-rule="evenodd" clip-rule="evenodd" d="M321.068 106.681C321.216 106.873 321.142 107.338 320.863 107.972C320.518 108.717 320.088 109.419 319.583 110.065L316.606 113.943C316.144 114.566 315.604 115.127 314.999 115.612C314.511 115.974 314.155 116.07 314.007 115.877C313.86 115.685 313.933 115.221 314.211 114.586C314.557 113.841 314.987 113.139 315.492 112.493L318.469 108.615C318.931 107.992 319.471 107.431 320.076 106.947C320.563 106.584 320.92 106.488 321.068 106.681Z" fill="white"/>
<path fill-rule="evenodd" clip-rule="evenodd" d="M322.645 111.091C322.645 111.363 322.341 111.624 321.799 111.817C321.139 112.027 320.45 112.128 319.757 112.117H315.549C314.856 112.129 314.166 112.027 313.507 111.817C312.965 111.625 312.661 111.364 312.661 111.091C312.661 110.82 312.965 110.559 313.507 110.366C314.166 110.156 314.856 110.055 315.549 110.066H319.759C320.451 110.055 321.141 110.156 321.8 110.366C322.342 110.558 322.646 110.819 322.646 111.091H322.645ZM306.075 115.905C305.928 116.097 305.571 116.001 305.083 115.638C304.478 115.154 303.938 114.593 303.477 113.97L300.5 110.093C299.994 109.446 299.564 108.744 299.219 107.999C298.94 107.365 298.868 106.899 299.015 106.708C299.162 106.515 299.519 106.611 300.006 106.974C300.612 107.458 301.152 108.019 301.613 108.642L304.59 112.52C305.096 113.166 305.526 113.868 305.871 114.613C306.149 115.247 306.222 115.713 306.075 115.905Z" fill="white"/>
<path fill-rule="evenodd" clip-rule="evenodd" d="M305.901 106.681C306.048 106.873 305.975 107.338 305.696 107.972C305.351 108.717 304.921 109.419 304.416 110.065L301.439 113.944C300.977 114.567 300.437 115.128 299.832 115.612C299.344 115.975 298.988 116.07 298.84 115.878C298.693 115.686 298.766 115.221 299.044 114.587C299.39 113.842 299.82 113.14 300.325 112.493L303.302 108.616C303.763 107.993 304.304 107.432 304.909 106.948C305.396 106.585 305.753 106.489 305.901 106.681V106.681Z" fill="white"/>
<path fill-rule="evenodd" clip-rule="evenodd" d="M307.478 111.091C307.478 111.363 307.173 111.624 306.632 111.817C305.972 112.027 305.282 112.128 304.59 112.117H300.38C299.688 112.129 298.998 112.027 298.338 111.817C297.797 111.625 297.493 111.364 297.493 111.091C297.493 110.82 297.797 110.559 298.338 110.366C298.998 110.156 299.688 110.055 300.38 110.066H304.59C305.282 110.055 305.972 110.156 306.632 110.366C307.173 110.558 307.478 110.819 307.478 111.091ZM290.965 115.905C290.817 116.097 290.46 116.001 289.973 115.638C289.368 115.154 288.827 114.593 288.366 113.97L285.389 110.093C284.884 109.446 284.454 108.744 284.108 107.999C283.83 107.365 283.758 106.899 283.904 106.708C284.052 106.515 284.408 106.611 284.896 106.974C285.501 107.458 286.041 108.019 286.503 108.642L289.479 112.52C289.985 113.166 290.415 113.868 290.76 114.613C291.039 115.247 291.111 115.713 290.965 115.905Z" fill="white"/>
<path fill-rule="evenodd" clip-rule="evenodd" d="M290.792 106.681C290.939 106.873 290.865 107.338 290.587 107.972C290.242 108.717 289.812 109.419 289.306 110.065L286.329 113.943C285.868 114.566 285.328 115.127 284.722 115.612C284.235 115.974 283.878 116.07 283.731 115.877C283.583 115.685 283.657 115.221 283.935 114.586C284.281 113.841 284.71 113.139 285.216 112.493L288.193 108.615C288.654 107.992 289.194 107.431 289.8 106.947C290.287 106.584 290.644 106.488 290.792 106.681Z" fill="white"/>
<path fill-rule="evenodd" clip-rule="evenodd" d="M292.368 111.092C292.368 111.363 292.064 111.624 291.522 111.817C290.862 112.027 290.173 112.129 289.48 112.117H285.27C284.578 112.129 283.888 112.027 283.228 111.817C282.687 111.625 282.383 111.364 282.383 111.092C282.383 110.82 282.687 110.559 283.228 110.366C283.888 110.156 284.578 110.055 285.27 110.066H289.481C290.173 110.055 290.863 110.156 291.523 110.366C292.064 110.558 292.369 110.819 292.369 111.092H292.368ZM349.765 115.906C349.618 116.098 349.261 116.002 348.774 115.639C348.168 115.155 347.628 114.594 347.167 113.971L344.19 110.093C343.684 109.447 343.254 108.745 342.909 108C342.631 107.365 342.558 106.9 342.705 106.708C342.852 106.516 343.209 106.612 343.696 106.975C344.302 107.459 344.842 108.02 345.304 108.643L348.28 112.521C348.786 113.167 349.216 113.869 349.561 114.614C349.839 115.248 349.912 115.713 349.765 115.906Z" fill="white"/>
<path fill-rule="evenodd" clip-rule="evenodd" d="M349.59 106.682C349.738 106.874 349.664 107.339 349.386 107.974C349.04 108.718 348.611 109.421 348.105 110.067L345.128 113.944C344.667 114.568 344.127 115.129 343.521 115.613C343.034 115.976 342.677 116.071 342.53 115.879C342.382 115.687 342.455 115.222 342.734 114.588C343.079 113.843 343.509 113.14 344.015 112.494L346.992 108.617C347.453 107.993 347.993 107.433 348.598 106.948C349.086 106.586 349.442 106.49 349.59 106.682Z" fill="white"/>
<path fill-rule="evenodd" clip-rule="evenodd" d="M351.168 111.092C351.168 111.364 350.863 111.625 350.322 111.818C349.662 112.028 348.972 112.13 348.28 112.118H344.07C343.378 112.13 342.688 112.028 342.028 111.818C341.487 111.625 341.182 111.365 341.182 111.092C341.182 110.82 341.487 110.56 342.028 110.367C342.688 110.157 343.378 110.055 344.07 110.067H348.28C348.972 110.055 349.662 110.157 350.322 110.367C350.863 110.559 351.168 110.82 351.168 111.092ZM334.655 115.906C334.508 116.098 334.151 116.002 333.664 115.639C333.058 115.155 332.518 114.594 332.057 113.971L329.08 110.093C328.574 109.447 328.144 108.745 327.799 108C327.521 107.365 327.448 106.9 327.595 106.708C327.742 106.516 328.099 106.612 328.586 106.975C329.192 107.459 329.732 108.02 330.193 108.643L333.17 112.521C333.676 113.167 334.105 113.869 334.451 114.614C334.729 115.248 334.803 115.713 334.655 115.906Z" fill="white"/>
<path fill-rule="evenodd" clip-rule="evenodd" d="M334.481 106.682C334.628 106.874 334.555 107.339 334.276 107.974C333.931 108.718 333.501 109.421 332.996 110.067L330.019 113.944C329.557 114.568 329.017 115.129 328.412 115.613C327.925 115.976 327.568 116.071 327.42 115.879C327.273 115.687 327.346 115.222 327.625 114.588C327.97 113.843 328.4 113.14 328.905 112.494L331.882 108.617C332.343 107.993 332.884 107.433 333.489 106.948C333.976 106.586 334.333 106.49 334.481 106.682Z" fill="white"/>
<path fill-rule="evenodd" clip-rule="evenodd" d="M336.058 111.092C336.058 111.364 335.754 111.625 335.213 111.818C334.553 112.028 333.863 112.13 333.171 112.118H328.961C328.268 112.13 327.579 112.028 326.919 111.818C326.377 111.625 326.073 111.365 326.073 111.092C326.073 110.82 326.377 110.56 326.919 110.367C327.579 110.157 328.268 110.055 328.961 110.067H333.171C333.863 110.055 334.553 110.157 335.213 110.367C335.754 110.559 336.058 110.82 336.058 111.092Z" fill="white"/>
<path fill-rule="evenodd" clip-rule="evenodd" d="M224.511 77.7964C227.448 77.7969 230.289 78.8371 232.531 80.7326C234.773 82.6281 236.272 85.2565 236.761 88.1516C241.233 114.639 253.099 184.919 258.254 215.444C258.555 217.225 258.463 219.051 257.986 220.793C257.51 222.535 256.658 224.153 255.492 225.532C254.326 226.912 252.873 228.02 251.234 228.781C249.595 229.541 247.811 229.935 246.004 229.935H135.338C132.402 229.934 129.561 228.894 127.319 226.999C125.077 225.103 123.578 222.474 123.09 219.579C118.617 193.092 106.751 122.812 101.596 92.2868C101.295 90.5057 101.387 88.6806 101.864 86.9385C102.342 85.1965 103.193 83.5795 104.359 82.2001C105.525 80.8207 106.978 79.7121 108.616 78.9516C110.255 78.191 112.039 77.7968 113.845 77.7964H224.511Z" fill="#192280"/>
<path fill-rule="evenodd" clip-rule="evenodd" d="M144.419 219.593C141.483 219.593 138.642 218.553 136.399 216.658C134.157 214.762 132.658 212.133 132.17 209.238C127.963 184.322 117.266 120.962 112.424 92.2868C112.123 90.5058 112.214 88.6806 112.691 86.9384C113.168 85.1962 114.019 83.579 115.185 82.1995C116.351 80.8199 117.804 79.7113 119.442 78.9509C121.08 78.1904 122.865 77.7964 124.671 77.7964H226.102C229.039 77.7961 231.88 78.8361 234.123 80.7317C236.365 82.6274 237.864 85.2562 238.352 88.1516C242.56 113.068 253.258 176.428 258.098 205.103C258.399 206.884 258.308 208.709 257.831 210.451C257.354 212.194 256.503 213.811 255.337 215.19C254.171 216.57 252.718 217.678 251.08 218.439C249.441 219.199 247.657 219.593 245.851 219.593H144.419Z" fill="#E7E7E7"/>
<path fill-rule="evenodd" clip-rule="evenodd" d="M176.805 99.6657C178.886 99.4004 181.05 99.1189 183.25 98.9729C184.666 98.8793 186.099 98.8229 187.521 98.8655C189.853 98.947 192.172 99.2496 194.446 99.7692C194.961 99.86 195.491 99.7438 195.92 99.4459C196.35 99.148 196.644 98.6925 196.74 98.1785C196.835 97.6645 196.724 97.1337 196.429 96.7016C196.135 96.2694 195.683 95.9709 195.169 95.8709C192.71 95.5082 190.155 95.4455 187.578 95.4373C186.084 95.4334 184.585 95.4334 183.096 95.4657C180.831 95.5164 178.594 95.5955 176.44 95.7191C176.181 95.7422 175.928 95.8164 175.697 95.9373C175.466 96.0583 175.261 96.2237 175.094 96.424C174.927 96.6244 174.801 96.8557 174.723 97.1048C174.646 97.3538 174.619 97.6157 174.643 97.8754C174.667 98.1351 174.742 98.3876 174.863 98.6182C174.985 98.8489 175.151 99.0532 175.352 99.2195C175.553 99.3859 175.785 99.5109 176.034 99.5875C176.283 99.664 176.545 99.6906 176.805 99.6657ZM176.726 113.856C178.922 113.711 187.649 113.524 196.28 113.465C201.069 113.433 205.827 113.489 209.445 113.397C210.888 113.358 212.154 113.311 213.175 113.238C213.699 113.19 214.181 112.935 214.517 112.531C214.853 112.126 215.014 111.605 214.965 111.082C214.916 110.558 214.662 110.076 214.257 109.74C213.853 109.404 213.332 109.243 212.808 109.292C209.7 109.638 204.222 109.932 198.433 110.029C195.516 110.078 192.523 110.06 189.715 110.035C183.497 109.98 178.179 109.841 176.519 109.897C175.994 109.925 175.502 110.16 175.15 110.55C174.798 110.941 174.616 111.455 174.643 111.98C174.671 112.505 174.905 112.998 175.296 113.35C175.687 113.702 176.201 113.884 176.726 113.856ZM176.904 130.144C183.944 130 190.693 129.808 197.312 129.591C201.895 129.443 206.415 129.261 210.926 129.074C218.44 128.762 225.927 128.414 233.626 127.792C233.886 127.769 234.139 127.695 234.371 127.574C234.602 127.453 234.808 127.288 234.975 127.087C235.142 126.887 235.269 126.655 235.346 126.406C235.424 126.156 235.451 125.894 235.427 125.634C235.403 125.374 235.327 125.121 235.205 124.89C235.083 124.659 234.916 124.455 234.715 124.289C234.513 124.122 234.281 123.998 234.031 123.921C233.781 123.845 233.519 123.819 233.259 123.845C225.637 124.643 218.223 125.275 210.77 125.65C206.284 125.875 201.784 125.999 197.221 126.082C190.62 126.203 183.887 126.193 176.867 126.181C176.341 126.186 175.839 126.399 175.471 126.774C175.103 127.149 174.899 127.655 174.904 128.181C174.909 128.706 175.122 129.208 175.497 129.577C175.872 129.945 176.378 130.149 176.904 130.144ZM159.066 184.449C159.037 184.421 159.021 184.374 158.991 184.337C158.879 184.194 158.784 184.039 158.707 183.875C158.441 183.291 158.242 182.678 158.115 182.048C157.722 180.287 157.607 178.385 157.493 177.556L156.819 171.896C156.413 168.195 156.117 164.321 155.443 160.557C155.006 157.951 154.299 155.398 153.334 152.938C151.683 148.862 149.13 147.758 146.755 148.112C144.626 148.43 142.344 150.203 140.651 152.886C140.259 153.509 139.885 154.143 139.53 154.788C139.012 155.728 138.524 156.687 138.041 157.647C137.217 159.288 136.416 160.941 135.689 162.627C135.197 163.77 134.737 164.927 134.323 166.102C134.157 166.597 134.192 167.138 134.422 167.606C134.653 168.075 135.058 168.434 135.552 168.606C136.045 168.777 136.586 168.746 137.057 168.521C137.528 168.295 137.891 167.892 138.067 167.401C138.535 166.033 139.072 164.692 139.65 163.368C140.239 162.021 140.871 160.694 141.52 159.375C141.971 158.458 142.427 157.542 142.913 156.642C143.228 156.059 143.559 155.484 143.906 154.92C144.897 153.321 146.068 152.053 147.33 151.852C148.37 151.689 149.146 152.576 149.883 154.355C150.771 156.568 151.427 158.868 151.838 161.217C152.529 164.894 152.837 168.681 153.261 172.297L153.984 178.05C154.16 179.279 154.397 182.655 155.327 184.896C156.022 186.567 157.139 187.665 158.49 187.904C159.91 188.156 161.365 187.41 162.536 185.878C164.035 183.915 165.184 180.588 165.652 179.502C167.615 174.948 169.18 170.213 171.001 165.595C171.763 163.658 172.575 161.746 173.481 159.872C173.99 158.819 174.63 157.292 175.544 156.14C175.961 155.615 176.419 155.147 177.018 155.031C177.798 154.879 178.438 155.408 179.099 156.024C180.312 157.155 181.427 158.782 182.545 160.157C183.635 161.495 184.758 162.603 185.886 163.15C187.019 163.686 188.269 163.924 189.519 163.843C191.464 163.756 193.497 163.01 195.482 162.425C196.995 161.98 198.466 161.559 199.791 162.169C200.916 162.688 201.602 163.837 202.2 165.103C203.349 167.538 204.05 170.468 205.061 172.37C206.672 175.395 208.925 177.067 211.486 177.891C215.025 179.034 219.256 178.436 223.259 177.397C223.511 177.33 223.747 177.215 223.954 177.057C224.16 176.899 224.334 176.702 224.465 176.477C224.595 176.251 224.681 176.003 224.715 175.745C224.75 175.487 224.733 175.225 224.666 174.973C224.6 174.721 224.484 174.486 224.326 174.279C224.168 174.072 223.971 173.898 223.746 173.767C223.52 173.637 223.272 173.552 223.014 173.517C222.756 173.483 222.494 173.499 222.242 173.566C219.517 174.301 216.666 174.875 214.097 174.528C211.804 174.22 209.771 173.112 208.388 170.577C207.19 168.383 206.399 164.801 204.844 162.226C203.932 160.718 202.784 159.513 201.307 158.846C200.139 158.337 198.858 158.145 197.593 158.289C195.713 158.465 193.717 159.249 191.743 159.819C190.253 160.249 188.778 160.607 187.414 159.961C186.324 159.442 185.345 158.065 184.28 156.711C182.977 155.058 181.615 153.388 180.161 152.464C178.966 151.702 177.697 151.376 176.352 151.645C175.252 151.889 174.252 152.461 173.485 153.286C172.091 154.705 171.107 156.911 170.4 158.388C169.464 160.337 168.627 162.33 167.833 164.344C166.023 168.927 164.447 173.618 162.488 178.132C162.167 178.869 161.523 180.743 160.646 182.391C160.349 182.98 159.984 183.532 159.56 184.038C159.409 184.191 159.243 184.328 159.066 184.449ZM140.547 199.787C145.304 199.742 150.062 199.633 154.819 199.509C164.317 199.26 173.815 198.84 183.314 198.486C192.804 198.131 202.291 197.864 211.772 197.594C212.034 197.587 212.292 197.528 212.531 197.42C212.769 197.313 212.985 197.159 213.164 196.968C213.343 196.777 213.482 196.552 213.574 196.306C213.665 196.061 213.707 195.8 213.698 195.538C213.688 195.276 213.626 195.019 213.516 194.781C213.406 194.543 213.25 194.33 213.057 194.153C212.864 193.976 212.638 193.839 212.392 193.749C212.145 193.66 211.884 193.621 211.622 193.633C203.094 194.04 194.563 194.543 186.02 194.93C180.337 195.189 174.651 195.399 168.962 195.558C159.49 195.822 150.019 195.91 140.548 195.824C140.023 195.824 139.519 196.032 139.147 196.404C138.775 196.776 138.567 197.28 138.567 197.805C138.567 198.331 138.775 198.835 139.147 199.206C139.519 199.578 140.023 199.787 140.548 199.787H140.547ZM141.904 209.286C144.171 209.309 146.441 209.204 148.72 209.098C150.213 209.03 151.708 208.942 153.206 208.898C155.68 208.828 158.149 208.851 160.605 208.878C161.127 208.86 161.621 208.637 161.979 208.257C162.338 207.876 162.532 207.37 162.518 206.848C162.505 206.326 162.286 205.83 161.909 205.468C161.533 205.106 161.028 204.908 160.506 204.917C158.644 205.036 156.785 205.217 154.91 205.348C153.68 205.433 152.446 205.514 151.213 205.551C148.167 205.632 145.119 205.557 142.081 205.326C141.82 205.313 141.56 205.352 141.314 205.44C141.068 205.528 140.842 205.664 140.649 205.84C140.456 206.015 140.3 206.227 140.189 206.464C140.078 206.7 140.015 206.956 140.004 207.217C139.992 207.478 140.032 207.738 140.121 207.983C140.211 208.229 140.348 208.454 140.524 208.646C140.701 208.838 140.914 208.993 141.151 209.103C141.388 209.213 141.644 209.275 141.905 209.285L141.904 209.286Z" fill="white"/>
<path fill-rule="evenodd" clip-rule="evenodd" d="M161.148 127.709C161.544 127.586 161.891 127.341 162.14 127.01C162.389 126.679 162.528 126.277 162.536 125.863C165.332 121.761 167.01 117 167.403 112.051C167.892 105.989 166.431 99.8014 162.788 94.6714C159.828 90.4896 154.751 87.511 150.054 87.5864C147.051 87.6332 144.162 88.8546 141.956 91.7417C140.454 92.359 139.104 93.2974 138.003 94.4912C135.701 96.886 133.924 100.253 132.867 102.506C129.897 108.82 128.677 117.305 130.956 124.128C132.548 128.893 135.788 132.884 141.255 134.902C142.242 135.269 143.267 135.526 144.31 135.67C145.352 135.816 146.406 135.85 147.455 135.772C150.041 135.544 152.537 134.714 154.745 133.348C156.873 132.044 158.791 130.424 160.434 128.545C160.678 128.271 160.916 127.992 161.148 127.709ZM158.16 125.96C157.692 125.343 157.23 124.72 156.774 124.092C155.107 121.791 153.517 119.442 151.837 117.137C151.313 116.377 150.743 115.65 150.131 114.96C149.653 114.456 149.134 113.99 148.51 113.837C148.083 113.736 147.688 114.022 147.294 114.285C146.636 114.761 146.02 115.292 145.452 115.871C143.74 117.509 142.046 119.285 140.431 121.131C138.9 122.886 137.441 124.704 136.059 126.579C137.595 128.914 139.844 130.691 142.471 131.644C143.222 131.928 144.002 132.129 144.796 132.242C145.593 132.356 146.399 132.385 147.201 132.327C149.254 132.148 151.236 131.489 152.988 130.404C154.82 129.286 156.47 127.895 157.883 126.279C157.977 126.175 158.07 126.067 158.16 125.96ZM160.509 122.668C162.467 119.351 163.631 115.626 163.91 111.784C164.291 106.548 162.993 101.212 159.802 96.8151C157.895 94.1973 154.931 92.1585 151.928 91.5857C150.014 91.219 148.089 91.5155 146.484 92.7365C146.525 92.8946 146.546 93.0574 146.545 93.2208C146.545 93.348 146.533 93.4749 146.508 93.5997L147.323 96.4968C147.783 98.5312 148.15 100.563 148.553 102.583C148.822 103.94 149.114 105.288 149.377 106.648C149.645 108.023 149.904 109.401 150.133 110.795C150.854 111.117 151.517 111.556 152.096 112.094C153.077 112.975 153.92 114.116 154.625 115.025C156.138 116.952 157.583 118.918 159.074 120.848C159.547 121.458 160.025 122.065 160.51 122.668H160.509ZM143.226 95.8608C142.968 95.9102 142.703 95.9067 142.446 95.8505C141.845 96.236 141.292 96.6925 140.799 97.2101C138.777 99.2667 137.237 102.196 136.297 104.141C134.084 108.718 132.877 114.618 133.653 119.928C133.782 120.821 133.975 121.704 134.229 122.569C135.345 121.233 136.498 119.927 137.686 118.655C139.43 116.783 141.243 114.98 143.079 113.322C143.888 112.581 145 111.555 146.191 110.959C146.004 108.738 145.794 106.546 145.411 104.374C144.998 102.024 144.39 99.712 143.776 97.3741C143.62 96.8603 143.437 96.3552 143.227 95.8608H143.226Z" fill="#737CE3"/>
<path fill-rule="evenodd" clip-rule="evenodd" d="M379.37 344.876C382.295 338.887 395.078 357.161 390.192 361.702C383.453 367.967 345.109 383.383 338.93 382.464C332.751 381.545 346.385 362.444 353.124 356.179C359.863 349.914 371.209 361.58 379.37 344.876Z" fill="#1A2283"/>
<mask id="mask1_2288_370" style="mask-type:luminance" maskUnits="userSpaceOnUse" x="337" y="343" width="55" height="40">
<path d="M379.37 344.876C382.295 338.887 395.078 357.161 390.192 361.702C383.453 367.967 345.109 383.383 338.93 382.464C332.751 381.545 346.385 362.444 353.124 356.179C359.863 349.914 371.209 361.58 379.37 344.876Z" fill="white"/>
</mask>
<g mask="url(#mask1_2288_370)">
<path fill-rule="evenodd" clip-rule="evenodd" d="M395.186 346.282C393.106 347.758 389.046 355.763 384.365 358.574C376.491 363.305 357.115 372.095 347.94 374.668C341.961 376.344 332.213 373.211 329.322 374.011C327.523 374.508 328.741 379.21 330.592 379.467C333.906 379.927 343.274 378.787 349.216 376.772C358.236 373.714 376.771 365.63 384.708 361.121C389.535 358.38 395.095 352.19 396.842 349.716C397.575 348.678 396.222 345.546 395.186 346.282Z" fill="white"/>
</g>
<path fill-rule="evenodd" clip-rule="evenodd" d="M263.866 316.763C269.631 313.418 270.071 335.715 263.484 336.765C254.397 338.216 213.964 329.667 209.344 325.463C204.724 321.259 226.685 312.986 235.771 311.535C244.858 310.084 247.784 326.092 263.866 316.763Z" fill="#1A2283"/>
<mask id="mask2_2288_370" style="mask-type:luminance" maskUnits="userSpaceOnUse" x="208" y="311" width="61" height="26">
<path d="M263.866 316.763C269.631 313.418 270.071 335.715 263.484 336.765C254.397 338.216 213.964 329.667 209.344 325.463C204.724 321.259 226.685 312.986 235.771 311.535C244.858 310.084 247.784 326.092 263.866 316.763Z" fill="white"/>
</mask>
<g mask="url(#mask2_2288_370)">
<path fill-rule="evenodd" clip-rule="evenodd" d="M276.219 326.739C273.669 326.806 265.84 331.194 260.386 330.922C251.212 330.466 230.224 326.977 221.17 324.005C215.27 322.067 208.918 314.036 206.071 313.091C204.3 312.502 202.694 317.085 204.087 318.33C206.585 320.558 215 324.827 221.057 326.463C230.252 328.946 250.149 332.553 259.253 333.228C264.789 333.64 272.854 331.595 275.683 330.514C276.869 330.058 277.489 326.704 276.219 326.739Z" fill="white"/>
</g>
<path fill-rule="evenodd" clip-rule="evenodd" d="M326.011 248.45C300.131 260.84 276.089 245.007 266.282 262.385C256.644 279.467 290.778 316.121 262.506 321.534C248.996 324.12 226.115 312.508 223.619 298.336C221.122 284.165 230.454 249.255 247.518 236.507C264.581 223.758 303.436 217.968 326.01 221.849C349.62 225.908 350.941 236.516 326.011 248.45Z" fill="#69BAC9"/>
<mask id="mask3_2288_370" style="mask-type:luminance" maskUnits="userSpaceOnUse" x="223" y="220" width="122" height="102">
<path d="M326.011 248.45C300.131 260.84 276.089 245.007 266.282 262.385C256.644 279.467 290.778 316.121 262.506 321.534C248.996 324.12 226.115 312.508 223.619 298.336C221.122 284.165 230.454 249.255 247.518 236.507C264.581 223.758 303.436 217.968 326.01 221.849C349.62 225.908 350.941 236.516 326.011 248.45Z" fill="white"/>
</mask>
<g mask="url(#mask3_2288_370)">
<path fill-rule="evenodd" clip-rule="evenodd" d="M297.767 214.853C298.13 215.057 298.302 215.497 298.44 215.945C298.655 216.681 298.773 217.441 298.793 218.208C298.898 222.336 297.677 226.39 295.31 229.774C293.786 231.927 291.699 233.253 289.357 234.074C285.603 235.391 281.261 235.488 277.48 235.646C274.172 235.733 270.879 236.131 267.646 236.838C264.402 237.579 261.265 238.718 258.417 240.497C254.592 242.808 252.114 245.972 250.278 249.555C246.147 257.613 245.481 267.971 240.879 275.831C239.925 277.465 238.878 279.044 237.743 280.558C236.626 282.046 235.379 283.432 234.017 284.7C230.354 288.09 226.359 290.724 223 294.168C221.447 295.743 220.086 297.496 218.945 299.391C218.689 299.85 218.626 300.392 218.77 300.897C218.913 301.403 219.251 301.831 219.71 302.087C220.169 302.343 220.711 302.406 221.217 302.263C221.722 302.119 222.15 301.781 222.406 301.322C223.617 299.054 225.157 296.977 226.977 295.161C229.809 292.249 233.039 289.755 235.986 286.716C237.383 285.263 238.652 283.693 239.779 282.021C240.887 280.379 241.904 278.676 242.824 276.92C247.158 268.816 247.336 258.297 251.303 250.065C252.964 246.616 255.333 243.602 258.947 241.365C261.717 239.743 264.744 238.609 267.897 238.011C271.053 237.38 274.311 237.185 277.506 237.187C281.471 237.215 286.006 237.27 290.007 236.115C292.866 235.288 295.443 233.84 297.431 231.382C298.907 229.528 300.079 227.45 300.903 225.228C301.75 222.989 302.238 220.631 302.348 218.24C302.414 216.903 302.254 215.565 301.876 214.281C301.534 213.138 300.813 212.146 299.832 211.469C299.61 211.334 299.363 211.243 299.106 211.203C298.849 211.163 298.586 211.173 298.333 211.235C298.08 211.296 297.842 211.406 297.631 211.56C297.421 211.713 297.243 211.906 297.108 212.128C296.972 212.351 296.882 212.597 296.841 212.854C296.801 213.112 296.812 213.374 296.873 213.627C296.934 213.88 297.045 214.118 297.198 214.329C297.351 214.539 297.545 214.717 297.767 214.853ZM280.432 262.755C278.967 261.774 277.224 261.292 275.462 261.381C273.195 261.495 270.891 262.402 268.977 263.624C265.79 265.664 262.989 268.25 260.702 271.265C258.342 274.381 256.577 277.894 256.184 281.464C255.86 284.009 256.156 286.551 256.747 289.056C257.619 292.727 259.173 296.319 260.808 299.581C261.517 301.044 262.801 302.873 263.525 304.735C263.954 305.842 264.177 306.952 263.832 307.977C262.759 311.109 259.981 313.081 257.063 314.977C253.832 317.076 250.454 319.09 248.361 321.969C247.11 323.687 246.366 325.721 246.214 327.841C246.203 328.101 246.244 328.36 246.334 328.605C246.424 328.849 246.561 329.073 246.738 329.264C246.914 329.456 247.127 329.61 247.363 329.719C247.6 329.828 247.855 329.89 248.115 329.9C248.64 329.921 249.152 329.733 249.539 329.376C249.925 329.019 250.154 328.524 250.175 327.999C250.167 325.542 251.181 323.667 252.669 322.055C256.891 317.48 264.031 314.571 265.617 308.519C265.895 307.384 265.824 306.191 265.415 305.097C264.669 302.895 262.919 300.694 261.969 298.978C260.291 295.842 258.581 292.406 257.736 288.822C257.158 286.472 257.043 284.031 257.398 281.636C257.965 278.358 259.766 275.179 262.167 272.468C264.498 269.87 267.287 267.722 270.395 266.132C271.717 265.445 273.16 265.023 274.644 264.89C275.886 264.781 277.121 265.162 278.086 265.952C278.296 266.106 278.534 266.217 278.787 266.279C279.039 266.341 279.302 266.353 279.559 266.314C279.816 266.274 280.063 266.185 280.286 266.05C280.509 265.915 280.702 265.737 280.857 265.528C281.011 265.318 281.122 265.08 281.184 264.827C281.246 264.574 281.258 264.312 281.218 264.054C281.179 263.797 281.089 263.55 280.954 263.328C280.819 263.105 280.642 262.911 280.432 262.757V262.755Z" fill="white"/>
<path fill-rule="evenodd" clip-rule="evenodd" d="M332.999 230.601C306.481 258.233 276.34 242.233 264.848 259.684C259.734 267.452 267.524 285.457 276.808 284.89C291.59 283.988 344.181 263.316 353.545 254.268C361.06 247.008 338.641 224.72 332.999 230.601Z" fill="black" fill-opacity="0.2"/>
</g>
<path fill-rule="evenodd" clip-rule="evenodd" d="M355.981 234.082C339.175 278.29 361.788 298.668 365.63 303.914C379.401 322.708 402.351 330.712 388.029 347.319C379.046 357.734 354.739 361.429 342.988 351.959C331.171 342.437 319.777 311.617 317.127 290.189C314.477 268.761 320.976 245.463 327.087 223.39C331.765 206.498 365.803 208.248 355.981 234.082Z" fill="#69BAC9"/>
<mask id="mask4_2288_370" style="mask-type:luminance" maskUnits="userSpaceOnUse" x="316" y="212" width="77" height="146">
<path d="M355.981 234.082C339.175 278.29 361.788 298.668 365.63 303.914C379.401 322.708 402.351 330.712 388.029 347.319C379.046 357.734 354.739 361.429 342.988 351.959C331.171 342.437 319.777 311.617 317.127 290.189C314.477 268.761 320.976 245.463 327.087 223.39C331.765 206.498 365.803 208.248 355.981 234.082Z" fill="white"/>
</mask>
<g mask="url(#mask4_2288_370)">
<path fill-rule="evenodd" clip-rule="evenodd" d="M364.475 213.485C362.07 214.248 359.709 215.901 357.548 217.966C354.659 220.724 352.09 224.162 350.125 226.622C343.362 235.008 336.315 246.483 333.26 258.291C331.179 266.328 330.915 274.524 333.955 282.059C334.581 283.637 335.567 285.319 336.935 286.237C337.443 286.592 338.024 286.828 338.636 286.927C339.248 287.027 339.874 286.987 340.468 286.81C341.834 286.442 344.136 284.885 346.064 284.44C347.205 284.176 348.192 284.375 348.577 285.801C351.282 296.116 348.733 307.772 350.519 318.37C351.305 323.038 352.912 327.506 356.101 331.595C358.036 334.076 360.511 335.608 363.261 336.662C369.078 338.89 376.226 338.759 381.682 341.494C384.217 342.766 386.075 344.618 387.6 346.746C390.064 350.178 391.661 354.321 393.581 358.154C393.703 358.385 393.868 358.589 394.068 358.755C394.268 358.921 394.499 359.047 394.748 359.124C394.996 359.201 395.257 359.228 395.517 359.205C395.776 359.181 396.028 359.106 396.258 358.985C396.488 358.864 396.692 358.698 396.859 358.498C397.025 358.298 397.15 358.067 397.227 357.819C397.305 357.57 397.332 357.309 397.308 357.05C397.284 356.791 397.21 356.539 397.088 356.309C394.929 352.394 393.061 348.164 390.358 344.685C388.435 342.211 386.119 340.09 383.029 338.68C377.369 336.094 370.095 336.453 364.09 334.384C361.695 333.56 359.513 332.325 357.78 330.241C354.692 326.521 353.072 322.394 352.225 318.06C350.166 307.507 352.503 295.786 349.579 285.528C349.127 283.893 348.152 283.329 346.965 283.311C344.854 283.281 341.852 285.382 340.203 285.827C339.75 285.959 339.274 285.988 338.808 285.91C338.343 285.833 337.902 285.651 337.516 285.38C336.321 284.563 335.502 283.054 334.969 281.662C332.206 274.33 332.589 266.414 334.838 258.727C338.171 247.334 345.56 236.476 352.461 228.583C354.458 226.318 357.068 223.13 359.963 220.624C361.752 219.076 363.648 217.8 365.579 217.289C366.079 217.139 366.499 216.797 366.748 216.338C366.997 215.879 367.055 215.341 366.91 214.839C366.764 214.338 366.426 213.914 365.97 213.661C365.514 213.407 364.976 213.344 364.473 213.485H364.475ZM322.271 314.622C322.178 312.839 322.727 310.756 323.665 308.854C324.648 306.856 325.993 305.035 327.45 303.929C328.231 303.303 329.164 302.894 330.153 302.743C330.607 302.67 331.072 302.696 331.516 302.818C331.959 302.941 332.371 303.157 332.724 303.452C333.484 304.162 334.056 305.05 334.387 306.035C335.005 307.689 335.26 309.563 335.516 311.09C335.878 313.387 336.109 315.735 336.316 318.092C336.523 320.464 336.727 322.839 337.082 325.177C337.364 327.218 337.825 329.231 338.46 331.191C339.278 333.742 340.758 336.03 342.749 337.822C346.965 341.708 352.956 343.242 357.254 347.767C358.464 349.095 359.351 350.684 359.845 352.411C360.678 355.098 360.765 358.051 360.72 360.834C360.738 361.355 360.962 361.849 361.342 362.207C361.722 362.565 362.228 362.759 362.75 362.746C363.272 362.733 363.768 362.515 364.13 362.139C364.492 361.762 364.691 361.258 364.683 360.736C364.475 357.594 364.061 354.287 362.88 351.335C362.055 349.271 360.897 347.364 359.184 345.806C354.504 341.497 348.29 340.354 343.772 336.646C341.877 335.105 340.432 333.082 339.586 330.791C338.692 328.284 338.097 325.68 337.813 323.033C337.341 318.999 337.358 314.878 336.877 310.905C336.705 309.276 336.529 307.286 335.994 305.495C335.646 304.197 334.985 303.005 334.067 302.023C332.923 300.86 331.466 300.45 329.985 300.497C328.561 300.577 327.182 301.026 325.983 301.8C324.103 302.97 322.263 304.995 320.839 307.282C319.37 309.639 318.432 312.289 318.309 314.623C318.309 315.148 318.517 315.652 318.889 316.024C319.261 316.396 319.765 316.604 320.29 316.604C320.816 316.604 321.32 316.396 321.691 316.024C322.063 315.652 322.272 315.148 322.272 314.623L322.271 314.622Z" fill="white"/>
<path fill-rule="evenodd" clip-rule="evenodd" d="M368.395 295.052C367.027 295.921 366.004 297.358 365.475 299.228C364.586 302.372 364.803 306.564 365.133 308.761C365.278 309.871 365.481 310.974 365.741 312.063C365.997 313.163 366.347 314.239 366.787 315.278C367.796 317.752 369.169 319.448 370.748 320.682C371.945 321.601 373.292 322.306 374.729 322.767C381.863 325.158 392.024 322.346 398.382 327.297C398.813 327.59 399.344 327.701 399.857 327.606C400.37 327.511 400.825 327.216 401.123 326.787C401.42 326.358 401.537 325.829 401.446 325.315C401.356 324.801 401.066 324.343 400.641 324.041C398.205 322.58 395.498 321.938 392.619 321.76C386.768 321.399 380.272 322.994 375.057 321.65C373.718 321.33 372.46 320.73 371.368 319.892C369.937 318.766 368.809 317.106 367.992 314.819C367.669 313.825 367.439 312.803 367.304 311.767C367.169 310.721 367.097 309.668 367.089 308.613C367.084 306.911 367.287 303.898 368.134 301.41C368.579 300.107 369.214 298.989 370.223 298.572C370.69 298.329 371.041 297.911 371.2 297.41C371.358 296.909 371.311 296.365 371.069 295.898C370.827 295.431 370.409 295.08 369.907 294.922C369.406 294.763 368.862 294.81 368.396 295.052H368.395Z" fill="white"/>
</g>
<path fill-rule="evenodd" clip-rule="evenodd" d="M348.23 170.644C337.288 168.073 326.894 196.591 315.915 197.039C304.935 197.486 287.264 178.454 282.356 173.326C280.283 171.157 277.069 169.066 275.565 168.605C271.695 167.418 265.272 167.048 264.827 169.132C264.532 170.512 271.206 169.475 270.846 171.534C269.932 176.766 272.582 178.098 277.603 178.427C282.811 189.487 305.343 214.639 318.048 216.24C330.753 217.84 350.648 195.668 353.824 188.033C357.278 179.735 354.159 172.035 348.23 170.644Z" fill="#D6AEAE"/>
<mask id="mask5_2288_370" style="mask-type:luminance" maskUnits="userSpaceOnUse" x="264" y="167" width="92" height="50">
<path d="M348.23 170.644C337.288 168.073 326.894 196.591 315.915 197.039C304.935 197.486 287.264 178.454 282.356 173.326C280.283 171.157 277.069 169.066 275.565 168.605C271.695 167.418 265.272 167.048 264.827 169.132C264.532 170.512 271.206 169.475 270.846 171.534C269.932 176.766 272.582 178.098 277.603 178.427C282.811 189.487 305.343 214.639 318.048 216.24C330.753 217.84 350.648 195.668 353.824 188.033C357.278 179.735 354.159 172.035 348.23 170.644Z" fill="white"/>
</mask>
<g mask="url(#mask5_2288_370)">
<path fill-rule="evenodd" clip-rule="evenodd" d="M349.643 198.77C345.876 199.404 343.023 194.85 339.568 193.166C332.2 189.578 330.376 200.422 322.277 187.881C319.83 184.089 324.279 169.744 329.491 165.632C334.703 161.52 348.108 159.244 353.552 163.2C358.997 167.157 362.815 183.439 362.162 189.367C361.593 194.556 353.409 198.139 349.643 198.77Z" fill="#1A2283"/>
<path fill-rule="evenodd" clip-rule="evenodd" d="M344.547 182.063C341.713 184.313 339.581 198.303 332.967 202.491C324.883 207.609 300.382 208.302 296.043 212.779C291.704 217.255 300.318 229.205 306.926 229.357C315.574 229.553 340.747 220.682 347.922 213.952C354.013 208.239 350.535 194.296 349.97 188.98C349.663 186.067 346.841 180.239 344.547 182.063Z" fill="black" fill-opacity="0.2"/>
</g>
<path fill-rule="evenodd" clip-rule="evenodd" d="M360.881 223.543C362.491 232.774 325.528 238.183 318.937 229.422C308.674 215.786 338.904 208.615 340.63 176.736C341.247 165.348 372.293 166.257 364.719 179.173C360.465 186.431 356.254 197.045 360.881 223.543Z" fill="#1A2283"/>
<mask id="mask6_2288_370" style="mask-type:luminance" maskUnits="userSpaceOnUse" x="316" y="168" width="50" height="66">
<path d="M360.881 223.543C362.491 232.774 325.528 238.183 318.937 229.422C308.674 215.786 338.904 208.615 340.63 176.736C341.247 165.348 372.293 166.257 364.719 179.173C360.465 186.431 356.254 197.045 360.881 223.543Z" fill="white"/>
</mask>
<g mask="url(#mask6_2288_370)">
<path fill-rule="evenodd" clip-rule="evenodd" d="M356.496 188.025C352.612 186.481 359.903 205.612 354.42 211.006C347.757 217.563 317.423 221.846 316.519 227.365C315.615 232.885 338.796 245.305 348.995 244.122C359.195 242.94 376.471 229.612 377.721 220.262C378.971 210.912 360.38 189.569 356.496 188.025Z" fill="black" fill-opacity="0.2"/>
</g>
<path fill-rule="evenodd" clip-rule="evenodd" d="M354.189 260.623C360.027 265.618 368.107 265.754 372.238 260.925L372.241 260.923C376.372 256.095 374.99 248.132 369.152 243.137L259.348 149.171C257.114 147.26 254.533 145.794 251.747 144.855C246.816 143.192 238.55 140.404 232.423 138.338C231.823 138.136 231.175 138.121 230.567 138.297C229.959 138.473 229.419 138.83 229.019 139.322C228.62 139.813 228.38 140.414 228.331 141.046C228.283 141.677 228.429 142.308 228.749 142.854C232.061 148.504 236.525 156.124 239.05 160.431C240.342 162.637 241.994 164.612 243.937 166.274L354.189 260.623Z" fill="#737CE3"/>
<mask id="mask7_2288_370" style="mask-type:luminance" maskUnits="userSpaceOnUse" x="228" y="138" width="147" height="127">
<path d="M354.189 260.623C360.027 265.618 368.107 265.754 372.238 260.925L372.241 260.923C376.372 256.095 374.99 248.132 369.152 243.137L259.348 149.171C257.114 147.26 254.533 145.794 251.747 144.855C246.816 143.192 238.55 140.404 232.423 138.338C231.823 138.136 231.175 138.121 230.567 138.297C229.959 138.473 229.419 138.83 229.019 139.322C228.62 139.813 228.38 140.414 228.331 141.046C228.283 141.677 228.429 142.308 228.749 142.854C232.061 148.504 236.525 156.124 239.05 160.431C240.342 162.637 241.994 164.612 243.937 166.274L354.189 260.623Z" fill="white"/>
</mask>
<g mask="url(#mask7_2288_370)">
<path fill-rule="evenodd" clip-rule="evenodd" d="M229.927 148.651C251.432 169.092 263.404 179.425 288.617 194.115C326.383 216.116 341.26 246.712 355.078 253.961C361.922 257.551 382.641 259.737 371.518 237.604C367.885 230.374 405.625 267.724 398.9 274.844C392.176 281.963 351.597 290.114 331.174 280.322C302.743 266.691 245.198 215.006 228.324 193.061C219.294 181.318 223.863 142.887 229.927 148.651Z" fill="black" fill-opacity="0.2"/>
</g>
<path fill-rule="evenodd" clip-rule="evenodd" d="M357.712 253.464C358.472 254.114 359.458 254.436 360.455 254.359C361.452 254.281 362.377 253.811 363.028 253.052L365.474 250.193C365.476 250.191 365.474 250.188 365.476 250.186C365.475 250.184 365.473 250.181 365.471 250.179L336.964 225.784C336.872 225.705 336.765 225.645 336.649 225.607C336.533 225.569 336.411 225.555 336.29 225.564C336.169 225.574 336.051 225.607 335.942 225.662C335.834 225.717 335.737 225.793 335.658 225.885L333.808 228.047C333.158 228.807 332.837 229.794 332.915 230.791C332.992 231.788 333.463 232.713 334.222 233.363L357.712 253.464Z" fill="white"/>
<path fill-rule="evenodd" clip-rule="evenodd" d="M357.716 172.481C348.657 179.135 363.598 205.556 356.811 214.197C350.024 222.837 323.493 221.481 316.988 224.324C315.956 224.775 312.722 218.841 311.273 218.226C309.155 217.324 309.212 220.239 310.609 222.995C311.247 224.255 305.078 217.584 304.738 218.888C303.921 222.015 308.41 229.984 317.782 231.251C336.215 233.741 363.334 233.664 372.8 225.04C382.266 216.416 378.32 186.888 374.575 179.515C370.507 171.502 362.624 168.874 357.716 172.481Z" fill="#D6AEAE"/>
<mask id="mask8_2288_370" style="mask-type:luminance" maskUnits="userSpaceOnUse" x="304" y="170" width="75" height="63">
<path d="M357.716 172.481C348.657 179.135 363.598 205.556 356.811 214.197C350.024 222.837 323.493 221.481 316.988 224.324C315.956 224.775 312.722 218.841 311.273 218.226C309.155 217.324 309.212 220.239 310.609 222.995C311.247 224.255 305.078 217.584 304.738 218.888C303.921 222.015 308.41 229.984 317.782 231.251C336.215 233.741 363.334 233.664 372.8 225.04C382.266 216.416 378.32 186.888 374.575 179.515C370.507 171.502 362.624 168.874 357.716 172.481Z" fill="white"/>
</mask>
<g mask="url(#mask8_2288_370)">
<path fill-rule="evenodd" clip-rule="evenodd" d="M380.026 189.667C378.063 192.943 372.746 192.157 369.222 193.692C361.709 196.966 368.773 205.394 353.977 203.412C349.504 202.81 341.481 190.113 341.738 183.48C341.996 176.846 348.967 165.172 355.511 163.6C362.056 162.028 376.917 169.695 381.003 174.041C384.578 177.842 381.99 186.393 380.026 189.667Z" fill="#1A2283"/>
</g>
<path fill-rule="evenodd" clip-rule="evenodd" d="M365.61 155.802C365.301 158.972 363.106 166.969 358.221 167.291C353.203 167.623 351.821 159.396 352.132 156.225C352.443 153.054 357.836 148.336 360.084 148.265C362.331 148.194 365.915 152.701 365.61 155.802Z" fill="#D6AEAE"/>
<path fill-rule="evenodd" clip-rule="evenodd" d="M352.924 162.424C353.249 162.156 354.661 164.042 355.483 164.087C356.306 164.131 357.049 162.606 357.86 162.691C358.671 162.776 359.396 164.942 360.34 164.587C361.285 164.231 363.057 162.078 363.531 160.562C364.006 159.045 363.683 156.397 363.177 155.497C362.732 154.711 361.333 154.846 360.486 155.162C357.716 156.202 353.901 155.902 352.396 154.836C350.89 153.77 349.436 152.393 351.46 148.762C352.159 147.512 356.158 144.331 357.037 146.807C358.804 151.793 359.185 144.228 365.004 149.921C366.404 151.288 366.027 153.969 365.914 155.952C365.8 157.936 365.342 160.073 364.317 161.822C363.178 163.769 362.807 165.168 359.074 167.639C357.482 168.69 350.442 169.62 353.544 165.688C354.077 165.015 352.602 162.689 352.924 162.424Z" fill="black"/>
</svg>
