<svg width="44" height="46" viewBox="0 0 44 46" fill="none" xmlns="http://www.w3.org/2000/svg">
<path d="M18.9111 23.267C18.772 23.267 18.6355 23.2283 18.5171 23.1552C18.3987 23.082 18.303 22.9774 18.2406 22.853C16.7601 19.892 15.0036 18.7385 11.9751 18.7385H2.87012C2.27338 18.7385 1.70108 18.5014 1.27913 18.0795C0.85717 17.6575 0.620117 17.0852 0.620117 16.4885V8C0.620117 7.40326 0.85717 6.83097 1.27913 6.40901C1.70108 5.98705 2.27338 5.75 2.87012 5.75H17.4111C18.0079 5.75 18.5802 5.98705 19.0021 6.40901C19.4241 6.83097 19.6611 7.40326 19.6611 8V22.517C19.6611 22.7159 19.5821 22.9067 19.4415 23.0473C19.3008 23.188 19.11 23.267 18.9111 23.267ZM2.87012 7.25C2.67121 7.25 2.48044 7.32902 2.33979 7.46967C2.19914 7.61032 2.12012 7.80109 2.12012 8V16.4885C2.12012 16.6874 2.19914 16.8782 2.33979 17.0188C2.48044 17.1595 2.67121 17.2385 2.87012 17.2385H11.9751C14.6706 17.2385 16.6251 18.068 18.1611 19.9385V8C18.1611 7.80109 18.0821 7.61032 17.9415 7.46967C17.8008 7.32902 17.61 7.25 17.4111 7.25H2.87012ZM25.0881 33.581C24.8892 33.581 24.6984 33.502 24.5578 33.3613C24.4171 33.2207 24.3381 33.0299 24.3381 32.831V18.314C24.3381 17.7173 24.5752 17.145 24.9971 16.723C25.4191 16.3011 25.9914 16.064 26.5881 16.064H41.1291C41.7259 16.064 42.2982 16.3011 42.7201 16.723C43.1421 17.145 43.3791 17.7173 43.3791 18.314V26.8025C43.3791 27.3992 43.1421 27.9715 42.7201 28.3935C42.2982 28.8154 41.7259 29.0525 41.1291 29.0525H32.0241C28.9956 29.0525 27.2391 30.206 25.7586 33.167C25.6963 33.2914 25.6005 33.396 25.4821 33.4692C25.3637 33.5423 25.2273 33.581 25.0881 33.581ZM26.5881 17.564C26.3892 17.564 26.1984 17.643 26.0578 17.7837C25.9171 17.9243 25.8381 18.1151 25.8381 18.314V30.2525C27.3764 28.382 29.3286 27.5525 32.0241 27.5525H41.1291C41.328 27.5525 41.5188 27.4735 41.6595 27.3328C41.8001 27.1922 41.8791 27.0014 41.8791 26.8025V18.314C41.8791 18.1151 41.8001 17.9243 41.6595 17.7837C41.5188 17.643 41.328 17.564 41.1291 17.564H26.5881Z" fill="#0369A1"/>
<path d="M14.5544 11.3442H5.66912C5.4702 11.3442 5.27944 11.2652 5.13879 11.1246C4.99814 10.9839 4.91912 10.7932 4.91912 10.5942C4.91912 10.3953 4.99814 10.2046 5.13879 10.0639C5.27944 9.92326 5.4702 9.84424 5.66912 9.84424H14.5544C14.7533 9.84424 14.944 9.92326 15.0847 10.0639C15.2254 10.2046 15.3044 10.3953 15.3044 10.5942C15.3044 10.7932 15.2254 10.9839 15.0847 11.1246C14.944 11.2652 14.7533 11.3442 14.5544 11.3442ZM11.9174 14.4395H5.66912C5.4702 14.4395 5.27944 14.3605 5.13879 14.2198C4.99814 14.0792 4.91912 13.8884 4.91912 13.6895C4.91912 13.4906 4.99814 13.2998 5.13879 13.1592C5.27944 13.0185 5.4702 12.9395 5.66912 12.9395H11.9174C12.1163 12.9395 12.307 13.0185 12.4477 13.1592C12.5884 13.2998 12.6674 13.4906 12.6674 13.6895C12.6674 13.8884 12.5884 14.0792 12.4477 14.2198C12.307 14.3605 12.1163 14.4395 11.9174 14.4395ZM18.9111 42.284C18.7719 42.2839 18.6354 42.2451 18.517 42.1718C18.3986 42.0986 18.3029 41.9938 18.2406 41.8692C16.7601 38.909 15.0036 37.7555 11.9751 37.7555H2.87012C2.27338 37.7555 1.70108 37.5184 1.27913 37.0965C0.85717 36.6745 0.620117 36.1022 0.620117 35.5055V27.0162C0.620117 26.4195 0.85717 25.8472 1.27913 25.4252C1.70108 25.0033 2.27338 24.7662 2.87012 24.7662H17.4111C18.0079 24.7662 18.5802 25.0033 19.0021 25.4252C19.4241 25.8472 19.6611 26.4195 19.6611 27.0162V41.534C19.6613 41.703 19.6043 41.8671 19.4995 41.9997C19.3946 42.1323 19.2481 42.2256 19.0836 42.2645C19.027 42.2772 18.9692 42.2838 18.9111 42.284ZM2.87012 26.2662C2.6712 26.2662 2.48044 26.3453 2.33979 26.4859C2.19913 26.6266 2.12012 26.8173 2.12012 27.0162V35.5055C2.12012 35.7044 2.19913 35.8952 2.33979 36.0358C2.48044 36.1765 2.6712 36.2555 2.87012 36.2555H11.9751C14.6706 36.2555 16.6251 37.0842 18.1611 38.9555V27.0162C18.1611 26.8173 18.0821 26.6266 17.9414 26.4859C17.8008 26.3453 17.61 26.2662 17.4111 26.2662H2.87012Z" fill="#0369A1"/>
<path d="M14.5544 35.1929H5.72461C5.5257 35.1929 5.33493 35.1138 5.19428 34.9732C5.05363 34.8325 4.97461 34.6418 4.97461 34.4429V28.0791C4.97461 27.8802 5.05363 27.6894 5.19428 27.5488C5.33493 27.4081 5.5257 27.3291 5.72461 27.3291H14.5521C14.751 27.3291 14.9418 27.4081 15.0824 27.5488C15.2231 27.6894 15.3021 27.8802 15.3021 28.0791V34.4429C15.3021 34.6414 15.2234 34.8318 15.0832 34.9724C14.9431 35.113 14.7529 35.1923 14.5544 35.1929ZM6.47686 33.6929H13.8044V28.8291H6.47461L6.47686 33.6929Z" fill="#0369A1"/>
<path d="M5.94126 32.8499C5.78353 32.8506 5.62956 32.8017 5.50126 32.7099C5.37295 32.6182 5.27684 32.4883 5.22658 32.3388C5.17633 32.1893 5.17449 32.0277 5.22134 31.8771C5.26818 31.7265 5.36132 31.5945 5.48751 31.4999L7.82451 29.7306C7.96287 29.6256 8.13339 29.5718 8.30697 29.5785C8.48055 29.5852 8.64642 29.652 8.77626 29.7674L10.2238 31.0574L14.207 28.9754C14.3833 28.8832 14.5891 28.8648 14.779 28.9243C14.9688 28.9838 15.1273 29.1163 15.2195 29.2926C15.3117 29.4689 15.3301 29.6747 15.2706 29.8646C15.2111 30.0544 15.0786 30.2129 14.9023 30.3051L10.4593 32.6301C10.3243 32.7006 10.171 32.7282 10.0199 32.7095C9.86877 32.6907 9.72694 32.6264 9.61326 32.5251L8.23851 31.3011L6.39351 32.7006C6.26298 32.7982 6.10422 32.8506 5.94126 32.8499ZM31.838 26.0406C31.6391 26.0406 31.4483 25.9616 31.3077 25.8209C31.167 25.6803 31.088 25.4895 31.088 25.2906V19.8261C31.0879 19.6949 31.1222 19.566 31.1875 19.4522C31.2528 19.3384 31.3468 19.2437 31.4601 19.1776C31.5734 19.1114 31.7021 19.0762 31.8333 19.0754C31.9645 19.0746 32.0936 19.1082 32.2078 19.1729L37.0235 21.9059C37.1389 21.9713 37.2349 22.0661 37.3017 22.1808C37.3685 22.2954 37.4037 22.4257 37.4037 22.5584C37.4037 22.691 37.3685 22.8213 37.3017 22.936C37.2349 23.0506 37.1389 23.1454 37.0235 23.2109L32.2078 25.9431C32.095 26.007 31.9676 26.0406 31.838 26.0406ZM32.588 21.1139V24.0029L35.1335 22.5584L32.588 21.1139ZM9.24951 26.2701C9.0506 26.2701 8.85984 26.1911 8.71918 26.0504C8.57853 25.9098 8.49951 25.719 8.49951 25.5201V17.9901C8.49951 17.7912 8.57853 17.6004 8.71918 17.4598C8.85984 17.3191 9.0506 17.2401 9.24951 17.2401C9.44843 17.2401 9.63919 17.3191 9.77984 17.4598C9.9205 17.6004 9.99951 17.7912 9.99951 17.9901V25.5201C9.99951 25.719 9.9205 25.9098 9.77984 26.0504C9.63919 26.1911 9.44843 26.2701 9.24951 26.2701ZM32.1245 45.5151H11.4995C10.7039 45.5151 9.9408 45.199 9.37819 44.6364C8.81558 44.0738 8.49951 43.3108 8.49951 42.5151V37.0026C8.49951 36.8037 8.57853 36.6129 8.71918 36.4723C8.85984 36.3316 9.0506 36.2526 9.24951 36.2526C9.44843 36.2526 9.63919 36.3316 9.77984 36.4723C9.9205 36.6129 9.99951 36.8037 9.99951 37.0026V42.5151C9.99951 42.9129 10.1575 43.2945 10.4389 43.5758C10.7202 43.8571 11.1017 44.0151 11.4995 44.0151H32.1245C32.5223 44.0151 32.9039 43.8571 33.1852 43.5758C33.4665 43.2945 33.6245 42.9129 33.6245 42.5151V29.0309C33.6245 28.8319 33.7035 28.6412 33.8442 28.5005C33.9848 28.3599 34.1756 28.2809 34.3745 28.2809C34.5734 28.2809 34.7642 28.3599 34.9048 28.5005C35.0455 28.6412 35.1245 28.8319 35.1245 29.0309V42.5151C35.1245 43.3108 34.8084 44.0738 34.2458 44.6364C33.6832 45.199 32.9202 45.5151 32.1245 45.5151ZM34.3745 17.5626C34.1756 17.5626 33.9848 17.4836 33.8442 17.3429C33.7035 17.2023 33.6245 17.0115 33.6245 16.8126V3.48511C33.6245 3.08728 33.4665 2.70575 33.1852 2.42445C32.9039 2.14314 32.5223 1.98511 32.1245 1.98511H11.4995C11.1017 1.98511 10.7202 2.14314 10.4389 2.42445C10.1575 2.70575 9.99951 3.08728 9.99951 3.48511V6.50011C9.99951 6.69902 9.9205 6.88978 9.77984 7.03044C9.63919 7.17109 9.44843 7.25011 9.24951 7.25011C9.0506 7.25011 8.85984 7.17109 8.71918 7.03044C8.57853 6.88978 8.49951 6.69902 8.49951 6.50011V3.48511C8.49951 2.68946 8.81558 1.9264 9.37819 1.36379C9.9408 0.801178 10.7039 0.485107 11.4995 0.485107H32.1245C32.9202 0.485107 33.6832 0.801178 34.2458 1.36379C34.8084 1.9264 35.1245 2.68946 35.1245 3.48511V16.8126C35.1245 17.0115 35.0455 17.2023 34.9048 17.3429C34.7642 17.4836 34.5734 17.5626 34.3745 17.5626Z" fill="#0369A1"/>
<path d="M24.0131 3.97778H19.6084C19.4095 3.97778 19.2187 3.89877 19.0781 3.75811C18.9374 3.61746 18.8584 3.4267 18.8584 3.22778C18.8584 3.02887 18.9374 2.83811 19.0781 2.69745C19.2187 2.5568 19.4095 2.47778 19.6084 2.47778H24.0131C24.2121 2.47778 24.4028 2.5568 24.5435 2.69745C24.6841 2.83811 24.7631 3.02887 24.7631 3.22778C24.7631 3.4267 24.6841 3.61746 24.5435 3.75811C24.4028 3.89877 24.2121 3.97778 24.0131 3.97778ZM26.2519 3.97253C26.1519 3.97432 26.0525 3.95648 25.9594 3.92003C25.8682 3.88344 25.7862 3.82709 25.7194 3.75503C25.5797 3.61451 25.5013 3.42442 25.5013 3.22628C25.5013 3.02814 25.5797 2.83805 25.7194 2.69753C25.863 2.56373 26.0519 2.48933 26.2481 2.48933C26.4444 2.48933 26.6333 2.56373 26.7769 2.69753C26.8468 2.76618 26.9028 2.84767 26.9419 2.93753C26.9774 3.03092 26.9952 3.13012 26.9944 3.23003C26.9953 3.32767 26.9765 3.42447 26.9391 3.51467C26.9017 3.60487 26.8466 3.68662 26.7769 3.75503C26.7101 3.82709 26.6281 3.88344 26.5369 3.92003C26.4462 3.95589 26.3494 3.97373 26.2519 3.97253Z" fill="#0369A1"/>
</svg>
