<svg width="32" height="32" viewBox="0 0 32 32" fill="none" xmlns="http://www.w3.org/2000/svg">
<path d="M8.25802 2.00007C8.19236 2.00111 8.12754 2.01507 8.06728 2.04117C8.00701 2.06726 7.95248 2.10498 7.90679 2.15215C7.8611 2.19932 7.82515 2.25504 7.801 2.3161C7.77685 2.37717 7.76496 2.4424 7.76602 2.50806V2.85807C7.07402 3.06407 6.51802 3.58907 6.51802 4.33407C6.51802 5.24207 7.28402 5.95406 8.19302 5.99006C8.20726 5.99269 8.22161 5.99469 8.23602 5.99606L8.26602 5.99807C8.70602 5.99807 9.01202 6.30607 9.01202 6.66406C9.01202 7.01806 8.71102 7.32007 8.27702 7.32607C8.27035 7.32593 8.26368 7.32593 8.25702 7.32607H8.25602C7.82102 7.32106 7.51802 7.01906 7.51802 6.66406C7.52802 5.98806 6.50802 5.98806 6.51802 6.66406C6.51802 7.42406 7.05702 8.04406 7.76602 8.25006V8.49407C7.75602 9.17007 8.77602 9.17007 8.76602 8.49407V8.13706C9.45702 7.93107 10.012 7.40806 10.012 6.66406C10.012 5.86506 9.37902 5.30707 8.61702 5.13707H8.61502C8.33102 4.99407 8.61102 5.12706 8.38302 5.01407C8.37211 5.01102 8.36111 5.00836 8.35002 5.00607L8.33402 5.00407C8.31147 5.00119 8.28875 4.99985 8.26602 5.00007V4.99807C8.25667 4.99847 8.24733 4.99914 8.23802 5.00007C7.81402 4.98707 7.51802 4.69007 7.51802 4.34007C7.51802 3.98207 7.82502 3.67407 8.26602 3.67407C8.70602 3.67407 9.01202 3.98207 9.01202 4.34007C9.00202 5.01607 10.022 5.01607 10.012 4.34007C10.012 3.58007 9.47402 2.95807 8.76602 2.75207V2.50806C8.7671 2.44106 8.7547 2.37451 8.72955 2.31239C8.70441 2.25027 8.66703 2.19384 8.61964 2.14645C8.57225 2.09906 8.51582 2.06168 8.45369 2.03653C8.39157 2.01139 8.32503 1.99898 8.25802 2.00007ZM20.457 2.03007C20.3246 2.03217 20.1984 2.08674 20.1061 2.1818C20.0139 2.27685 19.9631 2.40462 19.965 2.53706V2.78706C19.412 2.98906 18.977 3.43007 18.977 4.04707C18.977 4.83706 19.625 5.47507 20.408 5.50607C20.428 5.50607 20.446 5.51207 20.465 5.51207C20.75 5.51207 20.953 5.71707 20.953 5.97707C20.953 6.23207 20.755 6.43306 20.475 6.43706C20.469 6.43696 20.463 6.43696 20.457 6.43706H20.455C20.175 6.43306 19.977 6.23207 19.977 5.97707C19.987 5.30007 18.967 5.30007 18.977 5.97707C18.977 6.59307 19.413 7.03206 19.965 7.23407V7.49006C19.955 8.16606 20.975 8.16606 20.965 7.49006V7.23407C21.517 7.03206 21.953 6.59407 21.953 5.97707C21.953 5.30907 21.448 4.83707 20.832 4.66207C20.7827 4.61193 20.7235 4.57274 20.658 4.54707L20.65 4.54307C20.6214 4.53274 20.592 4.52504 20.562 4.52007L20.523 4.52106C20.51 4.51906 20.527 4.51307 20.513 4.51107C20.497 4.5103 20.481 4.5103 20.465 4.51107C20.179 4.51107 19.977 4.30607 19.977 4.04707C19.977 3.79607 20.168 3.60006 20.439 3.58706C20.4566 3.589 20.4743 3.59 20.492 3.59007C20.762 3.60307 20.953 3.79707 20.953 4.04707C20.943 4.72306 21.963 4.72306 21.953 4.04707C21.953 3.43007 21.517 2.98906 20.965 2.78706V2.53706C20.9661 2.47006 20.9537 2.40351 20.9286 2.34139C20.9034 2.27927 20.866 2.22284 20.8186 2.17545C20.7712 2.12806 20.7148 2.09068 20.6527 2.06553C20.5906 2.04039 20.524 2.02898 20.457 2.03007ZM14.785 5.02007C14.2045 5.05196 13.6378 5.20992 13.1245 5.48295C12.6111 5.75598 12.1634 6.13753 11.8124 6.60108C11.4615 7.06464 11.2157 7.59907 11.0921 8.16722C10.9686 8.73538 10.9702 9.32362 11.097 9.89106C11.2907 10.7408 11.7569 11.5039 12.4245 12.0641C13.0921 12.6243 13.9246 12.9509 14.795 12.9941L15.92 17.2211L13.959 16.0811C13.5928 15.87 13.1578 15.8129 12.7495 15.9222C12.3411 16.0315 11.9928 16.2983 11.781 16.6641C11.5718 17.0307 11.5153 17.4651 11.6238 17.873C11.7324 18.281 11.9972 18.6299 12.361 18.8441L12.391 18.8611L12.421 18.8751C13.55 19.3411 14.406 20.3191 15.434 21.3691C16.397 22.3531 17.574 23.3471 19.244 23.8891L19.707 25.6251L19.147 25.7731C18.869 25.8471 18.627 26.1531 18.719 26.4941L19.543 29.5821C19.633 29.9221 19.994 30.0681 20.271 29.9941L27.553 28.0591C27.83 27.9851 28.073 27.6811 27.983 27.3391L27.158 24.2521C27.068 23.9101 26.705 23.7661 26.428 23.8401L26.297 23.8751L26.039 22.9051C25.902 22.3901 26.018 21.7451 26.179 21.0571C26.342 20.3681 26.564 19.6471 26.387 18.9071L26.385 18.8971L25.023 13.7831C24.9128 13.3762 24.6464 13.0293 24.2819 12.8177C23.9173 12.6062 23.484 12.547 23.076 12.6531C22.769 12.7341 22.572 12.9711 22.373 13.1931C21.993 12.6941 21.425 12.3591 20.785 12.5291C20.482 12.6101 20.266 12.8171 20.07 13.0331C19.685 12.5691 19.14 12.2601 18.523 12.4231H18.521C18.316 12.4791 18.188 12.6431 18.027 12.7661L17.791 11.8791L17.793 11.8771C18.3769 11.3095 18.7736 10.5771 18.9299 9.77794C19.0861 8.97876 18.9946 8.15092 18.6675 7.4052C18.3403 6.65949 17.7932 6.03148 17.0994 5.60522C16.4056 5.17897 15.5981 4.97481 14.785 5.02007ZM14.842 6.01606C15.3617 5.98845 15.8796 6.09678 16.3447 6.33036C16.8097 6.56394 17.2059 6.9147 17.494 7.34806C17.826 7.84433 18.0018 8.42862 17.9987 9.02567C17.9957 9.62272 17.814 10.2052 17.477 10.6981L17.148 9.46807C17.0379 9.06092 16.7718 8.71356 16.4074 8.50129C16.0429 8.28902 15.6095 8.22893 15.201 8.33406V8.34007C14.7947 8.45096 14.4485 8.71757 14.2376 9.08206C14.0266 9.44655 13.9678 9.87952 14.074 10.2871L14.524 11.9711C13.882 11.8691 13.2905 11.5611 12.8389 11.0935C12.3872 10.6259 12.0999 10.0241 12.0203 9.37893C11.9408 8.73373 12.0732 8.08015 12.3976 7.51682C12.7221 6.95349 13.221 6.51098 13.819 6.25606C14.151 6.11306 14.498 6.03406 14.842 6.01606ZM3.98202 9.01406C3.89532 9.01741 3.81099 9.04325 3.73731 9.08906C3.66362 9.13487 3.60313 9.19906 3.56177 9.27533C3.5204 9.35159 3.4996 9.43731 3.5014 9.52405C3.50319 9.6108 3.52753 9.69558 3.57202 9.77007L3.84402 10.2381C3.11402 10.9031 2.78402 11.9021 3.27502 12.7541C3.80302 13.6671 4.93102 13.8371 5.94102 13.4691C5.96059 13.4716 5.98029 13.4729 6.00002 13.4731C6.01702 13.4731 6.23302 13.4111 6.25002 13.4101C6.32402 13.4041 6.19602 13.4451 6.26002 13.4081C6.91302 13.1251 7.58002 13.2181 7.85702 13.6991C8.13502 14.1791 7.93702 14.8591 7.31702 15.2271C7.30821 15.2318 7.29954 15.2368 7.29102 15.2421C6.66202 15.5971 5.97302 15.4281 5.69502 14.9471C5.37202 14.3331 4.45902 14.8611 4.83002 15.4471C5.32202 16.2991 6.35002 16.5111 7.29102 16.2111L7.56402 16.6861C7.89802 17.2641 8.76502 16.7641 8.43202 16.1861L8.20902 15.8011C8.95402 15.1321 9.22302 14.0631 8.72502 13.1991C8.58447 12.9594 8.39451 12.7525 8.16777 12.592C7.94104 12.4314 7.68273 12.321 7.41002 12.2681V12.2661C6.98502 12.1761 6.53502 12.3161 6.10402 12.4821L5.75002 12.5411L5.74402 12.5451C5.11402 12.9051 4.42102 12.7361 4.14302 12.2541C3.87302 11.7881 4.05902 11.1401 4.63702 10.7661C4.684 10.7471 4.72784 10.7212 4.76702 10.6891C5.38002 10.3771 6.03602 10.5391 6.30502 11.0061C6.62802 11.6201 7.54102 11.0921 7.17002 10.5061C7.02999 10.2663 6.84045 10.0592 6.61404 9.89846C6.38762 9.73774 6.12955 9.62715 5.85702 9.57407C5.4574 9.4938 5.04375 9.51931 4.65702 9.64806L4.43702 9.27007C4.39212 9.18962 4.32587 9.12314 4.24558 9.07796C4.16529 9.03279 4.07408 9.01068 3.98202 9.01406ZM15.695 9.29107C15.924 9.32207 16.116 9.48707 16.182 9.73207L17.359 14.1521L18.342 13.9941C18.3322 13.8581 18.371 13.7231 18.4516 13.6131C18.5323 13.5032 18.6494 13.4255 18.782 13.3941C18.8573 13.3728 18.9361 13.367 19.0137 13.3769C19.0912 13.3869 19.166 13.4125 19.2335 13.4521C19.3009 13.4917 19.3596 13.5445 19.4061 13.6074C19.4526 13.6703 19.4859 13.742 19.504 13.8181L19.627 14.2811L20.609 14.1231C20.5995 13.9855 20.6373 13.8489 20.7163 13.7359C20.7953 13.6229 20.9106 13.5404 21.043 13.5021C21.1185 13.4806 21.1975 13.4747 21.2753 13.4845C21.3532 13.4944 21.4282 13.5199 21.4959 13.5595C21.5636 13.5991 21.6226 13.652 21.6694 13.715C21.7162 13.778 21.7497 13.8498 21.768 13.9261L21.949 14.6071L22.916 14.3501C22.8939 14.2747 22.8872 14.1957 22.8964 14.1178C22.9056 14.0398 22.9304 13.9645 22.9695 13.8964C23.0085 13.8283 23.061 13.7688 23.1236 13.7215C23.1863 13.6742 23.2578 13.64 23.334 13.6211C23.4095 13.5996 23.4885 13.5937 23.5663 13.6035C23.6442 13.6134 23.7192 13.6389 23.7869 13.6785C23.8546 13.7181 23.9136 13.771 23.9604 13.834C24.0072 13.897 24.0407 13.9688 24.059 14.0451L25.414 19.1431C25.502 19.5141 25.372 20.1251 25.207 20.8281C25.041 21.5331 24.853 22.3381 25.072 23.1621L25.328 24.1221C23.78 24.5341 22.492 24.8721 20.67 25.3591L20.08 23.1391L19.803 23.0641C18.188 22.6261 17.146 21.6871 16.148 20.6681C15.164 19.6621 14.238 18.5631 12.859 17.9751C12.7914 17.9359 12.7323 17.8837 12.6849 17.8216C12.6376 17.7594 12.603 17.6885 12.5832 17.6129C12.5634 17.5373 12.5588 17.4586 12.5696 17.3812C12.5803 17.3038 12.6063 17.2294 12.646 17.1621H12.648C12.6853 17.0933 12.7361 17.0329 12.7975 16.9844C12.8588 16.936 12.9294 16.9005 13.0049 16.8802C13.0804 16.8599 13.1592 16.8552 13.2366 16.8663C13.314 16.8775 13.3883 16.9043 13.455 16.9451L17.508 19.3051L15.039 10.0311C15.0171 9.95581 15.0106 9.87688 15.02 9.79905C15.0294 9.72123 15.0545 9.64612 15.0938 9.57826C15.133 9.51041 15.1856 9.45121 15.2484 9.40425C15.3112 9.3573 15.3828 9.32356 15.459 9.30507V9.30707C15.5359 9.28636 15.6161 9.28092 15.695 9.29107ZM26.3 24.9081L26.91 27.1951L20.403 28.9241L19.794 26.6371L26.3 24.9081Z" fill="#56E6E6"/>
</svg>
