<svg width="26" height="26" viewBox="0 0 26 26" fill="none" xmlns="http://www.w3.org/2000/svg">
<path d="M20.5671 6.96041C20.2846 5.15308 19.3655 3.5062 17.9757 2.31681C16.5858 1.12742 14.8168 0.473811 12.9875 0.473877C11.1582 0.473943 9.38915 1.12768 7.99941 2.31717C6.60967 3.50666 5.69073 5.15361 5.40832 6.96096C4.0687 6.99919 2.79799 7.56331 1.87112 8.53128C0.944251 9.49924 0.435752 10.7932 0.45564 12.1332C0.475529 13.4733 1.02221 14.7516 1.9774 15.6916C2.93258 16.6316 4.21947 17.1578 5.55964 17.1562H10.1561V19.2344H7.83502C7.77993 19.2325 7.72505 19.2421 7.67382 19.2625C7.6226 19.2829 7.57613 19.3136 7.53733 19.3527C7.49854 19.3919 7.46824 19.4387 7.44835 19.4901C7.42846 19.5415 7.41941 19.5964 7.42175 19.6515V21.7406C7.10546 21.8142 6.81663 21.9762 6.58897 22.2078C6.34154 22.4564 6.17331 22.7727 6.1055 23.1169C6.03769 23.461 6.07334 23.8176 6.20796 24.1415C6.34258 24.4654 6.57014 24.7421 6.8619 24.9368C7.15367 25.1315 7.49657 25.2354 7.84733 25.2354C8.19809 25.2354 8.54099 25.1315 8.83275 24.9368C9.12452 24.7421 9.35207 24.4654 9.48669 24.1415C9.62131 23.8176 9.65697 23.461 9.58916 23.1169C9.52135 22.7727 9.35312 22.4564 9.10569 22.2078C8.87871 21.9877 8.60081 21.8271 8.29675 21.7404V20.1094H10.5684C10.6892 20.1057 10.804 20.0565 10.8899 19.9715C10.9758 19.8866 11.0262 19.7722 11.0311 19.6515V17.1562H12.5624V22.042C12.1424 22.1486 11.7759 22.4049 11.5316 22.7628C11.2874 23.1207 11.1822 23.5554 11.236 23.9854C11.2897 24.4153 11.4986 24.8108 11.8234 25.0975C12.1482 25.3843 12.5666 25.5425 12.9999 25.5425C13.4331 25.5425 13.8515 25.3843 14.1763 25.0975C14.5011 24.8108 14.71 24.4153 14.7638 23.9854C14.8175 23.5554 14.7124 23.1207 14.4681 22.7628C14.2239 22.4049 13.8573 22.1486 13.4374 22.042V17.1562H14.9686V19.6515C14.9735 19.7722 15.024 19.8866 15.1099 19.9715C15.1957 20.0565 15.3106 20.1057 15.4313 20.1094H17.703V21.7404C17.3991 21.8271 17.1213 21.9876 16.8945 22.2076C16.6416 22.4572 16.4686 22.7763 16.3975 23.1244C16.3265 23.4725 16.3605 23.8339 16.4954 24.1626C16.6302 24.4913 16.8598 24.7725 17.1549 24.9704C17.45 25.1683 17.7973 25.2739 18.1526 25.2739C18.5079 25.2739 18.8551 25.1683 19.1502 24.9704C19.4453 24.7725 19.6749 24.4913 19.8097 24.1626C19.9446 23.8339 19.9787 23.4725 19.9076 23.1244C19.8365 22.7763 19.6635 22.4572 19.4106 22.2076C19.183 21.976 18.8942 21.814 18.578 21.7404V19.6514C18.5803 19.5963 18.5712 19.5414 18.5513 19.49C18.5314 19.4386 18.5011 19.3918 18.4623 19.3527C18.4235 19.3136 18.3771 19.2828 18.3259 19.2625C18.2747 19.2421 18.2198 19.2325 18.1647 19.2344H15.8436V17.1562H20.4714C23.287 17.1562 25.5619 14.838 25.5426 12.0225C25.5332 10.6977 25.0087 9.42858 24.08 8.48378C23.1514 7.53897 21.8915 6.99263 20.5671 6.96041ZM8.47448 24.1052C8.37011 24.2099 8.24167 24.2874 8.10041 24.3309C7.95915 24.3744 7.80937 24.3827 7.66419 24.3549C7.51901 24.3271 7.38285 24.2642 7.26764 24.1716C7.15242 24.079 7.06166 23.9595 7.00329 23.8237C6.94493 23.6879 6.92075 23.5399 6.93286 23.3926C6.94498 23.2453 6.99302 23.1032 7.07278 22.9787C7.15254 22.8543 7.26159 22.7513 7.39039 22.6787C7.51918 22.6062 7.66379 22.5663 7.81156 22.5626C7.81938 22.563 7.82709 22.5638 7.83502 22.5638C7.84295 22.5638 7.85061 22.563 7.85843 22.5626C8.03525 22.567 8.20691 22.6231 8.35213 22.7241C8.49734 22.8251 8.60972 22.9665 8.67532 23.1307C8.74092 23.295 8.75686 23.4749 8.72116 23.6481C8.68545 23.8213 8.59968 23.9803 8.47448 24.1052ZM13.9042 23.7674C13.9042 23.9161 13.8676 24.0625 13.7975 24.1937C13.7274 24.3249 13.6261 24.4367 13.5024 24.5194C13.3788 24.602 13.2366 24.6529 13.0886 24.6675C12.9406 24.6821 12.7913 24.66 12.6539 24.6031C12.5165 24.5462 12.3952 24.4563 12.3009 24.3413C12.2065 24.2263 12.142 24.0899 12.113 23.944C12.0839 23.7982 12.0913 23.6474 12.1345 23.5051C12.1777 23.3628 12.2553 23.2333 12.3604 23.1281C12.524 22.964 12.7448 22.8695 12.9765 22.8644C12.9842 22.8648 12.9919 22.8656 12.9999 22.8656C13.0078 22.8656 13.0155 22.8648 13.0233 22.8644C13.259 22.8701 13.4831 22.9678 13.6477 23.1366C13.8123 23.3053 13.9044 23.5318 13.9042 23.7676V23.7674ZM19.069 23.4658C19.069 23.6145 19.0324 23.761 18.9623 23.8921C18.8922 24.0233 18.7908 24.1351 18.6672 24.2177C18.5435 24.3004 18.4014 24.3512 18.2534 24.3658C18.1054 24.3804 17.9561 24.3582 17.8187 24.3013C17.6813 24.2444 17.56 24.1545 17.4657 24.0395C17.3714 23.9246 17.3068 23.7881 17.2778 23.6423C17.2488 23.4964 17.2562 23.3457 17.2993 23.2034C17.3425 23.061 17.4201 22.9316 17.5253 22.8264C17.6889 22.6623 17.9096 22.5678 18.1413 22.5627C18.1491 22.5631 18.1568 22.5639 18.1647 22.5639C18.1725 22.5639 18.1803 22.5631 18.1881 22.5627C18.4238 22.5684 18.6479 22.6661 18.8125 22.8349C18.9771 23.0036 19.0692 23.2301 19.069 23.4659L19.069 23.4658ZM20.4677 16.0625H15.8436V10.467C15.8436 10.351 15.7975 10.2397 15.7155 10.1577C15.6334 10.0756 15.5222 10.0295 15.4061 10.0295C15.2901 10.0295 15.1788 10.0756 15.0968 10.1577C15.0147 10.2397 14.9686 10.351 14.9686 10.467V16.0625H13.4374V10.467C13.4374 10.351 13.3913 10.2397 13.3092 10.1577C13.2272 10.0756 13.1159 10.0295 12.9999 10.0295C12.8838 10.0295 12.7726 10.0756 12.6905 10.1577C12.6085 10.2397 12.5624 10.351 12.5624 10.467V16.0625H11.0311V10.467C11.0311 10.351 10.985 10.2397 10.903 10.1577C10.8209 10.0756 10.7097 10.0295 10.5936 10.0295C10.4776 10.0295 10.3663 10.0756 10.2843 10.1577C10.2022 10.2397 10.1561 10.351 10.1561 10.467V16.0625H5.56008C4.50279 16.0608 3.48884 15.6421 2.73827 14.8975C1.9877 14.1529 1.56106 13.1423 1.55094 12.085C1.54794 11.5602 1.64868 11.0399 1.84737 10.5541C2.04606 10.0683 2.33878 9.6265 2.70871 9.25416C3.07865 8.88183 3.51851 8.58626 4.00302 8.38444C4.48754 8.18261 5.00715 8.07851 5.53202 8.07812H5.89159C6.0293 8.07527 6.16108 8.02161 6.26161 7.92746C6.36214 7.83331 6.42431 7.70532 6.43617 7.5681C6.58651 5.92863 7.34212 4.40394 8.55563 3.29135C9.76914 2.17877 11.3535 1.55806 12.9999 1.55029C14.6446 1.55219 16.2286 2.1712 17.4389 3.28491C18.6491 4.39861 19.3973 5.92591 19.5356 7.56477C19.5465 7.70271 19.6083 7.83168 19.709 7.92656C19.8098 8.02144 19.9422 8.07547 20.0805 8.07812H20.4399C22.6353 8.07812 24.4337 9.84737 24.4489 12.043C24.4528 12.5687 24.3529 13.09 24.1547 13.577C23.9565 14.064 23.664 14.5069 23.294 14.8805C22.9241 15.254 22.4839 15.5507 21.9989 15.7536C21.5138 15.9565 20.9935 16.0614 20.4677 16.0625Z" fill="#56E6E6"/>
</svg>
