<svg width="28" height="28" viewBox="0 0 28 28" fill="none" xmlns="http://www.w3.org/2000/svg">
<path fill-rule="evenodd" clip-rule="evenodd" d="M13.9913 1.27759C12.6691 1.27759 11.5938 2.37134 11.5938 3.70134C11.5938 4.31909 11.8317 4.87821 12.2124 5.30784C10.7459 5.58346 9.625 6.83384 9.625 8.34496V10.0512C9.625 10.1672 9.67109 10.2785 9.75314 10.3606C9.83519 10.4426 9.94647 10.4887 10.0625 10.4887H11.7101C11.7763 10.5044 11.8452 10.5044 11.9114 10.4887H16.0851C16.1513 10.5044 16.2202 10.5044 16.2864 10.4887H17.9375C18.0535 10.4887 18.1648 10.4426 18.2469 10.3606C18.3289 10.2785 18.375 10.1672 18.375 10.0512V8.34496C18.375 6.82771 17.2462 5.57559 15.7719 5.30609C16.0824 4.95992 16.2864 4.53144 16.3594 4.07214C16.4323 3.61284 16.3711 3.14224 16.183 2.7169C15.995 2.29156 15.6881 1.92955 15.2993 1.67439C14.9105 1.41922 14.4563 1.28086 13.9913 1.27759ZM13.9913 2.15259C14.8356 2.15259 15.5155 2.83859 15.5155 3.70134C15.5155 4.56496 14.8356 5.25009 13.9913 5.25009C13.1477 5.25009 12.4688 4.56496 12.4688 3.70134C12.4688 2.83859 13.1477 2.15259 13.9913 2.15259ZM16.9689 3.02759L16.7501 3.87634L17.1159 3.96996L18.0898 4.32521L18.3138 4.43459L18.6944 3.64534L18.4468 3.52721L18.4074 3.50971L17.4029 3.14221L17.3617 3.12909L16.968 3.02846L16.9689 3.02759ZM10.6899 3.12909L10.2366 3.26296L10.2042 3.27434L9.422 3.58584L9.38875 3.59896L8.99937 3.79059L9.38438 4.57634L9.758 4.39259L10.493 4.10034H10.5035L10.9462 3.96471L10.6899 3.12909ZM19.5151 4.05571L19.0601 4.80034L19.8756 5.29646L20.4802 5.74884L21.0035 5.04884L20.3779 4.57809L20.342 4.55796L19.5151 4.05571ZM8.20138 4.21934L7.89075 4.40309L7.861 4.42059L7.17937 4.89484L7.15313 4.91496L6.72 5.26759L7.27125 5.94571L7.69213 5.60446L8.33262 5.15821L8.34662 5.14946L8.64412 4.97359L8.20138 4.21934ZM21.7009 5.64559L21.1111 6.29046L21.4235 6.57484L22.1077 7.32821L22.2425 7.50934L22.9451 6.98434L22.7911 6.77959L22.764 6.74721L22.0579 5.97284L22.029 5.94396L21.7009 5.64559ZM6.04712 5.87921L5.88438 6.02971L5.86162 6.05334L5.30513 6.66584L5.28238 6.69034L4.85362 7.24246L5.544 7.77971L5.95262 7.25471H5.95613L6.50125 6.65359L6.51 6.64484L6.64825 6.51446L6.04712 5.87921ZM12.8187 6.12509H15.1804C16.4815 6.12509 17.5 7.11734 17.5 8.34496V9.61371H16.6232V8.25396C16.6242 8.19548 16.6134 8.1374 16.5915 8.08316C16.5696 8.02892 16.5371 7.97962 16.4958 7.93818C16.4545 7.89674 16.4053 7.864 16.3512 7.84189C16.297 7.81978 16.239 7.80875 16.1805 7.80946C16.1229 7.81015 16.066 7.8222 16.0131 7.84493C15.9601 7.86766 15.9122 7.90062 15.872 7.94192C15.8319 7.98322 15.8003 8.03205 15.779 8.0856C15.7578 8.13915 15.7473 8.19636 15.7482 8.25396V9.61196H12.2483V8.25484C12.2492 8.19635 12.2384 8.13827 12.2165 8.08403C12.1946 8.0298 12.1621 7.9805 12.1208 7.93906C12.0795 7.89762 12.0303 7.86487 11.9762 7.84276C11.922 7.82065 11.864 7.80963 11.8055 7.81034C11.7479 7.81102 11.691 7.82307 11.6381 7.84581C11.5851 7.86854 11.5372 7.9015 11.497 7.9428C11.4569 7.9841 11.4253 8.03292 11.404 8.08647C11.3828 8.14002 11.3723 8.19724 11.3733 8.25484V9.61284H10.5V8.34496C10.5 7.11734 11.5185 6.12509 12.8187 6.12509ZM23.485 7.72459L22.7378 8.17959L23.2321 8.99421L23.5603 9.67496L24.3477 9.29346L24.0109 8.59609L23.9907 8.55846L23.485 7.72459ZM4.34262 7.98971L4.2945 8.06496L4.277 8.09384L3.86925 8.82184L3.8535 8.85071L3.507 9.60321L4.29975 9.97071L4.63225 9.24884L4.64013 9.23746L5.0225 8.54884L5.02775 8.54009L5.0715 8.47534L4.34262 7.98971ZM24.6916 10.1448L23.8691 10.4458L24.0249 10.8676L24.2865 11.8826L24.3101 12.0453L25.1764 11.9141L25.1475 11.7286L25.1388 11.6857L24.8693 10.6383L24.857 10.5955L24.6916 10.1448ZM3.17887 10.4878L2.95137 11.2858L2.94262 11.3191L2.77375 12.1626L2.76675 12.1976L2.75975 12.2553L3.6295 12.3595L3.6365 12.3035L3.7975 11.5072L4.01975 10.7285L3.17887 10.4878ZM13.9939 11.3375C13.9363 11.3383 13.8795 11.3504 13.8267 11.3732C13.7739 11.396 13.7261 11.4289 13.686 11.4702C13.6459 11.5115 13.6144 11.5603 13.5932 11.6138C13.572 11.6673 13.5616 11.7244 13.5625 11.782V15.072L9.82537 17.5718C9.77356 17.6018 9.72844 17.642 9.6928 17.6901C9.65715 17.7381 9.63175 17.793 9.61815 17.8513C9.60456 17.9095 9.60306 17.97 9.61376 18.0289C9.62445 18.0877 9.64711 18.1438 9.68033 18.1936C9.71354 18.2433 9.75662 18.2858 9.80689 18.3182C9.85716 18.3507 9.91355 18.3725 9.97258 18.3823C10.0316 18.3921 10.092 18.3897 10.1501 18.3752C10.2081 18.3607 10.2626 18.3345 10.3101 18.2981L14.0105 15.8236L17.6881 18.2981C17.7844 18.3628 17.9025 18.3867 18.0164 18.3644C18.1303 18.342 18.2306 18.2754 18.2954 18.1791C18.3601 18.0828 18.384 17.9647 18.3616 17.8508C18.3393 17.7369 18.2727 17.6366 18.1764 17.5718L14.4375 15.0562V11.782C14.4384 11.7233 14.4276 11.6651 14.4056 11.6107C14.3836 11.5564 14.3509 11.507 14.3094 11.4655C14.268 11.4241 14.2186 11.3914 14.1642 11.3694C14.1099 11.3474 14.0516 11.3365 13.993 11.3375H13.9939ZM25.3076 12.7751L24.5105 12.8993H24.444V12.9098L24.4982 13.9948L24.4466 15.0221L25.3216 15.0658L25.375 14.0176L24.9375 13.9966L25.375 13.9747L25.319 12.8547L25.3138 12.811L25.3076 12.7751ZM2.65737 13.1601L2.625 13.9808V14.0193L2.67313 14.946L3.54638 14.9022L3.50175 13.994L3.53238 13.1942L2.65737 13.1592V13.1601ZM3.654 15.7282L2.78863 15.8577L2.8525 16.269L2.86125 16.3145L3.13075 17.3601L3.143 17.4038L3.2305 17.6401L4.05212 17.3391L3.97513 17.1308L3.7135 16.1158L3.654 15.7282ZM24.3276 15.8472L24.2865 16.1141L24.0249 17.1308L23.9067 17.452L24.7275 17.753L24.857 17.403L24.8693 17.3592L25.1388 16.3127L25.1475 16.269L25.1921 15.9793L24.3276 15.8472ZM6.11888 17.0285C4.79588 17.0285 3.71875 18.1222 3.71875 19.4522C3.71875 20.0691 3.95763 20.6282 4.33913 21.0578C2.87175 21.3326 1.75 22.5821 1.75 24.095V25.8012C1.75 25.9172 1.79609 26.0285 1.87814 26.1106C1.96019 26.1926 2.07147 26.2387 2.1875 26.2387H3.83512C3.90186 26.2546 3.97139 26.2546 4.03812 26.2387H8.21013C8.27686 26.2546 8.34639 26.2546 8.41313 26.2387H10.0642C10.1803 26.2387 10.2916 26.1926 10.3736 26.1106C10.4557 26.0285 10.5017 25.9172 10.5017 25.8012V24.095C10.5017 22.5777 9.373 21.3256 7.89863 21.0561C8.20918 20.7099 8.41318 20.2814 8.48611 19.8221C8.55905 19.3628 8.49781 18.8922 8.30977 18.4669C8.12172 18.0416 7.81486 17.6796 7.42606 17.4244C7.03726 17.1692 6.58392 17.0317 6.11888 17.0285ZM21.8662 17.0285C20.5441 17.0285 19.467 18.1222 19.467 19.4522C19.467 20.0691 19.7059 20.6282 20.0874 21.0578C18.62 21.3326 17.4982 22.5821 17.4982 24.095V25.8012C17.4982 25.9172 17.5443 26.0285 17.6264 26.1106C17.7084 26.1926 17.8197 26.2387 17.9357 26.2387H19.5851C19.6513 26.2544 19.7202 26.2544 19.7864 26.2387H23.9601C24.0263 26.2544 24.0952 26.2544 24.1614 26.2387H25.8125C25.9285 26.2387 26.0398 26.1926 26.1219 26.1106C26.2039 26.0285 26.25 25.9172 26.25 25.8012V24.095C26.25 22.5777 25.1213 21.3256 23.6469 21.0561C23.9574 20.7099 24.1614 20.2814 24.2344 19.8221C24.3073 19.3628 24.2461 18.8922 24.058 18.4669C23.87 18.0416 23.5631 17.6796 23.1743 17.4244C22.7855 17.1692 22.3313 17.0317 21.8662 17.0285ZM6.118 17.9035C6.96238 17.9035 7.64225 18.5886 7.64225 19.4522C7.64225 20.315 6.96238 21.0001 6.118 21.0001C5.91599 20.9993 5.71613 20.9585 5.52996 20.8801C5.34379 20.8017 5.17498 20.6872 5.03328 20.5432C4.89158 20.3992 4.77979 20.2286 4.70435 20.0412C4.62891 19.8538 4.59132 19.6533 4.59375 19.4513C4.59375 18.5886 5.2745 17.9035 6.118 17.9035ZM21.8662 17.9035C22.7106 17.9035 23.3905 18.5886 23.3905 19.4522C23.3905 20.315 22.7106 21.0001 21.8662 21.0001C21.6642 20.9993 21.4644 20.9585 21.2782 20.8801C21.092 20.8017 20.9232 20.6872 20.7815 20.5432C20.6398 20.3992 20.528 20.2286 20.4526 20.0412C20.3772 19.8538 20.3396 19.6533 20.342 19.4513C20.342 18.5886 21.0227 17.9035 21.8662 17.9035ZM4.94375 21.8751H7.308C8.60825 21.8751 9.62675 22.8673 9.62675 24.095V25.3637H8.75V24.0048C8.75071 23.9463 8.73968 23.8883 8.71757 23.8342C8.69547 23.78 8.66272 23.7308 8.62128 23.6896C8.57984 23.6483 8.53054 23.6157 8.4763 23.5938C8.42206 23.5719 8.36398 23.5611 8.3055 23.5621C8.18977 23.5639 8.07949 23.6116 7.9988 23.6945C7.91811 23.7775 7.8736 23.8891 7.875 24.0048V25.3628H4.375V24.0048C4.37571 23.9463 4.36468 23.8883 4.34257 23.8342C4.32047 23.78 4.28772 23.7308 4.24628 23.6896C4.20484 23.6483 4.15554 23.6157 4.1013 23.5938C4.04706 23.5719 3.98898 23.5611 3.9305 23.5621C3.81477 23.5639 3.70449 23.6116 3.6238 23.6945C3.54311 23.7775 3.4986 23.8891 3.5 24.0048V25.3628H2.625V24.095C2.625 22.8673 3.6435 21.8751 4.94375 21.8751ZM20.692 21.8751H23.0562C24.3565 21.8751 25.375 22.8673 25.375 24.095V25.3637H24.4982V24.0048C24.4992 23.9462 24.4883 23.888 24.4663 23.8336C24.4443 23.7793 24.4116 23.7299 24.3702 23.6884C24.3287 23.647 24.2793 23.6143 24.225 23.5922C24.1706 23.5702 24.1124 23.5594 24.0537 23.5603C23.9963 23.5612 23.9396 23.5735 23.8869 23.5963C23.8341 23.6191 23.7864 23.6521 23.7464 23.6934C23.7064 23.7347 23.675 23.7834 23.6539 23.8369C23.6327 23.8903 23.6223 23.9474 23.6232 24.0048V25.3628H20.1232V24.0048C20.1242 23.9462 20.1133 23.888 20.0913 23.8336C20.0693 23.7793 20.0366 23.7299 19.9952 23.6884C19.9537 23.647 19.9043 23.6143 19.85 23.5922C19.7956 23.5702 19.7374 23.5594 19.6787 23.5603C19.6213 23.5612 19.5646 23.5735 19.5119 23.5963C19.4591 23.6191 19.4114 23.6521 19.3714 23.6934C19.3314 23.7347 19.3 23.7834 19.2789 23.8369C19.2577 23.8903 19.2473 23.9474 19.2482 24.0048V25.3628H18.3732V24.095C18.3732 22.8673 19.3918 21.8751 20.692 21.8751ZM10.8658 23.5026L10.71 24.3671L11.2639 24.5255L11.2962 24.5342L12.1406 24.7048L12.1756 24.7136L12.2325 24.7223L12.3393 23.8526L12.2824 23.8438L11.4861 23.6811L10.8658 23.5017V23.5026ZM17.1106 23.514L16.0939 23.7721L15.7054 23.8316L15.8357 24.6978L16.247 24.6348L16.2908 24.6261L17.339 24.3583L17.3827 24.3461L17.1106 23.514ZM14.882 23.9375L13.9746 23.9812L13.1749 23.948L13.1372 24.823L13.9598 24.858H13.9983L14.9249 24.8107L14.882 23.9375Z" fill="#56E6E6"/>
</svg>
